<svg xmlns="http://www.w3.org/2000/svg" width="21.03" height="21" viewBox="0 0 21.03 21">
  <defs>
    <style>
      .uscls-1 {
        fill: #222;
        fill-rule: evenodd;
      }
    </style>
  </defs>
  <path data-name="Rounded Rectangle 107" class="uscls-1" d="M19.1299 3.70876C19.1187 3.70298 19.1074 3.69759 19.0958 3.69269L16.7233 2.66978C16.5868 2.61088 16.4326 2.60855 16.2944 2.66295L14.8707 3.22379L13.4469 2.66295C13.3144 2.6108 13.1672 2.6108 13.0346 2.66295L11.6107 3.22379L10.1871 2.66295C10.0546 2.6108 9.90726 2.6108 9.77483 2.66295L8.74083 3.07014C7.99902 1.4618 6.3951 0.417595 4.58241 0.417595C2.05571 0.417595 0 2.47322 0 5C0 7.52678 2.05571 9.5824 4.58241 9.5824C6.47136 9.5824 8.12719 8.45414 8.82521 6.73426L18.3989 6.73426C19.2817 6.73426 20 6.016 20 5.13316C20 4.53005 19.6666 3.98416 19.1299 3.70876ZM18.399 5.60929L8.42831 5.60929C8.18071 5.60929 7.96221 5.77122 7.89013 6.00804C7.44429 7.4731 6.11504 8.45744 4.58241 8.45744C2.67601 8.45744 1.12505 6.90639 1.12505 5C1.12505 3.0936 2.67601 1.54264 4.58241 1.54264C6.10395 1.54264 7.43047 2.5175 7.88338 3.96849C7.92999 4.11764 8.03647 4.24075 8.17742 4.30826C8.31845 4.37584 8.48118 4.38162 8.62648 4.32433L9.98087 3.79089L11.4045 4.35173C11.537 4.40388 11.6844 4.40388 11.8169 4.35173L13.2407 3.79089L14.6645 4.35173C14.797 4.40388 14.9444 4.4038 15.0769 4.35173L16.4909 3.79475L18.6298 4.71697C18.7814 4.80095 18.875 4.9591 18.875 5.13332C18.875 5.39578 18.6614 5.60929 18.399 5.60929Z" fill="#6EAB3F"/>
	<path data-name="Rounded Rectangle 107" class="uscls-1" d="M3.68038 3.53446C2.87227 3.53446 2.21484 4.19189 2.21484 5C2.21484 5.80811 2.87227 6.46554 3.68038 6.46554C4.48849 6.46554 5.14592 5.80811 5.14592 5C5.14592 4.19189 4.48841 3.53446 3.68038 3.53446ZM3.68038 5.34049C3.49266 5.34049 3.33989 5.18772 3.33989 5C3.33989 4.81228 3.49266 4.65951 3.68038 4.65951C3.8681 4.65951 4.02087 4.81228 4.02087 5C4.02087 5.18772 3.8681 5.34049 3.68038 5.34049Z" fill="#6EAB3F"/>
</svg>
