<?xml version="1.0" standalone="no"?>
<!DOCTYPE svg PUBLIC "-//W3C//DTD SVG 1.1//EN" "http://www.w3.org/Graphics/SVG/1.1/DTD/svg11.dtd" >
<svg xmlns="http://www.w3.org/2000/svg" xmlns:xlink="http://www.w3.org/1999/xlink" version="1.1">
<metadata>
Created by FontForge 20170924 at Thu Mar 22 16:16:00 1928
 By www-data
(c)1991,1993 Tilde Ltd. AG Fonts collection.
</metadata>
<defs>
<font id="AGOpusHighResolution-Roman" horiz-adv-x="556" >
  <font-face 
    font-family="AGOpusHighResolution"
    font-weight="400"
    font-stretch="normal"
    units-per-em="1000"
    panose-1="0 0 0 0 0 0 0 0 0 0"
    ascent="800"
    descent="-200"
    x-height="473"
    cap-height="683"
    bbox="-48 -259 1099 911"
    underline-thickness="38"
    underline-position="-160"
    unicode-range="U+0020-2122"
  />
<missing-glyph horiz-adv-x="800" 
d="M50 0v800h700v-800h-700zM700 50v700h-600v-700h600z" />
    <glyph glyph-name=".notdef" horiz-adv-x="800" 
d="M50 0v800h700v-800h-700zM700 50v700h-600v-700h600z" />
    <glyph glyph-name=".null" horiz-adv-x="0" 
 />
    <glyph glyph-name="nonmarkingreturn" horiz-adv-x="278" 
 />
    <glyph glyph-name="space" unicode=" " horiz-adv-x="278" 
 />
    <glyph glyph-name="exclam" unicode="!" horiz-adv-x="333" 
d="M222 591l-36 -423h-20l-37 421l-2 42q0 22 14 41t35 19q24 0 36.5 -20t12.5 -45zM176 -6q-23 0 -40 16t-17 40q0 22 17 39t40 17t40 -16t17 -40q0 -23 -16.5 -39.5t-40.5 -16.5z" />
    <glyph glyph-name="quotedbl" unicode="&#x22;" horiz-adv-x="333" 
d="M118 616v-169q1 -6 1 -18q0 -20 -8 -31t-26 -11q-35 0 -35 42q0 11 1 18v169q0 45 6 62.5t28 17.5q21 0 27 -17.5t6 -62.5zM281 616v-169q1 -6 1 -18q0 -20 -8 -31t-26 -11q-35 0 -35 42q0 11 1 18v169q0 45 6 62.5t28 17.5q21 0 27 -17.5t6 -62.5z" />
    <glyph glyph-name="numbersign" unicode="#" 
d="M499 272v-56h-109l-31 -216h-58l31 216h-134l-33 -216h-58l33 216h-107v56h116l21 133h-110v56h118l31 203h58l-31 -203h133l30 203h58l-30 -203h97v-56h-105l-20 -133h100zM361 405h-133l-21 -133h134z" />
    <glyph glyph-name="dollar" unicode="$" 
d="M268 291l-2 -256q48 11 75.5 45.5t27.5 87.5q0 49 -35 83q-12 11 -29.5 21.5t-36.5 18.5zM229 401v230q-41 -9 -66.5 -38.5t-25.5 -73.5q0 -36 18 -64.5t51 -43.5zM226 29l2 280l-70 29q-44 18 -71 60t-27 90q0 78 49 127q44 44 120 56v47v30l8 -3q5 -1 15 -1q12 0 20 4
v-74h7q42 0 77.5 -10.5t64.5 -35.5q-5 -13 -14 -38.5t-12 -40.5h-11q-18 40 -44 61q-29 24 -68 24l-3 -251l32 -13l45 -20q20 -9 37.5 -20.5t25.5 -20.5t19 -28q8 -14 14 -36t6 -39q0 -86 -50.5 -141.5t-130.5 -69.5l2 -111l-9 2q-10 2 -15 2q-11 0 -22 -4l3 82v23
q-6 -2 -21 -2q-41 0 -88.5 14.5t-73.5 39.5q8 28 11 42q7 27 7 44h11q32 -49 63 -71q38 -27 91 -27z" />
    <glyph glyph-name="percent" unicode="%" horiz-adv-x="889" 
d="M626 692l7 1l9 3l-372 -729l-10 3l-16 1l-13 -2l-8 -2l372 729l11 -3zM365 510q0 -68 -46.5 -118.5t-114.5 -50.5q-72 0 -115.5 45.5t-43.5 118.5q0 72 48 119t119 47q69 0 111 -46t42 -115zM837 157q0 -46 -22 -85t-62 -63q-14 -8 -36.5 -14t-40.5 -6q-71 0 -115 46
t-44 117q0 72 48 119t119 47q69 0 111 -46t42 -115zM589 139q0 -51 17 -84q22 -43 69 -43q49 0 72 53q17 39 17 95q0 73 -21.5 103t-59.5 30q-54 0 -77 -53q-17 -39 -17 -101zM117 492q0 -51 17 -84q22 -43 69 -43q49 0 72 53q17 39 17 95q0 57 -13 87q-20 46 -68 46
q-54 0 -77 -53q-17 -39 -17 -101z" />
    <glyph glyph-name="ampersand" unicode="&#x26;" horiz-adv-x="722" 
d="M319 406q47 34 71 65q31 41 31 89q0 36 -22 60t-58 24q-19 0 -36 -9t-28 -22.5t-16 -29.5t-5 -33q0 -26 13.5 -60t49.5 -84zM247 364l6 3q-34 51 -45 73q-22 44 -22 83q0 29 15 61t38 52q18 16 46 25.5t55 9.5q31 0 50.5 -5.5t43.5 -23.5q38 -29 38 -76q0 -56 -44 -106
q-29 -33 -92 -75q61 -78 123 -156l53 -60l5 6q2 2 18 28q9 12 12 17q17 26 25 39q18 28 25 41l25 47l9 19l3 -7l14 -18l21 -16q-68 -104 -135 -183l125 -144q-26 2 -38 3t-23 1l-57 -3q-25 36 -30 43q-12 17 -33 41q-88 -97 -216 -97q-40 0 -75.5 10.5t-62.5 35.5
q-52 49 -52 121q0 34 17.5 70.5t42.5 62t54 44.5q23 15 61 34zM270 343l-8 -5q-52 -33 -77 -66q-32 -42 -32 -96q0 -62 48 -107q23 -23 44 -31t55 -8q44 0 80.5 16.5t70.5 49.5l7 8q-40 49 -96 119.5t-92 119.5z" />
    <glyph glyph-name="quotesingle" unicode="'" horiz-adv-x="278" 
d="M172 616v-169q1 -6 1 -18q0 -20 -8 -31t-26 -11q-35 0 -35 42q0 11 1 18v169q0 45 6 62.5t28 17.5q21 0 27 -17.5t6 -62.5z" />
    <glyph glyph-name="parenleft" unicode="(" horiz-adv-x="278" 
d="M222 688l20 -18q-63 -84 -91 -191q-24 -92 -24 -212q0 -105 26 -203q12 -45 33 -87q15 -30 49 -82q3 -5 7 -10l-20 -19q-85 95 -122 191.5t-37 224.5q0 238 159 406z" />
    <glyph glyph-name="parenright" unicode=")" horiz-adv-x="278" 
d="M57 -134l-20 19l7 10q33 50 51 87q23 46 34.5 95t17 97.5t5.5 105.5q0 113 -25 205q-28 104 -90 185l20 18q78 -82 118.5 -186t40.5 -220q0 -129 -36.5 -225t-122.5 -191z" />
    <glyph glyph-name="asterisk" unicode="*" horiz-adv-x="444" 
d="M82 624l126 -90l-14 154q8 -1 14.5 -1h14.5q19 0 28 2l-15 -157l125 93q12 -27 30 -51l-141 -64l140 -62q-8 -12 -14 -22.5t-14 -27.5l-127 89l17 -155q-12 1 -21 1.5t-15 0.5q-8 0 -22 -2l14 152l-122 -89l-23 39l-6 10l140 65l-144 64q20 23 29 51z" />
    <glyph glyph-name="plus" unicode="+" horiz-adv-x="606" 
d="M271 286v219h64v-219h220v-64h-220v-222h-64v222h-220v64h220z" />
    <glyph glyph-name="comma" unicode="," horiz-adv-x="278" 
d="M63 -168l-18 7l70 222q9 27 14 36q13 21 32 21q37 0 42 -37q0 -15 -10 -31.5t-13 -22.5z" />
    <glyph glyph-name="hyphen" unicode="-" horiz-adv-x="333" 
d="M41 204v62h250v-62h-250z" />
    <glyph glyph-name="period" unicode="." horiz-adv-x="278" 
d="M148 -6q-23 0 -40 16t-17 40q0 22 17 39t40 17t40 -16t17 -40q0 -23 -16.5 -39.5t-40.5 -16.5z" />
    <glyph glyph-name="slash" unicode="/" horiz-adv-x="278" 
d="M327 748l-325 -853l-19 3l-10 -1l-21 -3l317 854l9 -1l16 -2l14 1z" />
    <glyph glyph-name="zero" unicode="0" 
d="M282 637q-49 0 -87 -32q-16 -14 -25.5 -28t-19.5 -38q-5 -11 -7.5 -22.5t-5.5 -26.5l-6 -47q-3 -28 -5 -55.5t-2 -55.5q0 -130 21 -198q36 -117 135 -117q22 0 48.5 12t40.5 29q16 17 25.5 37.5t15.5 46.5q10 44 14.5 91.5t4.5 100.5q0 76 -8 127q-12 75 -41 119
q-16 24 -43 40.5t-55 16.5zM42 311q0 150 46 240q60 118 196 118q98 0 155 -66q50 -58 65 -160q4 -26 5 -51t1 -58q0 -53 -5.5 -95t-19.5 -88q-9 -28 -24 -54.5t-36.5 -49t-39 -32.5t-48 -20t-59.5 -10q-67 0 -116 27t-78 85q-21 42 -31.5 101t-10.5 113z" />
    <glyph glyph-name="one" unicode="1" 
d="M242 217v384l-7 3l-111 -60q-7 8 -14 17q-2 3 -5 6q-8 7 -13 12l10 6l24 10l111 49l85 41l9 -6l-2 -23l-4 -75l-6 -228l6 -332v-21l-45 3l-49 -3l3 22z" />
    <glyph glyph-name="two" unicode="2" 
d="M438 0l-151 3l-113 2l-58 -2l-44 -3h-28v15l42 40q11 10 40 42l60 62q74 78 90 97q45 54 67 105q26 60 26 131q0 32 -6.5 57t-24.5 47q-32 38 -86 38q-47 0 -80 -29.5t-42 -76.5l-7 -3l-35 49q60 95 173 95q91 0 143 -41q57 -45 57 -134q0 -58 -30 -114q-24 -44 -73 -96
l-121 -125l-59 -66l-17 -19l3 -7l152 2l157 7l-1 -7l-3 -32v-15.5t4 -21.5h-35z" />
    <glyph glyph-name="three" unicode="3" 
d="M72 84l6 4q28 -31 62 -48t73 -17q75 0 118 49t43 126q0 65 -36 100t-102 35q-8 0 -27.5 -2t-20.5 -2l2 23l-2 18l38 -2q35 0 58 10t39 38q10 18 16.5 47.5t6.5 54.5t-5.5 46.5t-19.5 38.5q-31 39 -81 39q-36 0 -67.5 -22t-45.5 -56l-7 -3l-23 54l11 10q56 50 136 50
q75 0 128 -33q62 -39 62 -110q0 -61 -34 -107t-93 -63q-7 -4 -8 -8q71 0 118.5 -41t47.5 -113q0 -42 -14.5 -75t-44.5 -64q-25 -25 -60 -42q-30 -14 -70 -23q-13 -2 -28.5 -3.5t-36.5 -1.5q-42 0 -78.5 7.5t-72.5 24.5q5 13 8 32t4 29z" />
    <glyph glyph-name="four" unicode="4" 
d="M416 664l-3 -82l-3 -129v-210l95 5q-4 -16 -4 -37v-14q2 -10 2 -15l-96 4l5 -180l1 -7l-43 2l-45 -2l2 23l4 81v83l-310 -3v16l125 176l102 144q39 55 100 145q8 -1 17 -1.5t14 -0.5h23q10 2 14 2zM104 248l4 -6h225v322l-5 4l-120 -167z" />
    <glyph glyph-name="five" unicode="5" 
d="M59 31v8l15 58l7 1q22 -36 61 -54.5t84 -18.5q36 0 65.5 17t52.5 47q18 24 24.5 54t6.5 67q0 33 -8 61t-27 49q-42 43 -108 43q-24 0 -45.5 -6.5t-44.5 -19.5l-9 -7l-11 7q4 30 6 50.5t2 38.5v63v79l-6 99l6 3q38 -5 76.5 -6.5t95.5 -1.5h66q14 0 47.5 2t35.5 2l4 -5
q-3 -14 -5 -27.5t-2 -27.5q0 -12 1 -18q-26 3 -48.5 5t-46.5 2l-177 6l-6 -84l-3 -136q22 12 50 18t55 6q82 0 138.5 -52.5t56.5 -134.5q0 -16 -2.5 -30t-8.5 -33q-10 -37 -34 -69t-58 -55q-30 -20 -67.5 -29.5t-78.5 -9.5q-42 0 -79 7.5t-72 25.5z" />
    <glyph glyph-name="six" unicode="6" 
d="M398 669l11 -34q-21 7 -47 7q-109 0 -168 -117q-46 -92 -46 -214q57 89 162 89q40 0 78.5 -13t63.5 -39t38 -61.5t13 -72.5q0 -97 -60.5 -159.5t-157.5 -62.5q-118 0 -177 86q-50 73 -50 198q0 77 18.5 150.5t57.5 127.5q19 28 44.5 51.5t55.5 38.5q13 6 26 11.5t25 7.5
q34 9 68 9h21.5t23.5 -3zM289 362q-70 0 -110 -59q-16 -23 -23.5 -54t-7.5 -63q0 -65 37.5 -114t100.5 -49q34 0 60 18t44 50q13 23 18.5 53t5.5 63q0 38 -6.5 61.5t-28.5 50.5q-33 43 -90 43z" />
    <glyph glyph-name="seven" unicode="7" 
d="M79 8l280 460l67 115l-5 5l-180 -3l-161 -7q0 7 2 22t2 22t-2 22t-2 22l30 -3l88 -4l218 -4h91v-14l-262 -459l-96 -182q-20 3 -39 3q-16 0 -31 -3v8z" />
    <glyph glyph-name="eight" unicode="8" 
d="M199 370v7l-8 3q-45 14 -73.5 50.5t-28.5 82.5q0 73 60 118q55 41 131 41q42 0 72.5 -7.5t60.5 -30.5q55 -42 55 -111q0 -49 -32 -89t-80 -53v-7q12 -2 14 -4q58 -15 93.5 -58t35.5 -103q0 -99 -62.5 -158.5t-162.5 -59.5q-99 0 -157 48q-63 52 -63 150q0 64 41 115
t104 66zM279 641q-25 0 -47 -12t-36 -32.5t-18.5 -42t-4.5 -51.5q0 -50 33 -86q14 -16 32 -22.5t42 -6.5q26 0 47.5 12t36.5 34q9 12 15 32.5t6 54.5q0 51 -28 85.5t-78 34.5zM279 356q-64 0 -100.5 -49.5t-36.5 -115.5q0 -72 32 -117q36 -51 106 -51q65 0 101 56
q31 49 31 118t-31 111q-35 48 -102 48z" />
    <glyph glyph-name="nine" unicode="9" 
d="M102 59l5 -4q40 -35 97 -35q10 0 22 3t18 4q39 12 73 55q29 36 45 79.5t24.5 94.5t8.5 98q-24 -43 -67.5 -67t-93.5 -24q-37 0 -76.5 16t-64 42.5t-36.5 62t-12 73.5q0 43 17 86t47 70q34 30 74 44t86 14q54 0 97.5 -21.5t72.5 -65.5q16 -25 24.5 -46t13.5 -52
q9 -50 9 -102q0 -71 -17.5 -139t-54 -126.5t-94 -95t-124.5 -36.5q-13 0 -34 3.5t-32 5.5q-8 4 -13 4q-5 23 -6 26t-10 23q-4 4 1 10zM394 465q0 30 -7.5 63.5t-22.5 57t-41.5 38.5t-56.5 15q-68 0 -103 -57q-30 -48 -30 -120q0 -67 28 -109q33 -50 97 -50q67 0 105 59
q31 49 31 103z" />
    <glyph glyph-name="colon" unicode=":" horiz-adv-x="278" 
d="M176 -6q-23 0 -40 16t-17 40q0 22 17 39t40 17t40 -16t17 -40q0 -23 -16.5 -39.5t-40.5 -16.5zM176 350q-23 0 -40 16t-17 40q0 23 17 40t40 17t40 -17t17 -40t-16.5 -39.5t-40.5 -16.5z" />
    <glyph glyph-name="semicolon" unicode=";" horiz-adv-x="278" 
d="M91 -168l-17 7l70 222q9 27 14 36q13 21 32 21q16 0 28.5 -10.5t12.5 -26.5q0 -13 -7 -28q-2 -4 -15 -25zM182 350q-23 0 -40 16t-17 40q0 23 17 40t40 17t39.5 -16.5t16.5 -40.5t-16 -40t-40 -16z" />
    <glyph glyph-name="less" unicode="&#x3c;" horiz-adv-x="606" 
d="M558 55v-62l-509 234v54l509 234v-62l-428 -199z" />
    <glyph glyph-name="equal" unicode="=" horiz-adv-x="606" 
d="M555 383v-64h-504v64h504zM555 189v-64h-504v64h504z" />
    <glyph glyph-name="greater" unicode="&#x3e;" horiz-adv-x="606" 
d="M48 55l428 199l-428 199v62l509 -234v-54l-509 -234v62z" />
    <glyph glyph-name="question" unicode="?" horiz-adv-x="389" 
d="M292 423l-63 -69q-25 -29 -34 -42q-17 -27 -17 -52q0 -26 16 -43t39 -17q10 0 23 5l7 3l6 -4l-12 -28l-14 -4q-56 0 -92 31t-36 86q0 28 10.5 54t47.5 64l60 64q25 26 37 45q17 27 17 55q0 38 -27 60.5t-66 22.5q-23 0 -46.5 -13t-37.5 -32l-6 50q26 15 49.5 23t48.5 8
q34 0 58 -6.5t47 -26.5q45 -37 45 -97q0 -43 -13.5 -71.5t-46.5 -65.5zM206 -6q-23 0 -40 16t-17 40q0 22 17 39t40 17t40 -16t17 -40q0 -23 -16.5 -39.5t-40.5 -16.5z" />
    <glyph glyph-name="at" unicode="@" horiz-adv-x="800" 
d="M684 175h61q-46 -87 -132.5 -138.5t-186.5 -51.5q-157 0 -266.5 98t-109.5 250q0 153 105 258t263 105q58 0 115.5 -19t105.5 -53q111 -81 111 -212q0 -56 -17.5 -104.5t-56.5 -87.5q-33 -33 -72 -55q-48 -27 -87 -27q-36 0 -56 24.5t-20 59.5q-32 -41 -53 -56
q-31 -23 -69 -23q-54 0 -94 42q-21 22 -30.5 46.5t-9.5 56.5q0 82 66 153t150 71q37 0 59.5 -19.5t29.5 -56.5l18 66h88l-77 -278q-5 -20 -5 -24q0 -14 7 -23.5t21 -9.5q24 0 57 27q27 22 45 48q26 35 39.5 78.5t13.5 89.5q0 50 -20.5 92t-60.5 75q-84 69 -191 69
q-138 0 -229 -86t-91 -220q0 -135 93 -220t233 -85q79 0 143.5 37t109.5 103zM335 170q59 0 101 95q35 79 35 146q0 28 -11 48q-15 26 -42 26q-60 0 -105 -87q-39 -75 -39 -140q0 -36 12 -58q16 -30 49 -30z" />
    <glyph glyph-name="A" unicode="A" horiz-adv-x="667" 
d="M328 697h20l284 -661l17 -36l-51 3h-27t-28 -3l-9 29l-45 120l-49 118l-120 3l-134 -3q-58 -145 -65 -165q-14 -39 -33 -102q-6 2 -17 2t-18 1l-37 -3zM325 309h100l-111 256l-109 -255z" />
    <glyph glyph-name="B" unicode="B" horiz-adv-x="611" 
d="M170 683l77 2h44q21 0 41 -0.5t48.5 -5t49 -11t39.5 -23.5q45 -39 45 -101q0 -67 -44.5 -113.5t-113.5 -63.5l12 -1q23 -5 48.5 -11t41.5 -16q22 -14 31 -21q14 -11 25.5 -28.5t18 -38.5t6.5 -41q0 -107 -90 -169q-39 -27 -101 -35q-38 -5 -110 -5h-120h-25q0 25 3.5 69
t3.5 58l2 340l-2 120l-4 97q12 0 37 -1t37 -1zM183 567v-100l-1 -86h43q42 0 69 3.5t56 17.5q77 36 77 121q0 32 -15 62.5t-40 43t-52.5 16t-62.5 3.5l-72 -3q0 -13 -1 -39t-1 -39zM182 344l2 -301q21 0 54 -2.5t40 -2.5q38 0 66.5 9.5t52 33t36.5 52t13 60.5q0 82 -63 124
q-26 17 -62.5 22t-81.5 5h-57z" />
    <glyph glyph-name="C" unicode="C" horiz-adv-x="667" 
d="M609 573l-7 -1q-6 5 -11 11q-36 34 -84 54.5t-96 20.5q-132 0 -207 -95q-69 -88 -69 -224q0 -28 5 -63t12 -62q14 -52 49.5 -96.5t88.5 -69t114 -24.5q52 0 104 19t96 53q4 3 7.5 5t8.5 2l-9 -61q-45 -30 -100.5 -43t-120.5 -13q-164 0 -258 96t-94 261q0 76 30 147
t84 117t121 67.5t142 21.5q53 0 108.5 -12t106.5 -34q-6 -15 -12 -37.5t-9 -39.5z" />
    <glyph glyph-name="D" unicode="D" horiz-adv-x="778" 
d="M184 161l4 -116q26 0 50 -2t58 -4q36 0 58.5 1t57.5 6.5t69 22.5q43 21 67.5 46.5t45.5 71.5q19 38 26.5 78.5t7.5 90.5q0 69 -16 124q-20 69 -65.5 107t-109.5 50q-42 8 -123 8q-21 0 -71 -2t-53 -2q0 -34 -3 -103t-3 -104v-273zM295 1l-123 2l-75 -3l5 98l2 464l-3 123
h25h201q112 0 152 -6q80 -12 135.5 -57t82 -111t26.5 -140q0 -47 -6.5 -88t-24 -79t-41 -69.5t-54.5 -58.5q-56 -49 -143 -65q-54 -10 -159 -10z" />
    <glyph glyph-name="E" unicode="E" horiz-adv-x="500" 
d="M197 681h144q17 0 58.5 2t44.5 2l-3 -30v-13.5t3 -16.5l-90 7l-100 3h-73l-5 -150v-45l1 -57h101l54 3l89 5q-3 -10 -4 -15t-1 -15q0 -12 2 -19.5t2 -10.5q-24 2 -46.5 4t-41.5 2l-56 2h-43h-56l-1 -80v-125l2 -87q31 0 103 2t77 2q28 0 41.5 1.5t49.5 7.5q-3 -15 -3 -30
q0 -12 2 -19.5t2 -10.5l-69 2l-123 2l-87 -1l-84 -2l6 126l3 342l-2 88l-5 128z" />
    <glyph glyph-name="F" unicode="F" horiz-adv-x="500" 
d="M197 681h144q17 0 58.5 2t44.5 2l-3 -30v-13.5t3 -16.5l-90 7l-100 3h-73l-5 -150v-45l1 -57h101l54 3l89 5q-3 -10 -4 -15t-1 -15q0 -12 2 -19.5t2 -10.5q-24 2 -46.5 4t-41.5 2l-56 2h-43h-56l-1 -80l2 -258h-65h-26l6 126l3 342l-2 88l-5 128z" />
    <glyph glyph-name="G" unicode="G" horiz-adv-x="778" 
d="M671 560h-11q-41 47 -101 73t-124 26q-132 0 -217 -94q-38 -43 -55 -100.5t-17 -121.5q0 -67 20 -130t61.5 -107.5t96.5 -63.5t122 -19q44 0 83 7.5t76 25.5v108v54l-3 92l48 -4q11 0 23.5 0.5t20.5 6.5l-1 -30l-3 -100v-119v-34q-133 -46 -272 -46q-103 0 -196 44
q-47 22 -78.5 53t-58.5 79q-20 38 -28 81.5t-8 96.5q0 171 111 266q105 90 279 90q68 0 125 -11t117 -38l13 -8q-4 -11 -10.5 -33t-12.5 -44z" />
    <glyph glyph-name="H" unicode="H" horiz-adv-x="778" 
d="M596 347h-417l3 -217l4 -108l2 -22q-10 0 -26.5 2.5t-19.5 2.5q-11 0 -30 -2.5t-23 -2.5l2 22l4 79l4 234v38v206l-5 106q8 0 25 -2t26 -2l46 3l-2 -27l-4 -91l-5 -174l129 -3l286 3v212l-5 81q8 0 25 -2t26 -2l47 3l-3 -27l-9 -326l3 -225l5 -106q-9 0 -25 2.5t-20 2.5
q-11 0 -30 -2.5t-23 -2.5l2 22l5 103z" />
    <glyph glyph-name="I" unicode="I" horiz-adv-x="278" 
d="M191 683l-9 -222q0 -33 -2 -107.5t-2 -80.5l2 -60l9 -213l-49 3l-51 -3l10 215q0 16 1 48t1 48l1 85l-1 72l-4 214q11 -1 24 -3t21 -2q12 0 24 0.5t25 5.5z" />
    <glyph glyph-name="J" unicode="J" horiz-adv-x="278" 
d="M-6 -138l-8 27q74 0 103 59q21 43 21 126l2 195v117v70q0 38 -2 82q-5 111 -5 138v9q7 -1 21.5 -2t27.5 -1h12q18 0 35 3l-1 -11q-4 -34 -5 -65t-1 -72v-182l5 -268q0 -98 -54.5 -161.5t-150.5 -63.5z" />
    <glyph glyph-name="K" unicode="K" horiz-adv-x="611" 
d="M95 569l-2 91l-2 23l12 -2q15 -3 31 -3q9 0 17.5 0.5t33.5 4.5q-1 -7 -1.5 -15.5t-0.5 -13.5l-5 -265l1 -17q7 -6 9 -6l28 21l41 40l49 48l194 208l36 -2l43 2l-224 -220l-85 -86q121 -138 243 -275l81 -95v-7q-11 0 -19 1q-30 4 -34 4q-13 0 -33 -2.5t-23 -2.5
q-36 44 -71 88l-135 161l-83 94q-10 8 -17 3l-1 -14l1 -106v-102l4 -99l2 -25q-15 3 -29 3q-7 0 -23 -1t-24 -1l-19 -1l2 26l6 177l2 139l-2 133z" />
    <glyph glyph-name="L" unicode="L" horiz-adv-x="500" 
d="M175 259v-125l2 -87q32 0 104.5 2t76.5 2q24 0 59 4q24 4 36 5q-2 -8 -3 -14.5t-1 -15.5q0 -12 2 -19.5t2 -10.5l-72 2l-123 2l-87 -1l-84 -2l7 126v430q0 29 -1 47q-4 72 -4 79h70h25l-6 -154q0 -26 -2 -86t-2 -65z" />
    <glyph glyph-name="M" unicode="M" horiz-adv-x="889" 
d="M142 693h17l136 -264q66 -126 154 -272l78 142l131 242l85 152h13l49 -433q8 -73 16 -134t17 -126l-45 3h-24t-25 -3l-32 364l-18 149l-141 -258l-53 -104q-17 -36 -25 -53q-22 -45 -43 -90h-11l-55 113q-36 75 -64 129.5t-69 132.5q-35 65 -69 130l-43 -391l-5 -100
l-1 -22q-20 3 -39 3q-16 0 -31 -3l1 9l33 206l49 363q5 29 8.5 62.5t5.5 52.5z" />
    <glyph glyph-name="N" unicode="N" horiz-adv-x="778" 
d="M101 132l7 232v334h17l492 -526l7 -6l3 109v320l-4 80l-1 8l43 -3l25 3l-2 -24l-5 -98l-9 -237l-3 -224l3 -113h-15l-61 71l-163 181l-279 297l-2 -94v-148v-80l3 -118l5 -96q-17 3 -34 3t-35 -3q3 34 5.5 74.5t2.5 57.5z" />
    <glyph glyph-name="O" unicode="O" horiz-adv-x="833" 
d="M694 347q0 68 -12 116q-15 58 -51.5 105.5t-91 72.5t-116.5 25q-95 0 -167 -53q-61 -45 -90 -128q-25 -71 -25 -158q0 -67 16 -121.5t55 -99.5q79 -90 202 -90q104 0 177.5 67.5t93.5 172.5q9 44 9 91zM413 701q55 0 104.5 -9.5t92.5 -32.5q182 -96 182 -302
q0 -167 -106.5 -269.5t-274.5 -102.5q-117 0 -202 48q-89 51 -138 153q-7 15 -13 38.5t-9 41.5q-6 38 -6 75q0 77 28.5 145t83.5 117.5t119.5 73.5t138.5 24z" />
    <glyph glyph-name="P" unicode="P" 
d="M182 311v-73v-44l3 -173v-22l-46 3l-50 -2l2 25l9 193l-4 351l-5 114q15 -2 30 -2h31l121 2q104 0 151 -14q82 -25 101 -101q6 -26 6 -51q0 -26 -8.5 -57t-21.5 -51q-16 -25 -31.5 -38t-45 -27t-47 -19t-60.5 -12q-10 -2 -30 -3t-30 -1zM183 618l-2 -57v-211q7 -1 21 -2
t27 -1l52 3q41 4 66 13q32 12 55 38q16 18 26.5 50.5t10.5 60.5q0 25 -8 50.5t-23 42.5t-36.5 25.5t-45 10.5t-34.5 3t-21 1l-88 -3v-24z" />
    <glyph glyph-name="Q" unicode="Q" horiz-adv-x="833" 
d="M613 -67l55 -41l85 -62q-20 -9 -40.5 -19.5t-37.5 -22.5l-6 7q-103 104 -220 190l-24 -3q-171 0 -274 92q-108 97 -108 267q0 156 106.5 257.5t263.5 101.5q164 0 268 -88q111 -94 111 -255q0 -69 -16.5 -123.5t-56.5 -108.5q-35 -47 -83.5 -79t-106.5 -46zM694 347
q0 68 -12 116q-15 58 -51.5 105.5t-91 72.5t-116.5 25q-139 0 -215 -103q-68 -92 -68 -236q0 -66 16 -120.5t56 -100.5q79 -90 202 -90q104 0 177.5 67.5t93.5 172.5q9 44 9 91z" />
    <glyph glyph-name="R" unicode="R" horiz-adv-x="611" 
d="M183 644l-4 -275l48 -2h11q34 0 72 7q56 12 92 49.5t36 93.5q0 27 -7.5 49t-25 40t-33.5 25t-40.5 11t-51.5 4h-15zM94 684l78 -2l133 2q73 0 113 -11q62 -17 88 -66q9 -17 15 -38t6 -40q0 -81 -64 -132q-53 -42 -141 -58l206 -261l48 -56l17 -22q-13 0 -22 1
q-34 4 -37 4q-13 0 -33 -2.5t-23 -2.5l-61 84l-118 153l-80 94h-38v-80v-43l4 -208l-46 3l-49 -3l5 116l5 350l-6 194v24z" />
    <glyph glyph-name="S" unicode="S" horiz-adv-x="500" 
d="M63 132h10q31 -52 66 -75q40 -27 96 -27q60 0 99.5 41.5t39.5 102.5q0 47 -29 79q-23 25 -72 47q-6 3 -54 23q-58 24 -89 45t-50 58t-19 78q0 92 66 144q61 48 156 48q40 0 78 -12t65 -36q-7 -16 -12 -30q-1 -3 -15 -52h-10q-16 42 -48 66t-76 24q-53 0 -89.5 -33.5
t-36.5 -86.5q0 -57 43 -93q12 -10 20 -14.5t19 -9.5l38 -17l45 -19q23 -11 46 -21q16 -9 33 -18q19 -12 30 -25q20 -25 30.5 -50.5t10.5 -55.5q0 -105 -72 -167q-68 -59 -175 -59q-41 0 -90 15t-73 41q8 22 11.5 40.5t7.5 48.5z" />
    <glyph glyph-name="T" unicode="T" 
d="M508 624l-107 9h-51h-25l-1 -23l-3 -106v-398l6 -99l1 -7q-11 1 -21 2.5t-25 1.5h-23t-30 -4l3 25l4 105l5 402v102q-21 0 -63 -2t-63 -2l-96 -7q3 18 3 37v11q-2 8 -2 12l137 -6l131 -2l124 3l124 5q-3 -17 -3 -34q0 -14 3 -29z" />
    <glyph glyph-name="U" unicode="U" horiz-adv-x="778" 
d="M97 282l4 110v108l-3 157l-2 26q11 0 29.5 -2.5t22.5 -2.5q9 0 25 2.5t19 2.5l-2 -25l-3 -68l-4 -212l-1 -79q0 -35 1 -56.5t6 -47.5q14 -82 73 -124q55 -39 141 -39q30 0 65 8.5t55.5 23t39.5 37.5t30 47q17 39 22 96.5t5 124.5l2 116l-3 107l-4 91q21 -3 42 -3
q14 0 29 3q0 -20 -4 -61t-4 -61l-10 -277q0 -36 -3.5 -65.5t-12 -55.5t-24.5 -55t-32 -44q-41 -41 -96 -59.5t-117 -18.5q-48 0 -90.5 8.5t-81.5 28.5q-8 4 -17.5 10.5t-27.5 22.5q-42 38 -58 104q-11 46 -11 122z" />
    <glyph glyph-name="V" unicode="V" horiz-adv-x="667" 
d="M304 0l-85 220l-179 435l-15 28q9 0 32 -2t25 -2q8 0 26.5 2t19.5 2l36 -99l67 -175l123 -303h7q26 60 52 121l105 271l60 167l6 18q10 -2 19.5 -3t21.5 -1q19 0 32 4l-12 -25l-226 -530l-49 -128q-17 3 -33 3t-33 -3z" />
    <glyph glyph-name="W" unicode="W" horiz-adv-x="1000" 
d="M607 488l125 -373l3 -7h7l37 114l116 377l23 84q16 -4 35 -4q20 0 35 4q-10 -25 -23.5 -60.5t-25.5 -69.5l-190 -553q-17 3 -34 3q-16 0 -34 -3q-5 14 -8 22l-149 463l-28 73l-196 -558q-17 3 -32 3q-19 0 -37 -3l-39 129l-178 554q9 0 27 -2t28 -2q7 0 22 2t22 2
l29 -108l59 -203l84 -264h7l124 365l28 86l35 115l2 9q18 -3 35 -3q15 0 30 3l9 -27z" />
    <glyph glyph-name="X" unicode="X" horiz-adv-x="611" 
d="M159 174l111 167l-115 189l-92 145l-5 8q10 0 34 -2t26 -2q8 0 27.5 2t20.5 2q10 -20 17 -33q3 -5 32 -55l106 -182l166 270q17 -4 37 -4q6 0 14.5 0.5t22.5 3.5l-15 -22l-153 -213l-49 -74l231 -374q-28 4 -65 4h-19.5t-26.5 -4q-77 152 -171 301q-47 -70 -91.5 -145
t-88.5 -156q-8 3 -18 4t-22 1q-6 0 -17 -2t-17 -3z" />
    <glyph glyph-name="Y" unicode="Y" horiz-adv-x="611" 
d="M491 635l25 48q11 -2 21 -3t22 -1q19 0 34 4l-69 -102l-110 -177q-32 -48 -61 -110l3 -203l4 -91l-54 3l-44 -3l2 21l5 97l2 100v64l-244 401q9 0 27 -2t28 -2q31 0 55 4l48 -90q38 -71 49 -91l81 -139q7 -14 11 -17q8 7 17 20q3 5 14 23q35 58 85 153q43 81 49 93z" />
    <glyph glyph-name="Z" unicode="Z" horiz-adv-x="611" 
d="M270 47l213 8l98 8q-4 -16 -4 -35l3 -27h-25l-126 4l-232 2l-180 -5v15l291 411q36 51 72 103q33 48 70 106h-14h-12h-38.5t-38.5 1h-11l-196 -8l-82 -6l3 30q0 20 -3 29q22 0 72.5 -2t53.5 -2h274l117 3l9 1v-15l-118 -154l-233 -332l-85 -129l4 -6h68h50z" />
    <glyph glyph-name="bracketleft" unicode="[" horiz-adv-x="333" 
d="M152 -115l-20 -1v21l5 104v674l51 -3l106 3v-8v-21h-91l-1 -22l-3 -81l-3 -377l4 -237v-25l88 2l-1 -10l1 -20l-86 3z" />
    <glyph glyph-name="backslash" unicode="\" horiz-adv-x="500" 
d="M95 748l372 -748q-11 1 -19 1.5t-13 0.5h-15q-10 -2 -15 -2l-372 748q8 -1 15.5 -1.5t15.5 -0.5h12q7 0 19 2z" />
    <glyph glyph-name="bracketright" unicode="]" horiz-adv-x="333" 
d="M183 682l20 1v-21l-5 -105v-673l-52 3l-105 -3v8v21h91l1 22l3 80l3 133v367l-5 115v25l-88 -2q1 6 1 19q0 7 -1 11l86 -3z" />
    <glyph glyph-name="asciicircum" unicode="^" horiz-adv-x="606" 
d="M121 275h-70l219 406h66l218 -406h-70l-181 326z" />
    <glyph glyph-name="underscore" unicode="_" horiz-adv-x="500" 
d="M500 -129h-500v48h500v-48z" />
    <glyph glyph-name="grave" unicode="`" horiz-adv-x="333" 
d="M240 532h-35l-157 98q-10 8 -13 10q-9 6 -12 13t-3 14q0 4 2 12q11 28 41 21q10 -4 13 -7q10 -7 21 -18.5t17 -17.5z" />
    <glyph glyph-name="a" unicode="a" horiz-adv-x="500" 
d="M101 370h-11v56q40 27 79 42t82 15q35 0 67.5 -11.5t57 -36.5t32.5 -56q5 -20 5 -66l-3 -120l-2 -72v-17q0 -33 5 -48q9 -25 33 -25q16 0 23 4v-22l-7 -3l-23 -7q-17 -3 -33 -3q-29 0 -47.5 14t-22.5 47l-9 -9q-63 -63 -148 -63q-55 0 -94 34t-39 88q0 33 15.5 64
t42 45.5t55.5 21t72 13.5q22 3 45.5 7.5t42.5 15.5q10 5 15 11q3 8 3 33q0 56 -30.5 87.5t-86.5 31.5q-32 0 -62 -15t-48 -42zM333 100l4 149l-9 -4l-30 -6q-87 -17 -110 -27q-60 -27 -60 -87q0 -46 26 -70t72 -24q20 0 41.5 10.5t39.5 26.5l18 21q4 3 8 11z" />
    <glyph glyph-name="b" unicode="b" 
d="M84 0h-18l2 20l3 91l3 374l-6 238v25q24 -3 48 -3q18 0 38 3l-2 -25l-3 -93l-4 -228v-24q33 49 73 74q44 28 100 28q31 0 48.5 -3.5t42.5 -15.5q39 -20 64.5 -55t36 -71.5t10.5 -85.5q0 -105 -59 -180q-64 -81 -167 -81q-83 0 -134 62l-8 10q-12 -9 -34 -29
q-17 -16 -34 -31zM433 245q0 44 -7 73.5t-25.5 59t-46.5 45.5t-61 16q-42 0 -73.5 -21.5t-49 -57t-22.5 -71.5t-5 -85q0 -34 8.5 -68t25.5 -59.5t46 -40.5t60 -15q76 0 117 77q33 63 33 147z" />
    <glyph glyph-name="c" unicode="c" horiz-adv-x="500" 
d="M458 439l-23 -66h-8q-6 8 -13 17.5t-14 15.5q-17 19 -44.5 30.5t-54.5 11.5q-82 0 -130 -64q-44 -59 -44 -143q0 -41 11.5 -80.5t35.5 -70t60.5 -48t76.5 -17.5q42 0 71.5 14.5t66.5 47.5l6 -3l-5 -46q-68 -50 -153 -50q-81 0 -136 28q-61 31 -95 100q-13 26 -19 57.5
t-6 62.5q0 114 72 179t187 65q46 0 84 -9.5t74 -31.5z" />
    <glyph glyph-name="d" unicode="d" 
d="M406 404v152l-2 166v26l9 -2q9 -2 16.5 -2h16.5q24 0 41 4l-2 -29l-3 -82l-3 -637l-10 1l-18 2h-21.5t-23.5 -3l2 95q-2 -1 -4 -3.5t-2 -3.5q-55 -100 -167 -100q-41 0 -86 20q-16 7 -33 21q-6 5 -28 27q-29 30 -41 77.5t-12 97.5q0 54 13 97t44 80q61 73 158 73
q50 0 90 -25.5t66 -71.5v20zM121 217q0 -19 1 -26.5t9.5 -53t44.5 -79t84 -33.5q78 0 116 77q30 61 30 147q0 76 -28 127q-35 64 -106 64q-86 0 -123 -73q-28 -55 -28 -150z" />
    <glyph glyph-name="e" unicode="e" horiz-adv-x="500" 
d="M468 279l-2 -39l-203 3l-143 -3q0 -90 42 -147q47 -63 133 -63q35 0 74.5 17.5t64.5 42.5q4 6 14 7l-6 -50q-39 -28 -82 -43.5t-90 -15.5q-19 0 -35 3q-24 6 -35 8q-37 8 -72.5 34t-56 58.5t-29 67.5t-8.5 76q0 50 16 99t46.5 81.5t75.5 50t91 17.5q97 0 151 -54t54 -150
zM388 280q0 74 -25 116q-32 54 -100 54q-67 0 -106 -54q-35 -48 -35 -116l131 -3z" />
    <glyph glyph-name="f" unicode="f" horiz-adv-x="278" 
d="M296 668l-5 -4l-20 10q-8 3 -20.5 4t-14.5 1q-41 0 -61.5 -27t-20.5 -71q0 -23 5 -61q2 -19 5 -37l2 -18h103l-2 -7l-1 -19l1 -14l-101 3l-2 -121v-80l5 -202v-25l-8 1q-8 1 -18.5 1.5t-15.5 0.5h-21.5t-23.5 -3l2 26l3 73l3 328h-71q1 17 1 26q0 8 -1 12h72l2 18
q11 103 49 172q51 93 138 93q14 0 21 -1l-2 -23q0 -13 -1.5 -34t-1.5 -22z" />
    <glyph glyph-name="g" unicode="g" horiz-adv-x="500" 
d="M140 37v8q-10 0 -15 2t-20 10q-16 13 -21 26t-5 36q0 30 18.5 48.5t50.5 30.5q-48 21 -71 50q-26 33 -26 82q0 37 17.5 69.5t46.5 50t62 22t76 4.5l139 -5h36h14q8 0 22 2v-35l-110 9q33 -24 51 -53.5t18 -68.5q0 -18 -8 -40.5t-17.5 -37t-22.5 -24.5t-31 -19
q-30 -14 -60 -17.5t-74 -3.5h-22q-21 0 -34 -9q-6 -5 -11 -15.5t-5 -19.5q0 -29 30 -39l66 -6h64q39 0 66 -4t52 -18q55 -33 55 -100q0 -46 -24.5 -83.5t-66.5 -61.5q-35 -19 -76.5 -27.5t-86.5 -8.5q-71 0 -121 31q-60 37 -60 104q0 48 27.5 75.5t76.5 35.5zM127 331
q0 -24 8.5 -50.5t23.5 -44t32.5 -24t44.5 -6.5q53 0 83 38q13 15 20 38t7 44q0 58 -23 89q-26 36 -83 36q-53 0 -83 -33t-30 -87zM252 38q-42 0 -64.5 -3t-46.5 -18q-44 -29 -44 -87q0 -27 13 -51t36 -39q19 -12 42.5 -16.5t52.5 -4.5q63 0 106 26q52 32 52 91q0 50 -26 74
q-31 28 -121 28z" />
    <glyph glyph-name="h" unicode="h" 
d="M81 698l-2 50q24 -4 41 -4h13h12q7 2 10 2l9 2l-3 -106l-5 -202v-56q29 47 69.5 71t93.5 24q38 0 71 -12t55 -38q26 -30 32 -67q3 -17 3 -75l-3 -145l2 -97v-37v-8q-7 1 -20.5 1.5t-22.5 1.5h-19.5t-21.5 -3l4 86l4 110l1 67q0 32 -2.5 58.5t-10.5 40.5q-17 33 -41.5 50
t-60.5 17q-35 0 -65 -15.5t-44.5 -44t-18.5 -62.5t-4 -78v-163l3 -59v-7l-41 3h-21.5t-19.5 -3l5 118l2 81l1 104v100l-2 154z" />
    <glyph glyph-name="i" unicode="i" horiz-adv-x="278" 
d="M98 466l-1 7q7 -1 21.5 -2t27.5 -1h24q10 2 14 3q0 -58 -2 -110t-4 -126q0 -49 2.5 -130.5t2.5 -96.5l1 -10l-44 3h-21t-22 -3q0 40 3 119t3 119q0 49 -2.5 130.5t-2.5 97.5zM196 646q0 -21 -15 -36t-36 -15t-36 15t-15 36t15 36t36 15q20 0 35.5 -14.5t15.5 -36.5z" />
    <glyph glyph-name="j" unicode="j" horiz-adv-x="278" 
d="M182 149v-118q0 -70 -8 -104q-13 -54 -52 -90q-52 -41 -115 -41l-7 29l9 -1q26 0 46 16q14 12 31 39q12 34 15.5 70t3.5 86v292v18v16q0 62 -7 115l10 -2l24 -2h30l27 4l-3 -22q0 -37 -2 -123t-2 -92v-90zM196 646q0 -21 -15 -36t-36 -15t-36 15t-15 36t15 36t36 15
q20 0 35.5 -14.5t15.5 -36.5z" />
    <glyph glyph-name="k" unicode="k" horiz-adv-x="500" 
d="M77 26l3 81l6 376l-6 238v27l9 -2q16 -2 26 -2q22 1 33 1q2 -1 9 1.5t7 -2.5l-1 -28l-6 -175v-241q0 -23 7 -33q11 -6 33 10q16 11 54 49l62 63l78 83l9 -1l22 -2h12q18 0 36 3v-7l-120 -100l-33 -28l-67 -62q26 -28 57 -64q28 -33 56 -65l46 -50l46 -52l30 -37v-7
q-18 3 -37 3h-12h-25.5t-27.5 -3q-13 17 -24 32t-29 35l-33 37l-51 61l-51 57l-19 20q-8 3 -11 3t-8 -3q-2 -6 -2 -20v-21v-94l4 -81v-26l-8 1l-22 2h-27.5t-25.5 -3z" />
    <glyph glyph-name="l" unicode="l" horiz-adv-x="278" 
d="M177 500v-386l1 -104l1 -10l-26 2h-30q-20 0 -30 -2l1 30l7 231v389l-3 91l-1 7l13 -3h62l13 3l-1 -27z" />
    <glyph glyph-name="m" unicode="m" horiz-adv-x="833" 
d="M760 243l-3 -63v-87l3 -67v-26l-10 1l-21 2h-26.5t-27.5 -3l2 29l4 63l4 107v75v14v13q0 27 -3.5 49t-14.5 37q-30 44 -86 44q-43 0 -74.5 -21.5t-44.5 -62.5q-5 -20 -6 -36t-1 -44l-1 -121q0 -13 1 -40.5t1 -41.5v-42l3 -22q-15 3 -31 3h-10h-21.5t-23.5 -3l2 20l6 116
v73v81q0 35 -4 58.5t-19.5 43t-35.5 28t-47 8.5q-37 0 -66.5 -18t-41.5 -48.5t-14.5 -60t-2.5 -73.5v-55v-81l3 -71l2 -21l-10 1q-8 2 -17.5 2h-14.5h-20.5t-21.5 -3l1 24l7 197v119l-4 110v23l7 -1q9 -2 16.5 -2h16.5l39 3q-2 -14 -2 -29v-24v-31q28 45 62 66q38 24 89 24
t91 -25t55 -72q57 96 164 96q67 0 108.5 -38.5t41.5 -105.5z" />
    <glyph glyph-name="n" unicode="n" 
d="M480 287l-3 -145l2 -97v-37v-8q-7 1 -20.5 1.5t-22.5 1.5h-19.5t-21.5 -3l4 86l4 110l1 67q0 32 -2.5 58.5t-10.5 40.5q-17 33 -41.5 50t-60.5 17q-35 0 -65 -15.5t-44.5 -44t-18.5 -62.5t-4 -78v-163l3 -59v-7l-41 3h-21.5t-19.5 -3l5 118l3 179l-3 97l-2 79l39 -3
q27 0 40 3v-21l-3 -32v-26v-10q56 95 162 95q38 0 71 -12t55 -38q26 -30 32 -67q3 -17 3 -75z" />
    <glyph glyph-name="o" unicode="o" 
d="M34 240q0 109 72 176t182 67q106 0 173 -76q30 -34 44.5 -78t14.5 -92q0 -73 -35 -132.5t-90.5 -87.5t-124.5 -28q-22 0 -52 6t-52.5 16t-38.5 22t-36 34q-33 37 -45 77t-12 96zM278 22q34 0 61.5 15.5t49.5 44.5q17 24 25.5 49t13 53.5t4.5 57.5q0 82 -30 137
q-39 71 -115 71q-87 0 -129 -72q-35 -60 -35 -153q0 -86 34 -139q41 -64 121 -64z" />
    <glyph glyph-name="p" unicode="p" 
d="M146 69v-61v-90l3 -122l-10 1q-13 2 -21 2.5t-18 0.5q-6 0 -20 -2q-6 0 -10.5 -1t-4.5 5l3 36l2 60l3 87v488l10 -1l18 -2h11q17 0 34 3v-95l4 7l14 24q34 41 67.5 58.5t85.5 17.5q93 0 149 -69q52 -64 52 -160q0 -59 -11 -101.5t-42 -82.5q-59 -78 -163 -78
q-53 0 -91 23.5t-65 71.5v-20zM431 250q0 37 -7.5 73t-23.5 63.5t-46 44.5t-62 17q-78 0 -116 -76q-30 -60 -30 -147q0 -45 14 -94q6 -22 20.5 -43t33 -34t36.5 -17t43 -4q38 0 68 22.5t47 59.5q10 22 16.5 63.5t6.5 71.5z" />
    <glyph glyph-name="q" unicode="q" 
d="M480 473v-488l6 -147l2 -37q-1 -2 -2 -5q-7 3 -13 2q-14 2 -22 2q-9 0 -21.5 -1.5t-15.5 -1.5l-10 -1l5 212l-2 61v20q-50 -95 -156 -95q-102 0 -161 75q-54 69 -54 173q0 51 10 91.5t36 76t67.5 56.5t86.5 21q55 0 98.5 -26.5t68.5 -75.5l4 -7v95q7 -1 20 -2t25 -1l18 2
zM407 225q0 39 -4.5 68t-16.5 62q-16 41 -48.5 67t-75.5 26q-36 0 -65 -18t-47 -49q-14 -24 -20.5 -59.5t-6.5 -70.5q0 -93 28 -147q37 -72 122 -72q34 0 63 19.5t45 50.5q13 25 19.5 57.5t6.5 65.5z" />
    <glyph glyph-name="r" unicode="r" horiz-adv-x="333" 
d="M80 27l3 105l-3 334l-1 7l22 -2q5 0 12.5 -0.5t17.5 -0.5q14 0 29 3l-5 -69v-23l2 -6l7 12q28 44 52 65q33 29 73 29q6 0 20 -2l12 -3l-5 -25v-23l-2 -20v-12l-7 -4l-6 4.5t-5 2.5q-18 9 -36 9q-17 0 -35 -6.5t-30.5 -20t-14.5 -16.5q-5 -8 -12 -26t-9.5 -42t-2.5 -57
v-14v-122l3 -96l1 -8q-15 3 -32 3h-11l-38 -3z" />
    <glyph glyph-name="s" unicode="s" horiz-adv-x="389" 
d="M63 94h8q18 -30 49.5 -50.5t65.5 -20.5q38 0 68 25t30 63q0 45 -38 67q-14 8 -78 28l-42 14q-21 9 -37.5 24t-28.5 40.5t-12 48.5q0 70 46 109t117 39q57 0 106 -23l7 -3q-15 -34 -24 -71h-9q-10 26 -34 45t-51 19q-40 0 -65 -20.5t-25 -60.5q0 -41 28 -63q20 -16 67 -28
q22 -6 50.5 -15.5t39.5 -17.5q50 -39 50 -96q0 -44 -20 -76t-60 -58q-17 -11 -48.5 -17.5t-55.5 -6.5q-31 0 -65.5 8.5t-59.5 23.5q6 18 12 36.5t9 36.5z" />
    <glyph glyph-name="t" unicode="t" horiz-adv-x="278" 
d="M79 574l88 34l-1 -25l-7 -121l107 2q-2 -12 -2 -17q1 -16 1 -23l-106 2q-2 -8 -2 -22l-3 -218v-28q0 -61 11 -89q18 -45 68 -45q11 0 24.5 3t20.5 4v-24q-41 -15 -84 -15q-11 0 -22 2.5t-28 5.5t-35.5 22t-25.5 43q-5 13 -6 22.5t-1 24.5q1 21 1 34l6 175v84v21l-66 -2
v13v28l66 -2q0 19 -2 63.5t-2 47.5z" />
    <glyph glyph-name="u" unicode="u" 
d="M396 245v163l-2 58v7q7 -2 25 -2q7 -1 15 -1h21l21 3l-6 -117l-2 -180l2 -109l2 -67l-39 3h-19t-20 -3v21l2 58v10q-54 -94 -162 -94q-36 0 -69.5 12.5t-57 38t-29 57t-5.5 84.5l3 144l-2 98v36v8q7 -1 20 -2t23 -1l42 3q-5 -40 -5 -73q0 -43 -1 -70q-4 -108 -4 -119
q0 -36 3 -61t13 -45q16 -30 42.5 -45.5t62.5 -15.5q47 0 79 29q18 16 27 34t14 43t5.5 54.5t0.5 40.5z" />
    <glyph glyph-name="v" unicode="v" horiz-adv-x="500" 
d="M473 453l-128 -282l-39 -97l-24 -66l-3 -8l-29 3h-17t-17 -3l-8 22l-64 163l-85 204l-37 84l9 -1l40 -2l34 2l11 1l7 -22l21 -64l60 -154l40 -98l16 -36l9 -9l13 26l56 143l84 213l26 -2l33 3z" />
    <glyph glyph-name="w" unicode="w" horiz-adv-x="778" 
d="M429 473l28 -94l27 -87l67 -181l5 -8l15 29l70 184l54 151l2 6l22 -2h21q14 0 20 2l-10 -23l-54 -116l-51 -116l-52 -132l-32 -86l-24 3q-21 0 -31 -3l-7 24l-27 90l-59 169l-32 77l-11 -23l-60 -156l-33 -93l-29 -88l-29 3l-27 -3l-34 106l-69 189l-69 172l-3 6l48 -3
h11q17 0 34 3l29 -96l62 -180l40 -93l72 194l61 174l26 -2z" />
    <glyph glyph-name="x" unicode="x" horiz-adv-x="500" 
d="M392 390l-63 -72l-48 -58l187 -253v-7q-18 3 -37 3h-13h-22.5t-23.5 -3l-51 78l-88 125l-56 -78l-50 -71l-36 -54l-28 3h-17t-17 -3v7l15 18l57 69l108 139l-180 240l8 -1l45 -2l49 3l50 -77l43 -60l34 -47l56 72l82 112l33 -3h18l18 3z" />
    <glyph glyph-name="y" unicode="y" horiz-adv-x="500" 
d="M118 -204l48 83l41 79l17 35l4 8l-13 34l-188 438l33 -3h25l37 2l8 -26l51 -134l84 -201l8 -7l12 26l33 75l40 103l61 165l30 -3l35 3l-236 -522l-62 -155l-30 4q-9 0 -20.5 -1.5t-17.5 -2.5z" />
    <glyph glyph-name="z" unicode="z" horiz-adv-x="500" 
d="M419 0l-126 5l-94 1q-29 0 -88 -3t-89 -3v14l79 97l191 251l48 70l-192 -8l-75 -5q3 15 3 33q0 7 -1 11l-2 10l128 -5l91 -2h86l78 5v-12l-3 -6l-308 -411q51 0 152 7t152 7l-3 -28l3 -28h-30z" />
    <glyph glyph-name="braceleft" unicode="{" horiz-adv-x="333" 
d="M206 175v-166q0 -55 18.5 -85t64.5 -40q-89 0 -120 28q-35 31 -35 122v163q0 54 -13 77q-16 27 -63 41q45 13 60.5 38t15.5 77v178q0 85 40 115q33 25 115 25q-47 -12 -65 -41t-18 -85v-177q0 -59 -14 -85q-17 -32 -67 -45q49 -13 67 -49q14 -29 14 -91z" />
    <glyph glyph-name="bar" unicode="|" horiz-adv-x="333" 
d="M136 0v748h61v-748h-61z" />
    <glyph glyph-name="braceright" unicode="}" horiz-adv-x="333" 
d="M127 8v167q0 63 13 90q17 36 68 49q-49 13 -65 42t-16 89v177q0 55 -17.5 84.5t-65.5 41.5q82 0 115 -25q40 -30 40 -116v-178q0 -52 15 -77t61 -38q-48 -13 -62 -37t-14 -80v-163q0 -91 -35 -122q-31 -28 -120 -28q46 9 64.5 39.5t18.5 84.5z" />
    <glyph glyph-name="asciitilde" unicode="~" horiz-adv-x="606" 
d="M520 339l35 -40q-25 -47 -56 -74q-40 -35 -85 -35q-18 0 -49 10q-16 5 -86 34q-40 16 -42 17q-26 9 -45 9q-36 0 -64 -30q-15 -16 -42 -62l-35 40q30 54 56 79q38 37 86 37q37 0 118 -35.5t104 -35.5q32 0 63 28q24 22 42 58z" />
    <glyph glyph-name="c128" horiz-adv-x="833" 
d="M670 227q0 64 -42 95.5t-112 31.5q-98 0 -195 -43v-205l6 -99l1 -7q-11 1 -21 2.5t-25 1.5h-23t-30 -4l3 25l4 105l5 402v102q-21 0 -63 -2t-63 -2l-96 -7q3 18 3 37v11q-2 8 -2 12l137 -6l131 -2l124 3l124 5q-3 -17 -3 -34q0 -14 3 -29l-28 4l-107 9h-51h-25l-1 -23
l-3 -106v-144q50 23 107 37.5t109 14.5q96 0 155 -40q66 -45 66 -131v-154q0 -98 -54.5 -161.5t-149.5 -63.5l-8 27q74 0 103 59q21 43 21 126v153z" />
    <glyph glyph-name="c129" horiz-adv-x="481" 
d="M197 681h144q17 0 58.5 2t44.5 2l-3 -30v-13.5t3 -16.5l-90 7l-100 3h-73l-5 -150v-226l2 -258h-65h-26l6 126l3 342l-2 88l-5 128zM369 840l-157 -98h-34l125 125l25 25q13 9 27 18q12 3 24 -3t15.5 -15t3.5 -18q0 -8 -4 -12q-3 -7 -12 -13t-13 -9z" />
    <glyph glyph-name="quotesinglbase" unicode="&#x201a;" horiz-adv-x="278" 
d="M69 -162l-17 7l70 222q4 13 9.5 27t16.5 23q11 7 23 7q16 0 27 -11t11 -28q0 -11 -4 -19l-18 -32z" />
    <glyph glyph-name="florin" unicode="&#x192;" horiz-adv-x="407" 
d="M395 419q-52 6 -127 9.5t-113 3.5q0 -33 -1 -97t-1 -98q0 -38 3 -114t3 -113l1 -10l-44 3h-21t-22 -3q0 40 4 119t4 119q0 39 -2 85q-5 114 -5 143l-1 7q17 -2 41.5 -4.5t31.5 -2.5q77 3 131.5 5t117.5 2q-1 -8 -1 -16v-12q0 -17 1 -26zM321 630l-157 -98h-34l125 125
l25 25q13 9 27 18q12 3 24 -3t15.5 -15t3.5 -18q0 -8 -4 -12q-3 -7 -12 -13t-13 -9z" />
    <glyph glyph-name="quotedblbase" unicode="&#x201e;" horiz-adv-x="444" 
d="M67 -162l-17 7l70 222q4 13 9.5 27t16.5 23q11 7 23 7q16 0 27 -11t11 -28q0 -11 -4 -19l-18 -32zM237 -163l-17 7l70 222q8 25 15 36q13 21 30 21t29.5 -10.5t12.5 -26.5q0 -11 -3 -18t-19 -35z" />
    <glyph glyph-name="ellipsis" unicode="&#x2026;" horiz-adv-x="1000" 
d="M107 49q0 24 18 42t43 18q23 0 41 -18t18 -42t-17 -42t-42 -18t-43 17t-18 43zM440 49q0 24 18 42t43 18q23 0 41 -18t18 -42t-17 -42t-42 -18t-43 17t-18 43zM773 49q0 24 18 42t43 18q23 0 41 -18t18 -42t-17 -42t-42 -18t-43 17t-18 43z" />
    <glyph glyph-name="dagger" unicode="&#x2020;" horiz-adv-x="500" 
d="M284 282l4 -197l4 -83v-7l-28 3h-23l-22 -1l-10 -2q2 8 2 25l5 288l-2 87l-75 -1q-15 0 -47 -3t-48 -3q-3 0 -2.5 5t1.5 11t1 19q0 10 -0.5 18t-1.5 14q17 0 50 -2t50 -2h72v101q0 21 -3 62t-3 62l-1 7l43 -2l37 2l-1 -28l-4 -204l175 8v-48v-21l-106 5h-69z" />
    <glyph glyph-name="daggerdbl" unicode="&#x2021;" horiz-adv-x="500" 
d="M358 439h-74v-23l-2 -92l2 -74v-8l97 1q18 0 29 1q45 4 49 4v-52v-18l-126 6l-48 1v-66l1 -125q-11 2 -21 3t-22 1q-6 0 -20 -2l-15 -2l4 33l3 81v76h-100l-73 -3q1 10 1.5 19.5t0.5 22.5q0 9 -2 25q28 0 71 -2.5t49 -2.5h54q1 10 1.5 22t0.5 18v49v62v24q0 15 -2 23
q-16 0 -49 -1t-49 -1l-76 -4q2 10 2 25.5v23.5l-1 19l93 -4h80l-1 113l-3 73q9 -2 18 -3t21 -1q10 0 22.5 1.5t19.5 2.5l-2 -27l-3 -68l-3 -81v-11l87 1q15 0 51 2t38 2v-51v-18q-23 0 -38 1q-59 4 -65 4z" />
    <glyph glyph-name="perthousand" unicode="&#x2030;" horiz-adv-x="1000" 
d="M51 515q0 67 38.5 111.5t104.5 44.5q67 0 102 -43.5t35 -112.5q0 -37 -8.5 -64t-31.5 -53q-39 -44 -102 -44q-70 0 -106 47q-32 42 -32 114zM194 648q-56 0 -70 -78q-5 -28 -5 -71q0 -51 11 -80q17 -44 59 -44q43 0 61 51q13 36 13 88q0 16 -2 31.5t-3 27.5q-4 34 -16 52
q-16 23 -48 23zM521 697l17 -2l9 -1l22 3l-387 -728l-29 2l-19 -2zM378 150q0 66 39.5 111.5t104.5 45.5t103 -47q34 -42 34 -110t-38 -113.5t-105 -45.5q-70 0 -104 43.5t-34 115.5zM522 284q-48 0 -65 -55q-10 -32 -10 -95q0 -52 10 -79q17 -45 59 -45q44 0 62 51
q12 34 12 88q0 56 -9 85q-16 50 -59 50zM701 150q0 66 39 111.5t105 45.5q65 0 102 -47q34 -43 34 -110q0 -68 -37.5 -113.5t-104.5 -45.5q-71 0 -104.5 43t-33.5 116zM845 284q-48 0 -65 -55q-10 -32 -10 -95q0 -52 10 -79q16 -45 59 -45q44 0 62 51q12 34 12 88
q0 56 -9 85q-16 50 -59 50z" />
    <glyph glyph-name="Scaron" unicode="&#x160;" horiz-adv-x="926" 
d="M529 344l2 -301q20 0 49.5 -2.5t36.5 -2.5q38 0 66.5 9.5t52 33t36.5 52t13 60.5q0 82 -63 124q-26 17 -62.5 22t-81.5 5h-49zM445 633l-57 3l-55 -3l-29 -68l-22 -50q-18 -40 -50 -116q-44 -103 -56 -132q-32 -73 -55 -136.5t-43 -130.5q-6 2 -17 2t-18 1l-37 -3
q20 43 41 86q46 97 92 200q60 134 95 222q20 50 28 72q24 60 39 105q34 0 62.5 -2t52.5 -3h19q20 0 48 1t58 4l-6 -118l-3 -100l-3 -86l84 1q128 0 196.5 -42t68.5 -130q0 -107 -90 -169q-39 -27 -101 -35q-38 -5 -110 -5h-112h-25q0 25 3.5 69t3.5 58l2 340l-2 120z" />
    <glyph glyph-name="guilsinglleft" unicode="&#x2039;" horiz-adv-x="333" 
d="M207 46l-120 190l126 185q6 -7 13 -14t17 -10l7 -2l-112 -158l107 -165q-24 -7 -38 -26z" />
    <glyph glyph-name="OE" unicode="&#x152;" horiz-adv-x="1018" 
d="M876 193q0 82 -63 124q-26 17 -62.5 22t-81.5 5h-49l2 -301q20 0 49.5 -2.5t36.5 -2.5q38 0 66.5 9.5t52 33t36.5 52t13 60.5zM539 392l1 76l-2 120l-4 97q21 -3 27 -3.5t24 -0.5l47 2l-6 -116l-3 -100l-3 -86l84 1q128 0 196.5 -42t68.5 -130q0 -107 -90 -169
q-39 -27 -101 -35q-38 -5 -110 -5h-112h-25q0 25 3.5 69t3.5 58l1 219h-360l3 -217l4 -108l2 -22q-10 0 -26.5 2.5t-19.5 2.5q-11 0 -30 -2.5t-23 -2.5l2 22l4 79l4 234v38v206l-5 106q8 0 25 -2t26 -2l46 3l-2 -27l-4 -91l-5 -174l129 -3z" />
    <glyph glyph-name="c141" horiz-adv-x="611" 
d="M95 569l-2 91l-2 23l12 -2q15 -3 31 -3q9 0 17.5 0.5t33.5 4.5q-1 -7 -1.5 -15.5t-0.5 -13.5l-5 -265l1 -17q7 -6 9 -6l28 21l41 40l49 48l194 208l36 -2l43 2l-224 -220l-85 -86q121 -138 243 -275l81 -95v-7q-11 0 -19 1q-30 4 -34 4q-13 0 -33 -2.5t-23 -2.5
q-36 44 -71 88l-135 161l-83 94q-10 8 -17 3l-1 -14l1 -106v-102l4 -99l2 -25q-15 3 -29 3q-7 0 -23 -1t-24 -1l-19 -1l2 26l6 177l2 139l-2 133zM434 840l-157 -98h-34l125 125l25 25q13 9 27 18q12 3 24 -3t15.5 -15t3.5 -18q0 -8 -4 -12q-3 -7 -12 -13t-13 -9z" />
    <glyph glyph-name="c142" horiz-adv-x="833" 
d="M321 311v-205l6 -99l1 -7q-11 1 -21 2.5t-25 1.5h-23t-30 -4l3 25l4 105l5 402v102q-21 0 -63 -2t-63 -2l-96 -7q3 18 3 37v11q-2 8 -2 12l137 -6l131 -2l124 3l124 5q-3 -17 -3 -34q0 -14 3 -29l-28 4l-107 9h-51h-25l-1 -23l-3 -106v-144q50 23 107 37.5t109 14.5
q96 0 155 -40q66 -45 66 -131q0 -17 -1 -68.5t-1 -66.5l5 -106q-8 0 -25 2t-26 2l-46 -3l2 27l4 91v108q0 64 -42 95.5t-112 31.5q-98 0 -195 -43z" />
    <glyph glyph-name="c143" horiz-adv-x="778" 
d="M342 6q-48 0 -130 -3t-123 -3l2 22l4 79q0 46 2 133.5t2 100.5v244l-5 106q8 0 25 -2t26 -2l46 3l-2 -27l-4 -91q0 -107 -1.5 -215t-2.5 -181t-1 -117q46 -2 101 -4t106 -2q50 0 105.5 2t102.5 4l1 339v30v23v19v17v14v12q0 19 -0.5 40t-0.5 43v14l-5 81q8 0 25 -2t26 -2
l47 3l-3 -27q-1 -42 -2 -69q-7 -194 -7 -257q0 -60 1.5 -137.5t1.5 -87.5l6 -106q-50 0 -132 3t-124 3l5 -75l1 -7q-11 2 -21 3t-25 1h-23t-30 -4l3 25z" />
    <glyph glyph-name="c144" 
d="M404 263q0 32 -2.5 58.5t-10.5 40.5q-17 33 -41.5 50t-60.5 17q-35 0 -65 -15.5t-44.5 -44t-18.5 -62.5t-4 -78v-163l3 -59v-7l-41 3h-21.5t-19.5 -3l5 118l2 81l1 104v100l-2 154v7l-67 -2v13v28l66 -2l-2 97l-2 50q24 -4 41 -4h13h12q7 2 10 2l9 2l-3 -106l-1 -42
l158 2q-2 -12 -2 -17q1 -16 1 -23l-159 2l-2 -124v-56q29 47 69.5 71t93.5 24q38 0 71 -12t55 -38q26 -30 32 -67q3 -17 3 -75l-1 -256q0 -70 -8 -104q-13 -54 -52 -90q-52 -41 -115 -41l-7 29l9 -1q26 0 46 16q14 12 31 39q11 33 15.5 73.5t4.5 82.5z" />
    <glyph glyph-name="quoteleft" unicode="&#x2018;" horiz-adv-x="278" 
d="M211 696l17 -7l-70 -224l-11 -30q-9 -14 -16.5 -20t-22.5 -6q-16 0 -26.5 10.5t-10.5 26.5q0 13 7 27q11 17 15 25z" />
    <glyph glyph-name="quoteright" unicode="&#x2019;" horiz-adv-x="278" 
d="M69 424l-17 7l70 224q12 36 21.5 46t26.5 10q16 0 27.5 -10.5t11.5 -26.5q0 -11 -3 -18t-19 -35z" />
    <glyph glyph-name="quotedblleft" unicode="&#x201c;" horiz-adv-x="444" 
d="M372 698l17 -7l-70 -224q-10 -28 -16 -37q-12 -19 -34 -19q-34 0 -38 37q1 14 8 28q2 4 15 25zM201 699l18 -7l-70 -224q-10 -29 -16 -38q-12 -18 -35 -18q-15 0 -25 11t-12 26q0 11 3 18.5t20 34.5z" />
    <glyph glyph-name="quotedblright" unicode="&#x201d;" horiz-adv-x="444" 
d="M71 425l-18 7l70 224q8 25 15 36q12 20 31 20q36 0 42 -37q0 -11 -3 -18.5t-20 -34.5zM241 424l-18 7l70 224q8 25 15 36q12 20 31 20q17 0 29.5 -10.5t12.5 -26.5q0 -10 -6.5 -23.5t-15.5 -29.5z" />
    <glyph glyph-name="bullet" unicode="&#x2022;" horiz-adv-x="606" 
d="M305 511q71 0 119.5 -49.5t48.5 -120.5t-48.5 -120.5t-119.5 -49.5t-121.5 49.5t-50.5 120.5t50.5 120.5t121.5 49.5z" />
    <glyph glyph-name="endash" unicode="&#x2013;" horiz-adv-x="500" 
d="M500 197h-500v48h500v-48z" />
    <glyph glyph-name="emdash" unicode="&#x2014;" horiz-adv-x="1000" 
d="M0 197v48h1000v-48h-1000z" />
    <glyph glyph-name="trademark" unicode="&#x2122;" horiz-adv-x="950" 
d="M881 624v-276q0 -32 8 -40t41 -8v-23h-165v23q34 0 43 8t9 39v288l-149 -358h-9l-152 358v-284q0 -34 7 -42.5t43 -8.5v-23h-127v23h10q22 0 30.5 6t8.5 28v290v14q0 13 -4.5 17.5t-21.5 4.5h-15v21h120l124 -293l125 293h123v-21h-21q-20 0 -24 -7t-4 -29zM228 653v-308
v-21q2 -13 9.5 -17t20.5 -5.5t26 -1.5h7v-23h-190v23h7q11 0 23.5 0.5t22.5 6t10 27.5v11v308h-45q-42 0 -57.5 -14.5t-15.5 -56.5h-26v99h352v-99h-26q0 42 -15.5 56.5t-57.5 14.5h-45z" />
    <glyph glyph-name="scaron" unicode="&#x161;" horiz-adv-x="684" 
d="M377 38q20 0 43 -1t29 -1q54 0 86.5 26t32.5 73q0 52 -34 77q-28 20 -76 20l-83 -4l-2 -92q0 -35 1 -59.5t3 -38.5zM297 428l-21 2l-24 -2l-26 -55q-17 -32 -41 -91l-28 -68q-25 -61 -48 -121.5t-34 -92.5l-32 3l-32 -3q15 27 58.5 121t82.5 183q29 68 41 98q20 50 28 72
q38 -4 51.5 -4.5t31.5 -0.5h11q35 0 66 4q0 -36 -3.5 -99t-3.5 -88l1 -18h107q78 0 120 -28q49 -32 49 -99q0 -40 -23.5 -72.5t-63.5 -51.5q-17 -8 -42 -12.5t-48 -4.5l-109 2l-72 -2q0 40 4 119t4 119q0 34 -2 109.5t-2 80.5z" />
    <glyph glyph-name="guilsinglright" unicode="&#x203a;" horiz-adv-x="333" 
d="M118 421l126 -185l-120 -190q-14 19 -38 26l107 165l-112 158l7 2q9 4 17.5 12t12.5 12z" />
    <glyph glyph-name="oe" unicode="&#x153;" horiz-adv-x="740" 
d="M434 38q20 0 43 -1t29 -1q54 0 86.5 26t32.5 73q0 52 -34 77q-28 20 -76 20l-83 -4l-2 -92q0 -35 1 -59.5t3 -38.5zM358 230l-102 3l-103 -3q0 -37 3 -110t3 -110l1 -10l-44 3h-21t-22 -3q0 40 4 119t4 119q0 39 -2 85q-5 114 -5 143l-1 7q7 -1 21.5 -2t27.5 -1h24
q10 2 14 3q0 -40 -3.5 -111t-3.5 -91l103 -3l102 3q0 34 -2 73q-5 98 -5 122l-1 7q7 -1 21.5 -2t27.5 -1q27 0 39 3q0 -36 -3.5 -99t-3.5 -88l1 -18h107q78 0 120 -28q49 -32 49 -99q0 -40 -23.5 -72.5t-63.5 -51.5q-17 -8 -42 -12.5t-48 -4.5l-109 2l-72 -2q0 38 4 115
t4 115z" />
    <glyph glyph-name="c157" horiz-adv-x="500" 
d="M164 267q11 -6 33 10q16 11 54 49l62 63l78 83l9 -1l22 -2h12q18 0 36 3v-7l-120 -100l-33 -28l-67 -62q26 -28 57 -64q28 -33 56 -65l46 -50l46 -52l30 -37v-7q-18 3 -37 3h-12h-25.5t-27.5 -3q-13 17 -24 32t-29 35l-33 37l-51 61l-51 57l-19 20q-8 3 -11 3t-8 -3
q-2 -6 -2 -20v-21v-94l4 -81v-26l-8 1l-22 2h-27.5t-25.5 -3l1 26l3 81l2 131q0 20 1 60t1 60q0 58 -7 108l-1 7q7 -1 21 -2t26 -1h24q10 2 14 3q0 -39 -3 -82t-3 -82q0 -12 0.5 -22t8.5 -20zM361 630l-157 -98h-34l125 125l25 25q13 9 27 18q12 3 24 -3t15.5 -15t3.5 -18
q0 -8 -4 -12q-3 -7 -12 -13t-13 -9z" />
    <glyph glyph-name="c158" 
d="M160 600l158 2q-2 -12 -2 -17q1 -16 1 -23l-159 2l-2 -124v-56q29 47 69.5 71t93.5 24q38 0 71 -12t55 -38q26 -30 32 -67q3 -17 3 -75l-3 -145l2 -97v-37v-8q-7 1 -20.5 1.5t-22.5 1.5h-19.5t-21.5 -3l4 86l4 110l1 67q0 32 -2.5 58.5t-10.5 40.5q-17 33 -41.5 50
t-60.5 17q-35 0 -65 -15.5t-44.5 -44t-18.5 -62.5t-4 -78v-163l3 -59v-7l-41 3h-21.5t-19.5 -3l5 118l2 81l1 104v100l-2 154v7l-67 -2v13v28l66 -2l-2 97l-2 50q24 -4 41 -4h13h12q7 2 10 2l9 2l-3 -106z" />
    <glyph glyph-name="Ydieresis" unicode="&#x178;" 
d="M238 5l-165 -5q0 40 4 119t4 119q0 39 -2 85q-5 114 -5 143l-1 7q7 -1 21.5 -2t27.5 -1h24q10 2 14 3q0 -41 -2 -88q-5 -118 -5 -148q0 -33 2 -110t2 -81q21 0 61 -2t60 -2t68.5 2t50.5 2q0 45 2.5 113.5t2.5 78.5q0 38 -3 114t-3 114l-1 7q7 -1 21.5 -2t27.5 -1h24
q10 2 14 3q0 -39 -4 -118t-4 -118q0 -38 2.5 -130.5t2.5 -106.5q-38 0 -57 1q-96 5 -105 5l3 -57l1 -10l-44 3h-21t-22 -3z" />
    <glyph glyph-name="nonbreakingspace" unicode="&#xa0;" horiz-adv-x="500" 
 />
    <glyph glyph-name="exclamdown" unicode="&#xa1;" horiz-adv-x="648" 
d="M322 166q-58 101 -96 164q-64 107 -102 167l-118 184l62 -3l52 3q60 -123 126 -235q59 -100 118 -185h9q44 84 70 135q32 64 71 147t61 138l34 -3l36 3q-130 -243 -182 -342q-65 -125 -103 -210q-34 -76 -50 -132l-34 3l-45 -3q49 76 91 169zM505 834
q-22 -47 -61.5 -74.5t-96.5 -27.5q-53 0 -92.5 29t-57.5 72l23 17q42 -70 130 -70q44 0 77 18t54 52z" />
    <glyph glyph-name="cent" unicode="&#xa2;" horiz-adv-x="500" 
d="M118 -204l48 83l41 79l17 35l4 8l-13 34l-188 438l33 -3h25l37 2l8 -26l51 -134l84 -201l8 -7l12 26l33 75l40 103l61 165l30 -3l35 3l-236 -522l-62 -155l-30 4q-9 0 -20.5 -1.5t-17.5 -2.5zM420 624q-22 -47 -61.5 -74.5t-96.5 -27.5q-53 0 -92.5 29t-57.5 72l23 17
q42 -70 130 -70q44 0 77 18t54 52z" />
    <glyph glyph-name="sterling" unicode="&#xa3;" horiz-adv-x="278" 
d="M-6 -138l-8 27q74 0 103 59q21 43 21 126l2 195v117v70q0 38 -2 82q-5 111 -5 138v9q7 -1 21.5 -2t27.5 -1h12q18 0 35 3l-1 -11q-4 -34 -5 -65t-1 -72v-182l5 -268q0 -98 -54.5 -161.5t-150.5 -63.5z" />
    <glyph glyph-name="currency" unicode="&#xa4;" 
d="M32 141l54 54q-56 71 -56 152q0 45 12 81.5t41 70.5l-54 55l44 44l54 -55q33 27 73 40.5t81 13.5q83 0 148 -53l53 53l43 -43l-53 -53q28 -33 41.5 -71.5t13.5 -80.5q0 -41 -13.5 -79.5t-43.5 -73.5l53 -54l-43 -43l-53 53q-31 -25 -68.5 -38.5t-78.5 -13.5
q-87 0 -151 52l-53 -53zM281 536q-79 0 -134.5 -54.5t-55.5 -134.5q0 -78 55 -132t134 -54q78 0 132 55t54 133q0 76 -54.5 131.5t-130.5 55.5z" />
    <glyph glyph-name="yen" unicode="&#xa5;" horiz-adv-x="481" 
d="M264 680q72 0 103 8q46 12 65 48h12l-3 -60v-23t3 -28q-11 0 -42.5 3.5t-47.5 3.5l-100 3h-73l-5 -150v-226l2 -258h-65h-26l6 126l3 342l-2 88l-5 128l108 -4z" />
    <glyph glyph-name="brokenbar" unicode="&#xa6;" horiz-adv-x="333" 
d="M134 0v280h64v-280h-64zM134 748h64v-280h-64v280z" />
    <glyph glyph-name="section" unicode="&#xa7;" horiz-adv-x="500" 
d="M277 129l-53 23q-82 35 -111 59q-52 43 -52 111q0 32 15.5 62t41.5 51l10 7l-4 7q-12 21 -17.5 39.5t-5.5 39.5q0 75 50 120.5t126 45.5q81 0 134 -56l-6 -7q-15 -24 -24 -51h-9l-3 8q-12 31 -40 52t-60 21q-21 0 -41 -5.5t-36.5 -18t-27.5 -32t-11 -42.5q0 -35 19 -58
t53 -38l125 -55q41 -19 64.5 -51t23.5 -76q0 -35 -15 -66.5t-42 -61.5q5 -5 10 -9q28 -33 28 -71q0 -89 -60 -143.5t-150 -54.5q-38 0 -71.5 10.5t-69.5 31.5l10 64l2 20h9q3 -6 4 -7q23 -41 61 -62t86 -21q16 0 42 9t41.5 21.5t29 36.5t13.5 44q0 41 -26 66q-19 18 -63 37z
M237 233l74 -31l55 -30q13 20 20.5 37t7.5 35q0 14 -9 34t-21 31t-25 19q-7 4 -28 14l-104 47q-17 7 -34.5 16t-28.5 22q-16 -14 -27 -33.5t-11 -38.5q0 -28 17.5 -50t51.5 -42q20 -12 62 -30z" />
    <glyph glyph-name="dieresis" unicode="&#xa8;" horiz-adv-x="500" 
d="M197 681h144q17 0 58.5 2t44.5 2l-3 -30v-13.5t3 -16.5l-90 7l-100 3h-73l-5 -150v-45l1 -57h101l54 3l89 5q-3 -10 -4 -15t-1 -15q0 -12 2 -19.5t2 -10.5q-24 2 -46.5 4t-41.5 2l-56 2h-43h-56l-1 -80v-125l2 -87q31 0 103 2t77 2q28 0 41.5 1.5t49.5 7.5q-3 -15 -3 -30
q0 -12 2 -19.5t2 -10.5l-69 2l-123 2l-87 -1l-84 -2l6 126l3 342l-2 88l-5 128zM348 761q-18 0 -32 14t-14 32t13.5 32.5t32.5 14.5q18 0 32 -14t14 -33q0 -18 -14 -32t-32 -14zM152 761q-18 0 -32 14t-14 32t13.5 32.5t32.5 14.5t33 -14t14 -33q0 -18 -14 -32t-33 -14z" />
    <glyph glyph-name="copyright" unicode="&#xa9;" horiz-adv-x="750" 
d="M374 -15q-146 0 -250 104t-104 251t103.5 251.5t250.5 104.5t252 -104t105 -252t-104.5 -251.5t-252.5 -103.5zM374 35q124 0 213 90t89 215t-88.5 215.5t-213.5 90.5q-123 0 -211 -91t-88 -215t88.5 -214.5t210.5 -90.5zM524 508v-104h-32q-6 44 -31 70.5t-68 26.5
q-58 0 -89.5 -45t-31.5 -104q0 -33 7.5 -63t24.5 -56q36 -55 99 -55q31 0 57.5 12.5t41.5 37.5l8 14l27 -11q-18 -44 -64.5 -68t-98.5 -24q-85 0 -137 55t-52 141q0 89 55 145t145 56q40 0 72 -9q23 -6 40 -10.5t27 -8.5z" />
    <glyph glyph-name="ordfeminine" unicode="&#xaa;" horiz-adv-x="667" 
d="M137 383h277h11q20 0 39.5 1t38.5 4q-3 -14 -3 -26q0 -13 3 -28q-40 5 -89 5h-279q0 -28 5 -63t12 -62q14 -52 49.5 -96.5t88.5 -69t114 -24.5q52 0 104 19t96 53q4 3 7.5 5t8.5 2l-9 -61q-45 -30 -100.5 -43t-120.5 -13q-164 0 -258 96t-94 261q0 76 30 147t84 117
t121 67.5t142 21.5q53 0 108.5 -12t106.5 -34q-6 -15 -12 -37.5t-9 -39.5l-7 -1q-6 5 -11 11q-36 34 -84 54.5t-96 20.5q-120 0 -194 -81q-68 -74 -80 -194z" />
    <glyph glyph-name="guillemotleft" unicode="&#xab;" horiz-adv-x="500" 
d="M219 46l-121 190l127 185q6 -7 13 -14t17 -10l7 -2l-113 -158l108 -165q-24 -7 -38 -26zM362 46l-120 190l126 185q6 -7 13 -14t17 -10l7 -2l-112 -158l107 -165q-24 -8 -38 -26z" />
    <glyph glyph-name="logicalnot" unicode="&#xac;" horiz-adv-x="606" 
d="M491 113v206h-440v64h504v-270h-64z" />
    <glyph glyph-name="minus" unicode="&#xad;" horiz-adv-x="333" 
d="M300 573h-266v50h266v-50z" />
    <glyph glyph-name="registered" unicode="&#xae;" horiz-adv-x="750" 
d="M376 -15q-147 0 -252 104t-105 252t104.5 251.5t252.5 103.5q146 0 250 -104t104 -251q0 -148 -103 -252t-251 -104zM376 35q123 0 211 90t88 216q0 125 -88 215t-211 90q-124 0 -213 -90t-89 -215q0 -124 89 -215t213 -91zM256 207v284q0 20 -4.5 24.5t-23.5 4.5h-16v21
h156q46 0 67.5 -2t41.5 -14t31.5 -33.5t11.5 -43.5q0 -42 -28 -69t-71 -34q27 -5 49 -34q14 -18 30 -54l18 -40q3 -6 14 -23q5 -6 11.5 -10t22.5 -4v-21h-70q-16 5 -17 5q-7 3 -15 12t-19.5 33.5t-15.5 33.5q-15 33 -17 38q-13 28 -20 36.5t-17.5 11.5t-19.5 3h-13h-15v-121
q0 -18 4.5 -24t22.5 -6l17 -1v-21h-160v21h15q20 2 23 4q7 5 7 23zM327 357l20 -1q48 0 72 16q30 20 30 67q0 39 -21.5 59.5t-61.5 20.5l-21 -2q-13 0 -15.5 -8.5t-2.5 -16.5v-12v-123z" />
    <glyph glyph-name="macron" unicode="&#xaf;" horiz-adv-x="278" 
d="M191 683l-9 -222q0 -33 -2 -107.5t-2 -80.5l2 -60l9 -213l-49 3l-51 -3l10 215q0 16 1 48t1 48l1 85l-1 72l-4 214q11 -1 24 -3t21 -2q12 0 24 0.5t25 5.5zM237 761q-18 0 -32 14t-14 32t13.5 32.5t32.5 14.5q18 0 32 -14t14 -33q0 -18 -14 -32t-32 -14zM41 761
q-18 0 -32 14t-14 32t13.5 32.5t32.5 14.5t33 -14t14 -33q0 -18 -14 -32t-33 -14z" />
    <glyph glyph-name="degree" unicode="&#xb0;" horiz-adv-x="400" 
d="M350 519q0 -62 -44 -106t-106 -44t-106 44t-44 106t44 106t106 44t106 -44t44 -106zM310 519q0 45 -32.5 77.5t-78.5 32.5q-45 0 -77 -32t-32 -78t32 -78t78 -32q45 0 77.5 32.5t32.5 77.5z" />
    <glyph glyph-name="plusminus" unicode="&#xb1;" horiz-adv-x="606" 
d="M271 346v159h64v-159h220v-64h-220v-162h-64v162h-220v64h220zM555 0h-504v64h504v-64z" />
    <glyph glyph-name="twosuperior" unicode="&#xb2;" horiz-adv-x="278" 
d="M191 683l-9 -222q0 -33 -2 -107.5t-2 -80.5l2 -60l9 -213l-49 3l-51 -3l10 215q0 16 1 48t1 48l1 85l-1 72l-4 214q11 -1 24 -3t21 -2q12 0 24 0.5t25 5.5z" />
    <glyph glyph-name="threesuperior" unicode="&#xb3;" horiz-adv-x="278" 
d="M98 466l-1 7q7 -1 21.5 -2t27.5 -1h24q10 2 14 3q0 -58 -2 -110t-4 -126q0 -49 2.5 -130.5t2.5 -96.5l1 -10l-44 3h-21t-22 -3q0 40 3 119t3 119q0 49 -2.5 130.5t-2.5 97.5zM196 646q0 -21 -15 -36t-36 -15t-36 15t-15 36t15 36t36 15q20 0 35.5 -14.5t15.5 -36.5z" />
    <glyph glyph-name="acute" unicode="&#xb4;" horiz-adv-x="407" 
d="M395 419q-52 6 -127 9.5t-113 3.5q0 -33 -1 -97t-1 -98q0 -38 3 -114t3 -113l1 -10l-44 3h-21t-22 -3q0 40 4 119t4 119q0 39 -2 85q-5 114 -5 143l-1 7q17 -2 41.5 -4.5t31.5 -2.5h77q64 0 100 8t62 36h10q-4 -23 -4 -46q0 -12 1.5 -25t2.5 -20z" />
    <glyph glyph-name="mu" unicode="&#xb5;" 
d="M393 199v276l40 -3l40 3v-478l-40 3l-40 -3v86q-49 -94 -159 -94q-49 0 -85 27v-275l-40 3l-40 -3v734l40 -3l40 3v-270q0 -84 27.5 -125.5t93.5 -41.5q69 0 100 54q23 40 23 107z" />
    <glyph glyph-name="paragraph" unicode="&#xb6;" horiz-adv-x="800" 
d="M534 649v-714h64v-37h-355v37h77v389l-36 -3q-90 0 -140 45q-54 48 -54 138q0 49 20 91t60 63q29 15 65.5 19t87.5 4h21h253v-32h-63zM471 649h-88v-714h88v714zM225 532v-65q0 -50 15 -79q20 -38 66 -38l14 1v298q-57 0 -78 -32q-17 -26 -17 -85z" />
    <glyph glyph-name="periodcentered" unicode="&#xb7;" horiz-adv-x="278" 
d="M106 253q0 24 18 42t43 18q24 0 42 -18t18 -42t-18 -42t-42 -18q-25 0 -43 17t-18 43z" />
    <glyph glyph-name="periodcentered" unicode="&#x2219;" horiz-adv-x="278" 
d="M106 253q0 24 18 42t43 18q24 0 42 -18t18 -42t-18 -42t-42 -18q-25 0 -43 17t-18 43z" />
    <glyph glyph-name="cedilla" unicode="&#xb8;" horiz-adv-x="500" 
d="M468 279l-2 -39l-203 3l-143 -3q0 -90 42 -147q47 -63 133 -63q35 0 74.5 17.5t64.5 42.5q4 6 14 7l-6 -50q-39 -28 -82 -43.5t-90 -15.5q-19 0 -35 3q-24 6 -35 8q-37 8 -72.5 34t-56 58.5t-29 67.5t-8.5 76q0 50 16 99t46.5 81.5t75.5 50t91 17.5q97 0 151 -54t54 -150
zM388 280q0 74 -25 116q-32 54 -100 54q-67 0 -106 -54q-35 -48 -35 -116l131 -3zM348 551q-18 0 -32 14t-14 32t13.5 32.5t32.5 14.5q18 0 32 -14t14 -33q0 -18 -14 -32t-32 -14zM152 551q-18 0 -32 14t-14 32t13.5 32.5t32.5 14.5t33 -14t14 -33q0 -18 -14 -32t-33 -14z
" />
    <glyph glyph-name="onesuperior" unicode="&#xb9;" horiz-adv-x="1111" 
d="M783 552q0 64 47 104t118 40q70 0 113 -44q20 -20 29 -46.5t9 -55.5q0 -43 -22.5 -79t-59 -53t-80.5 -17q-34 0 -67 13q-13 5 -23 11t-27 23q-22 22 -29.5 46t-7.5 58zM948 678q-57 0 -85 -44q-23 -36 -23 -91q0 -51 23 -84q28 -40 79 -40t78 49q22 39 22 85q0 48 -20 82
q-25 43 -74 43zM796 343h290v-30h-290v30zM101 132l7 232v334h17l492 -526l7 -6l3 109v320l-4 80l-1 8l43 -3l25 3l-2 -24l-5 -98l-9 -237l-3 -224l3 -113h-15l-61 71l-163 181l-279 297l-2 -94v-148v-80l3 -118l5 -96q-17 3 -34 3t-35 -3q3 34 5.5 74.5t2.5 57.5z" />
    <glyph glyph-name="ordmasculine" unicode="&#xba;" horiz-adv-x="481" 
d="M120 232q0 -38 12 -75t35.5 -67t60 -47.5t76.5 -17.5q42 0 71.5 14.5t66.5 47.5l6 -3l-5 -46q-68 -50 -153 -50q-81 0 -136 28q-61 31 -95 100q-13 26 -19 57.5t-6 62.5q0 114 72 179t187 65q46 0 84 -9.5t74 -31.5l-23 -66h-8q-23 32 -54 52q-36 23 -72 23
q-75 0 -122 -54q-43 -49 -51 -125h147q36 0 75 5q-2 -16 -2 -23q0 -6 2 -22q-33 3 -57 3h-18h-148z" />
    <glyph glyph-name="guillemotright" unicode="&#xbb;" horiz-adv-x="500" 
d="M277 420l126 -185l-121 -190q-13 18 -38 26l108 165l-112 158l7 2l15 9zM133 420l126 -185l-120 -190q-14 19 -38 26l107 165l-112 158l7 2q9 4 17.5 12t12.5 12z" />
    <glyph glyph-name="onequarter" unicode="&#xbc;" horiz-adv-x="278" 
d="M182 149v-118q0 -70 -8 -104q-13 -54 -52 -90q-52 -41 -115 -41l-7 29l9 -1q26 0 46 16q14 12 31 39q12 34 15.5 70t3.5 86v292v18v16q0 62 -7 115l10 -2l24 -2h30l27 4l-3 -22q0 -37 -2 -123t-2 -92v-90zM196 646q0 -21 -15 -36t-36 -15t-36 15t-15 36t15 36t36 15
q20 0 35.5 -14.5t15.5 -36.5z" />
    <glyph glyph-name="onehalf" unicode="&#xbd;" horiz-adv-x="500" 
d="M63 132h10q31 -52 66 -75q40 -27 96 -27q60 0 99.5 41.5t39.5 102.5q0 47 -29 79q-23 25 -72 47q-6 3 -54 23q-58 24 -89 45t-50 58t-19 78q0 92 66 144q61 48 156 48q40 0 78 -12t65 -36q-7 -16 -12 -30q-1 -3 -15 -52h-10q-16 42 -48 66t-76 24q-53 0 -89.5 -33.5
t-36.5 -86.5q0 -57 43 -93q12 -10 20 -14.5t19 -9.5l38 -17l45 -19q23 -11 46 -21q16 -9 33 -18q19 -12 30 -25q20 -25 30.5 -50.5t10.5 -55.5q0 -105 -72 -167q-68 -59 -175 -59q-41 0 -90 15t-73 41q8 22 11.5 40.5t7.5 48.5z" />
    <glyph glyph-name="threequarters" unicode="&#xbe;" horiz-adv-x="389" 
d="M63 94h8q18 -30 49.5 -50.5t65.5 -20.5q38 0 68 25t30 63q0 45 -38 67q-14 8 -78 28l-42 14q-21 9 -37.5 24t-28.5 40.5t-12 48.5q0 70 46 109t117 39q57 0 106 -23l7 -3q-15 -34 -24 -71h-9q-10 26 -34 45t-51 19q-40 0 -65 -20.5t-25 -60.5q0 -41 28 -63q20 -16 67 -28
q22 -6 50.5 -15.5t39.5 -17.5q50 -39 50 -96q0 -44 -20 -76t-60 -58q-17 -11 -48.5 -17.5t-55.5 -6.5q-31 0 -65.5 8.5t-59.5 23.5q6 18 12 36.5t9 36.5z" />
    <glyph glyph-name="questiondown" unicode="&#xbf;" horiz-adv-x="278" 
d="M98 466l-1 7q7 -1 21.5 -2t27.5 -1h24q10 2 14 3q0 -58 -2 -110t-4 -126q0 -49 2.5 -130.5t2.5 -96.5l1 -10l-44 3h-21t-22 -3q0 40 3 119t3 119q0 49 -2.5 130.5t-2.5 97.5zM237 551q-18 0 -32 14t-14 32t13.5 32.5t32.5 14.5q18 0 32 -14t14 -33q0 -18 -14 -32t-32 -14
zM41 551q-18 0 -32 14t-14 32t13.5 32.5t32.5 14.5t33 -14t14 -33q0 -18 -14 -32t-33 -14z" />
    <glyph glyph-name="Agrave" unicode="&#xc0;" horiz-adv-x="648" 
d="M318 697h20l284 -661l17 -36l-51 3h-27t-28 -3l-9 29l-45 120l-49 118l-120 3l-134 -3q-58 -145 -65 -165q-14 -39 -33 -102q-6 2 -17 2t-18 1l-37 -3zM315 309h100l-111 256l-109 -255z" />
    <glyph glyph-name="Agrave" unicode="&#x410;" horiz-adv-x="648" 
d="M318 697h20l284 -661l17 -36l-51 3h-27t-28 -3l-9 29l-45 120l-49 118l-120 3l-134 -3q-58 -145 -65 -165q-14 -39 -33 -102q-6 2 -17 2t-18 1l-37 -3zM315 309h100l-111 256l-109 -255z" />
    <glyph glyph-name="Aacute" unicode="&#xc1;" horiz-adv-x="593" 
d="M182 344l2 -301q21 0 54 -2.5t40 -2.5q38 0 66.5 9.5t52 33t36.5 52t13 60.5q0 82 -63 124q-26 17 -62.5 22t-81.5 5h-57zM248 681h144q17 0 58.5 2t44.5 2l-3 -30v-13.5t3 -16.5l-90 7l-100 3h-121l-1 -68v-100l-1 -86l92 1q128 0 196.5 -42t68.5 -130q0 -107 -90 -169
q-39 -27 -101 -35q-38 -5 -110 -5h-120h-25q0 25 3.5 69t3.5 58l2 340l-2 120l-4 97q12 0 37 -1t37 -1z" />
    <glyph glyph-name="Aacute" unicode="&#x411;" horiz-adv-x="593" 
d="M182 344l2 -301q21 0 54 -2.5t40 -2.5q38 0 66.5 9.5t52 33t36.5 52t13 60.5q0 82 -63 124q-26 17 -62.5 22t-81.5 5h-57zM248 681h144q17 0 58.5 2t44.5 2l-3 -30v-13.5t3 -16.5l-90 7l-100 3h-121l-1 -68v-100l-1 -86l92 1q128 0 196.5 -42t68.5 -130q0 -107 -90 -169
q-39 -27 -101 -35q-38 -5 -110 -5h-120h-25q0 25 3.5 69t3.5 58l2 340l-2 120l-4 97q12 0 37 -1t37 -1z" />
    <glyph glyph-name="Acircumflex" unicode="&#xc2;" horiz-adv-x="593" 
d="M170 683l77 2h44q21 0 41 -0.5t48.5 -5t49 -11t39.5 -23.5q45 -39 45 -101q0 -67 -44.5 -113.5t-113.5 -63.5l12 -1q23 -5 48.5 -11t41.5 -16q22 -14 31 -21q14 -11 25.5 -28.5t18 -38.5t6.5 -41q0 -107 -90 -169q-39 -27 -101 -35q-38 -5 -110 -5h-120h-25q0 25 3.5 69
t3.5 58l2 340l-2 120l-4 97q12 0 37 -1t37 -1zM183 567v-100l-1 -86h43q42 0 69 3.5t56 17.5q77 36 77 121q0 32 -15 62.5t-40 43t-52.5 16t-62.5 3.5l-72 -3q0 -13 -1 -39t-1 -39zM182 344l2 -301q21 0 54 -2.5t40 -2.5q38 0 66.5 9.5t52 33t36.5 52t13 60.5q0 82 -63 124
q-26 17 -62.5 22t-81.5 5h-57z" />
    <glyph glyph-name="Acircumflex" unicode="&#x412;" horiz-adv-x="593" 
d="M170 683l77 2h44q21 0 41 -0.5t48.5 -5t49 -11t39.5 -23.5q45 -39 45 -101q0 -67 -44.5 -113.5t-113.5 -63.5l12 -1q23 -5 48.5 -11t41.5 -16q22 -14 31 -21q14 -11 25.5 -28.5t18 -38.5t6.5 -41q0 -107 -90 -169q-39 -27 -101 -35q-38 -5 -110 -5h-120h-25q0 25 3.5 69
t3.5 58l2 340l-2 120l-4 97q12 0 37 -1t37 -1zM183 567v-100l-1 -86h43q42 0 69 3.5t56 17.5q77 36 77 121q0 32 -15 62.5t-40 43t-52.5 16t-62.5 3.5l-72 -3q0 -13 -1 -39t-1 -39zM182 344l2 -301q21 0 54 -2.5t40 -2.5q38 0 66.5 9.5t52 33t36.5 52t13 60.5q0 82 -63 124
q-26 17 -62.5 22t-81.5 5h-57z" />
    <glyph glyph-name="Atilde" unicode="&#xc3;" horiz-adv-x="481" 
d="M197 681h144q17 0 58.5 2t44.5 2l-3 -30v-13.5t3 -16.5l-90 7l-100 3h-73l-5 -150v-226l2 -258h-65h-26l6 126l3 342l-2 88l-5 128z" />
    <glyph glyph-name="Atilde" unicode="&#x413;" horiz-adv-x="481" 
d="M197 681h144q17 0 58.5 2t44.5 2l-3 -30v-13.5t3 -16.5l-90 7l-100 3h-73l-5 -150v-226l2 -258h-65h-26l6 126l3 342l-2 88l-5 128z" />
    <glyph glyph-name="Adieresis" unicode="&#xc4;" horiz-adv-x="667" 
d="M525 53l-36 96l-64 160q-25 68 -69 166q-15 34 -42 90l-22 -50q-18 -40 -50 -116q-44 -103 -56 -132q-49 -114 -82 -214q29 0 99 -3t115 -3q38 0 107 3t100 3zM37 47l288 644h26l276 -644h42q-3 -17 -3 -39l3 -60h-12q-19 35 -65 47q-31 8 -103 8q-18 2 -57 2t-61 1h-33
q-30 0 -71.5 -1t-81.5 -2q-72 0 -111 -9.5t-65 -45.5h-12l3 60l-3 39h40z" />
    <glyph glyph-name="Adieresis" unicode="&#x414;" horiz-adv-x="667" 
d="M525 53l-36 96l-64 160q-25 68 -69 166q-15 34 -42 90l-22 -50q-18 -40 -50 -116q-44 -103 -56 -132q-49 -114 -82 -214q29 0 99 -3t115 -3q38 0 107 3t100 3zM37 47l288 644h26l276 -644h42q-3 -17 -3 -39l3 -60h-12q-19 35 -65 47q-31 8 -103 8q-18 2 -57 2t-61 1h-33
q-30 0 -71.5 -1t-81.5 -2q-72 0 -111 -9.5t-65 -45.5h-12l3 60l-3 39h40z" />
    <glyph glyph-name="Aring" unicode="&#xc5;" horiz-adv-x="500" 
d="M197 681h144q17 0 58.5 2t44.5 2l-3 -30v-13.5t3 -16.5l-90 7l-100 3h-73l-5 -150v-45l1 -57h101l54 3l89 5q-3 -10 -4 -15t-1 -15q0 -12 2 -19.5t2 -10.5q-24 2 -46.5 4t-41.5 2l-56 2h-43h-56l-1 -80v-125l2 -87q31 0 103 2t77 2q28 0 41.5 1.5t49.5 7.5q-3 -15 -3 -30
q0 -12 2 -19.5t2 -10.5l-69 2l-123 2l-87 -1l-84 -2l6 126l3 342l-2 88l-5 128z" />
    <glyph glyph-name="Aring" unicode="&#x415;" horiz-adv-x="500" 
d="M197 681h144q17 0 58.5 2t44.5 2l-3 -30v-13.5t3 -16.5l-90 7l-100 3h-73l-5 -150v-45l1 -57h101l54 3l89 5q-3 -10 -4 -15t-1 -15q0 -12 2 -19.5t2 -10.5q-24 2 -46.5 4t-41.5 2l-56 2h-43h-56l-1 -80v-125l2 -87q31 0 103 2t77 2q28 0 41.5 1.5t49.5 7.5q-3 -15 -3 -30
q0 -12 2 -19.5t2 -10.5l-69 2l-123 2l-87 -1l-84 -2l6 126l3 342l-2 88l-5 128z" />
    <glyph glyph-name="AE" unicode="&#xc6;" horiz-adv-x="889" 
d="M491 683q-1 -7 -1.5 -15.5t-0.5 -13.5l-5 -265l1 -17q7 -6 9 -6l27 21l83 88q35 38 141 163q15 17 39 45l34 -2l42 2l-210 -220l-81 -86q113 -138 227 -275l76 -95v-7q-11 0 -29.5 2.5t-22.5 2.5q-11 0 -29 -2.5t-22 -2.5l-66 88l-124 161l-77 94q-9 9 -17 3l-1 -14
l1 -106v-102l4 -99l2 -25q-9 1 -20 3t-25 2q-19 0 -39 -3q-3 0 -9 -2l2 25l4 99v102l1 106l-1 14q-10 7 -17 -3l-77 -94l-124 -161l-66 -88q-12 0 -29.5 2.5t-21.5 2.5q-11 0 -29.5 -2.5t-22.5 -2.5v7l76 95q46 58 113 138q94 113 114 137l-81 86l-210 220l42 -2l34 2
q39 -46 62 -74q61 -72 118 -134l83 -88l27 -21q2 0 9 6l1 17l-5 265v11q0 6 -2 18q9 -2 21 -3t27 -1q14 0 25 1t20 3z" />
    <glyph glyph-name="AE" unicode="&#x416;" horiz-adv-x="889" 
d="M491 683q-1 -7 -1.5 -15.5t-0.5 -13.5l-5 -265l1 -17q7 -6 9 -6l27 21l83 88q35 38 141 163q15 17 39 45l34 -2l42 2l-210 -220l-81 -86q113 -138 227 -275l76 -95v-7q-11 0 -29.5 2.5t-22.5 2.5q-11 0 -29 -2.5t-22 -2.5l-66 88l-124 161l-77 94q-9 9 -17 3l-1 -14
l1 -106v-102l4 -99l2 -25q-9 1 -20 3t-25 2q-19 0 -39 -3q-3 0 -9 -2l2 25l4 99v102l1 106l-1 14q-10 7 -17 -3l-77 -94l-124 -161l-66 -88q-12 0 -29.5 2.5t-21.5 2.5q-11 0 -29.5 -2.5t-22.5 -2.5v7l76 95q46 58 113 138q94 113 114 137l-81 86l-210 220l42 -2l34 2
q39 -46 62 -74q61 -72 118 -134l83 -88l27 -21q2 0 9 6l1 17l-5 265v11q0 6 -2 18q9 -2 21 -3t27 -1q14 0 25 1t20 3z" />
    <glyph glyph-name="Ccedilla" unicode="&#xc7;" horiz-adv-x="536" 
d="M49 48l2 57q35 -38 81.5 -59.5t92.5 -21.5q74 0 120 51t46 123q0 65 -39 103q-44 42 -128 42q-15 0 -29 -0.5t-32 -3.5q2 14 2 21v9q-2 9 -2 13q11 -2 20.5 -2h19.5q77 0 117.5 40.5t40.5 103.5q0 59 -33 95q-36 39 -101 39q-59 0 -102 -29q-35 -24 -57 -63l-14 2
q0 14 1 45t1 44q87 39 182 39q106 0 160.5 -43t54.5 -113q0 -58 -36 -104t-105 -71q85 0 131 -48q43 -45 43 -115q0 -90 -66 -151q-71 -66 -189 -66q-51 0 -95.5 14.5t-86.5 48.5z" />
    <glyph glyph-name="Ccedilla" unicode="&#x417;" horiz-adv-x="536" 
d="M49 48l2 57q35 -38 81.5 -59.5t92.5 -21.5q74 0 120 51t46 123q0 65 -39 103q-44 42 -128 42q-15 0 -29 -0.5t-32 -3.5q2 14 2 21v9q-2 9 -2 13q11 -2 20.5 -2h19.5q77 0 117.5 40.5t40.5 103.5q0 59 -33 95q-36 39 -101 39q-59 0 -102 -29q-35 -24 -57 -63l-14 2
q0 14 1 45t1 44q87 39 182 39q106 0 160.5 -43t54.5 -113q0 -58 -36 -104t-105 -71q85 0 131 -48q43 -45 43 -115q0 -90 -66 -151q-71 -66 -189 -66q-51 0 -95.5 14.5t-86.5 48.5z" />
    <glyph glyph-name="Egrave" unicode="&#xc8;" horiz-adv-x="778" 
d="M595 531q-108 -104 -244 -256q-113 -127 -247 -288h-15l2 35l4 79q0 46 2 133.5t2 100.5v38v206l-5 106q8 0 25 -2t26 -2l46 3l-2 -27l-4 -91l-5 -174l-1 -45q0 -29 1 -94t1 -87q225 221 490 532h17q-1 -8 -2 -22.5t-1 -18.5q-1 -42 -2 -69q-7 -194 -7 -257
q0 -60 1.5 -137.5t1.5 -87.5l5 -106q-9 0 -25 2.5t-20 2.5q-11 0 -30 -2.5t-23 -2.5l2 22l5 103q0 29 1.5 123t1.5 99z" />
    <glyph glyph-name="Egrave" unicode="&#x418;" horiz-adv-x="778" 
d="M595 531q-108 -104 -244 -256q-113 -127 -247 -288h-15l2 35l4 79q0 46 2 133.5t2 100.5v38v206l-5 106q8 0 25 -2t26 -2l46 3l-2 -27l-4 -91l-5 -174l-1 -45q0 -29 1 -94t1 -87q225 221 490 532h17q-1 -8 -2 -22.5t-1 -18.5q-1 -42 -2 -69q-7 -194 -7 -257
q0 -60 1.5 -137.5t1.5 -87.5l5 -106q-9 0 -25 2.5t-20 2.5q-11 0 -30 -2.5t-23 -2.5l2 22l5 103q0 29 1.5 123t1.5 99z" />
    <glyph glyph-name="Eacute" unicode="&#xc9;" horiz-adv-x="778" 
d="M595 531q-108 -104 -244 -256q-113 -127 -247 -288h-15l2 35l4 79q0 46 2 133.5t2 100.5v38v206l-5 106q8 0 25 -2t26 -2l46 3l-2 -27l-4 -91l-5 -174l-1 -45q0 -29 1 -94t1 -87q225 221 490 532h17q-1 -8 -2 -22.5t-1 -18.5q-1 -42 -2 -69q-7 -194 -7 -257
q0 -60 1.5 -137.5t1.5 -87.5l5 -106q-9 0 -25 2.5t-20 2.5q-11 0 -30 -2.5t-23 -2.5l2 22l5 103q0 29 1.5 123t1.5 99zM546 834q-22 -48 -59 -73q-42 -29 -99 -29q-53 0 -92.5 29t-57.5 72l23 17q42 -70 130 -70q44 0 77 18t54 52z" />
    <glyph glyph-name="Eacute" unicode="&#x419;" horiz-adv-x="778" 
d="M595 531q-108 -104 -244 -256q-113 -127 -247 -288h-15l2 35l4 79q0 46 2 133.5t2 100.5v38v206l-5 106q8 0 25 -2t26 -2l46 3l-2 -27l-4 -91l-5 -174l-1 -45q0 -29 1 -94t1 -87q225 221 490 532h17q-1 -8 -2 -22.5t-1 -18.5q-1 -42 -2 -69q-7 -194 -7 -257
q0 -60 1.5 -137.5t1.5 -87.5l5 -106q-9 0 -25 2.5t-20 2.5q-11 0 -30 -2.5t-23 -2.5l2 22l5 103q0 29 1.5 123t1.5 99zM546 834q-22 -48 -59 -73q-42 -29 -99 -29q-53 0 -92.5 29t-57.5 72l23 17q42 -70 130 -70q44 0 77 18t54 52z" />
    <glyph glyph-name="Ecircumflex" unicode="&#xca;" horiz-adv-x="611" 
d="M95 569l-2 91l-2 23l12 -2q15 -3 31 -3q9 0 17.5 0.5t33.5 4.5q-1 -7 -1.5 -15.5t-0.5 -13.5l-5 -265l1 -17q7 -6 9 -6l28 21l41 40l49 48l194 208l36 -2l43 2l-224 -220l-85 -86q121 -138 243 -275l81 -95v-7q-11 0 -19 1q-30 4 -34 4q-13 0 -33 -2.5t-23 -2.5
q-36 44 -71 88l-135 161l-83 94q-10 8 -17 3l-1 -14l1 -106v-102l4 -99l2 -25q-15 3 -29 3q-7 0 -23 -1t-24 -1l-19 -1l2 26l6 177l2 139l-2 133z" />
    <glyph glyph-name="Ecircumflex" unicode="&#x41a;" horiz-adv-x="611" 
d="M95 569l-2 91l-2 23l12 -2q15 -3 31 -3q9 0 17.5 0.5t33.5 4.5q-1 -7 -1.5 -15.5t-0.5 -13.5l-5 -265l1 -17q7 -6 9 -6l28 21l41 40l49 48l194 208l36 -2l43 2l-224 -220l-85 -86q121 -138 243 -275l81 -95v-7q-11 0 -19 1q-30 4 -34 4q-13 0 -33 -2.5t-23 -2.5
q-36 44 -71 88l-135 161l-83 94q-10 8 -17 3l-1 -14l1 -106v-102l4 -99l2 -25q-15 3 -29 3q-7 0 -23 -1t-24 -1l-19 -1l2 26l6 177l2 139l-2 133z" />
    <glyph glyph-name="Edieresis" unicode="&#xcb;" horiz-adv-x="648" 
d="M415 309q-25 68 -69 166q-15 34 -42 90l-22 -50q-18 -40 -50 -116q-44 -103 -56 -132q-32 -73 -55 -136.5t-43 -130.5q-6 2 -17 2t-18 1l-37 -3l309 691h26l281 -655l17 -36l-51 3h-27t-28 -3l-9 29l-45 120z" />
    <glyph glyph-name="Edieresis" unicode="&#x41b;" horiz-adv-x="648" 
d="M415 309q-25 68 -69 166q-15 34 -42 90l-22 -50q-18 -40 -50 -116q-44 -103 -56 -132q-32 -73 -55 -136.5t-43 -130.5q-6 2 -17 2t-18 1l-37 -3l309 691h26l281 -655l17 -36l-51 3h-27t-28 -3l-9 29l-45 120z" />
    <glyph glyph-name="Igrave" unicode="&#xcc;" horiz-adv-x="889" 
d="M142 693h17l136 -264q66 -126 154 -272l78 142l131 242l85 152h13l49 -433q8 -73 16 -134t17 -126l-45 3h-24t-25 -3l-32 364l-18 149l-141 -258l-53 -104q-17 -36 -25 -53q-22 -45 -43 -90h-11l-55 113q-36 75 -64 129.5t-69 132.5q-35 65 -69 130l-43 -391l-5 -100
l-1 -22q-20 3 -39 3q-16 0 -31 -3l1 9l33 206l49 363q5 29 8.5 62.5t5.5 52.5z" />
    <glyph glyph-name="Igrave" unicode="&#x41c;" horiz-adv-x="889" 
d="M142 693h17l136 -264q66 -126 154 -272l78 142l131 242l85 152h13l49 -433q8 -73 16 -134t17 -126l-45 3h-24t-25 -3l-32 364l-18 149l-141 -258l-53 -104q-17 -36 -25 -53q-22 -45 -43 -90h-11l-55 113q-36 75 -64 129.5t-69 132.5q-35 65 -69 130l-43 -391l-5 -100
l-1 -22q-20 3 -39 3q-16 0 -31 -3l1 9l33 206l49 363q5 29 8.5 62.5t5.5 52.5z" />
    <glyph glyph-name="Iacute" unicode="&#xcd;" horiz-adv-x="778" 
d="M596 347h-417l3 -217l4 -108l2 -22q-10 0 -26.5 2.5t-19.5 2.5q-11 0 -30 -2.5t-23 -2.5l2 22l4 79l4 234v38v206l-5 106q8 0 25 -2t26 -2l46 3l-2 -27l-4 -91l-5 -174l129 -3l286 3v212l-5 81q8 0 25 -2t26 -2l47 3l-3 -27l-9 -326l3 -225l5 -106q-9 0 -25 2.5t-20 2.5
q-11 0 -30 -2.5t-23 -2.5l2 22l5 103z" />
    <glyph glyph-name="Iacute" unicode="&#x41d;" horiz-adv-x="778" 
d="M596 347h-417l3 -217l4 -108l2 -22q-10 0 -26.5 2.5t-19.5 2.5q-11 0 -30 -2.5t-23 -2.5l2 22l4 79l4 234v38v206l-5 106q8 0 25 -2t26 -2l46 3l-2 -27l-4 -91l-5 -174l129 -3l286 3v212l-5 81q8 0 25 -2t26 -2l47 3l-3 -27l-9 -326l3 -225l5 -106q-9 0 -25 2.5t-20 2.5
q-11 0 -30 -2.5t-23 -2.5l2 22l5 103z" />
    <glyph glyph-name="Icircumflex" unicode="&#xce;" horiz-adv-x="833" 
d="M694 347q0 68 -12 116q-15 58 -51.5 105.5t-91 72.5t-116.5 25q-95 0 -167 -53q-61 -45 -90 -128q-25 -71 -25 -158q0 -67 16 -121.5t55 -99.5q79 -90 202 -90q104 0 177.5 67.5t93.5 172.5q9 44 9 91zM413 701q55 0 104.5 -9.5t92.5 -32.5q182 -96 182 -302
q0 -167 -106.5 -269.5t-274.5 -102.5q-117 0 -202 48q-89 51 -138 153q-7 15 -13 38.5t-9 41.5q-6 38 -6 75q0 77 28.5 145t83.5 117.5t119.5 73.5t138.5 24z" />
    <glyph glyph-name="Icircumflex" unicode="&#x41e;" horiz-adv-x="833" 
d="M694 347q0 68 -12 116q-15 58 -51.5 105.5t-91 72.5t-116.5 25q-95 0 -167 -53q-61 -45 -90 -128q-25 -71 -25 -158q0 -67 16 -121.5t55 -99.5q79 -90 202 -90q104 0 177.5 67.5t93.5 172.5q9 44 9 91zM413 701q55 0 104.5 -9.5t92.5 -32.5q182 -96 182 -302
q0 -167 -106.5 -269.5t-274.5 -102.5q-117 0 -202 48q-89 51 -138 153q-7 15 -13 38.5t-9 41.5q-6 38 -6 75q0 77 28.5 145t83.5 117.5t119.5 73.5t138.5 24z" />
    <glyph glyph-name="Idieresis" unicode="&#xcf;" horiz-adv-x="778" 
d="M595 633q-40 0 -115 2.5t-100 2.5q-50 0 -116 -2.5t-84 -2.5v-209.5t0.5 -198.5t1.5 -95l4 -108l2 -22q-10 0 -26.5 2.5t-19.5 2.5q-11 0 -30 -2.5t-23 -2.5l2 22l4 79l4 234v38v206l-5 106q78 0 175.5 -2.5t115.5 -2.5q43 0 159.5 2t143.5 2l-3 -27l-9 -326l3 -225
l5 -106q-9 0 -25 2.5t-20 2.5q-11 0 -30 -2.5t-23 -2.5l2 22l5 103z" />
    <glyph glyph-name="Idieresis" unicode="&#x41f;" horiz-adv-x="778" 
d="M595 633q-40 0 -115 2.5t-100 2.5q-50 0 -116 -2.5t-84 -2.5v-209.5t0.5 -198.5t1.5 -95l4 -108l2 -22q-10 0 -26.5 2.5t-19.5 2.5q-11 0 -30 -2.5t-23 -2.5l2 22l4 79l4 234v38v206l-5 106q78 0 175.5 -2.5t115.5 -2.5q43 0 159.5 2t143.5 2l-3 -27l-9 -326l3 -225
l5 -106q-9 0 -25 2.5t-20 2.5q-11 0 -30 -2.5t-23 -2.5l2 22l5 103z" />
    <glyph glyph-name="Eth" unicode="&#xd0;" 
d="M182 311v-73v-44l3 -173v-22l-46 3l-50 -2l2 25l9 193l-4 351l-5 114q15 -2 30 -2h31l121 2q104 0 151 -14q82 -25 101 -101q6 -26 6 -51q0 -26 -8.5 -57t-21.5 -51q-16 -25 -31.5 -38t-45 -27t-47 -19t-60.5 -12q-10 -2 -30 -3t-30 -1zM183 618l-2 -57v-211q7 -1 21 -2
t27 -1l52 3q41 4 66 13q32 12 55 38q16 18 26.5 50.5t10.5 60.5q0 25 -8 50.5t-23 42.5t-36.5 25.5t-45 10.5t-34.5 3t-21 1l-88 -3v-24z" />
    <glyph glyph-name="Eth" unicode="&#x420;" 
d="M182 311v-73v-44l3 -173v-22l-46 3l-50 -2l2 25l9 193l-4 351l-5 114q15 -2 30 -2h31l121 2q104 0 151 -14q82 -25 101 -101q6 -26 6 -51q0 -26 -8.5 -57t-21.5 -51q-16 -25 -31.5 -38t-45 -27t-47 -19t-60.5 -12q-10 -2 -30 -3t-30 -1zM183 618l-2 -57v-211q7 -1 21 -2
t27 -1l52 3q41 4 66 13q32 12 55 38q16 18 26.5 50.5t10.5 60.5q0 25 -8 50.5t-23 42.5t-36.5 25.5t-45 10.5t-34.5 3t-21 1l-88 -3v-24z" />
    <glyph glyph-name="Ntilde" unicode="&#xd1;" horiz-adv-x="667" 
d="M609 573l-7 -1q-6 5 -11 11q-36 34 -84 54.5t-96 20.5q-132 0 -207 -95q-69 -88 -69 -224q0 -28 5 -63t12 -62q14 -52 49.5 -96.5t88.5 -69t114 -24.5q52 0 104 19t96 53q4 3 7.5 5t8.5 2l-9 -61q-45 -30 -100.5 -43t-120.5 -13q-164 0 -258 96t-94 261q0 76 30 147
t84 117t121 67.5t142 21.5q53 0 108.5 -12t106.5 -34q-6 -15 -12 -37.5t-9 -39.5z" />
    <glyph glyph-name="Ntilde" unicode="&#x421;" horiz-adv-x="667" 
d="M609 573l-7 -1q-6 5 -11 11q-36 34 -84 54.5t-96 20.5q-132 0 -207 -95q-69 -88 -69 -224q0 -28 5 -63t12 -62q14 -52 49.5 -96.5t88.5 -69t114 -24.5q52 0 104 19t96 53q4 3 7.5 5t8.5 2l-9 -61q-45 -30 -100.5 -43t-120.5 -13q-164 0 -258 96t-94 261q0 76 30 147
t84 117t121 67.5t142 21.5q53 0 108.5 -12t106.5 -34q-6 -15 -12 -37.5t-9 -39.5z" />
    <glyph glyph-name="Ograve" unicode="&#xd2;" 
d="M508 624l-107 9h-51h-25l-1 -23l-3 -106v-398l6 -99l1 -7q-11 1 -21 2.5t-25 1.5h-23t-30 -4l3 25l4 105l5 402v102q-21 0 -63 -2t-63 -2l-96 -7q3 18 3 37v11q-2 8 -2 12l137 -6l131 -2l124 3l124 5q-3 -17 -3 -34q0 -14 3 -29z" />
    <glyph glyph-name="Ograve" unicode="&#x422;" 
d="M508 624l-107 9h-51h-25l-1 -23l-3 -106v-398l6 -99l1 -7q-11 1 -21 2.5t-25 1.5h-23t-30 -4l3 25l4 105l5 402v102q-21 0 -63 -2t-63 -2l-96 -7q3 18 3 37v11q-2 8 -2 12l137 -6l131 -2l124 3l124 5q-3 -17 -3 -34q0 -14 3 -29z" />
    <glyph glyph-name="Oacute" unicode="&#xd3;" horiz-adv-x="648" 
d="M322 166q-58 101 -96 164q-64 107 -102 167l-118 184l62 -3l52 3q60 -123 126 -235q59 -100 118 -185h9q44 84 70 135q32 64 71 147t61 138l34 -3l36 3q-130 -243 -182 -342q-65 -125 -103 -210q-34 -76 -50 -132l-34 3l-45 -3q49 76 91 169z" />
    <glyph glyph-name="Oacute" unicode="&#x423;" horiz-adv-x="648" 
d="M322 166q-58 101 -96 164q-64 107 -102 167l-118 184l62 -3l52 3q60 -123 126 -235q59 -100 118 -185h9q44 84 70 135q32 64 71 147t61 138l34 -3l36 3q-130 -243 -182 -342q-65 -125 -103 -210q-34 -76 -50 -132l-34 3l-45 -3q49 76 91 169z" />
    <glyph glyph-name="Ocircumflex" unicode="&#xd4;" horiz-adv-x="889" 
d="M397 90l5 125q0 16 1 48t1 48l1 85l-1 72l-2 118l-2 8q-125 0 -192.5 -63.5t-67.5 -179.5t70.5 -188.5t186.5 -72.5zM400 682q11 -1 24 -3t21 -2q12 0 24 0.5t25 5.5l-2 -54q173 0 263.5 -63.5t90.5 -198.5q0 -130 -93 -218q-99 -94 -263 -94l2 -55l-49 3l-50 -3l2 55
q-165 0 -259 85.5t-94 220.5q0 128 93 198t265 70v53zM491 594l-6 -133q0 -33 -2 -107.5t-2 -80.5l2 -60l5 -123q115 0 187.5 81.5t72.5 201.5q0 108 -66.5 164.5t-190.5 56.5z" />
    <glyph glyph-name="Ocircumflex" unicode="&#x424;" horiz-adv-x="889" 
d="M397 90l5 125q0 16 1 48t1 48l1 85l-1 72l-2 118l-2 8q-125 0 -192.5 -63.5t-67.5 -179.5t70.5 -188.5t186.5 -72.5zM400 682q11 -1 24 -3t21 -2q12 0 24 0.5t25 5.5l-2 -54q173 0 263.5 -63.5t90.5 -198.5q0 -130 -93 -218q-99 -94 -263 -94l2 -55l-49 3l-50 -3l2 55
q-165 0 -259 85.5t-94 220.5q0 128 93 198t265 70v53zM491 594l-6 -133q0 -33 -2 -107.5t-2 -80.5l2 -60l5 -123q115 0 187.5 81.5t72.5 201.5q0 108 -66.5 164.5t-190.5 56.5z" />
    <glyph glyph-name="Otilde" unicode="&#xd5;" horiz-adv-x="611" 
d="M159 174l111 167l-115 189l-92 145l-5 8q10 0 34 -2t26 -2q8 0 27.5 2t20.5 2q10 -20 17 -33q3 -5 32 -55l106 -182l166 270q17 -4 37 -4q6 0 14.5 0.5t22.5 3.5l-15 -22l-153 -213l-49 -74l231 -374q-28 4 -65 4h-19.5t-26.5 -4q-77 152 -171 301q-47 -70 -91.5 -145
t-88.5 -156q-8 3 -18 4t-22 1q-6 0 -17 -2t-17 -3z" />
    <glyph glyph-name="Otilde" unicode="&#x425;" horiz-adv-x="611" 
d="M159 174l111 167l-115 189l-92 145l-5 8q10 0 34 -2t26 -2q8 0 27.5 2t20.5 2q10 -20 17 -33q3 -5 32 -55l106 -182l166 270q17 -4 37 -4q6 0 14.5 0.5t22.5 3.5l-15 -22l-153 -213l-49 -74l231 -374q-28 4 -65 4h-19.5t-26.5 -4q-77 152 -171 301q-47 -70 -91.5 -145
t-88.5 -156q-8 3 -18 4t-22 1q-6 0 -17 -2t-17 -3z" />
    <glyph glyph-name="Odieresis" unicode="&#xd6;" horiz-adv-x="778" 
d="M682 47h56q-3 -17 -3 -39l3 -60h-12q-19 35 -65 47q-31 8 -103 8l-171 3q-60 0 -156 -3t-142 -3l2 22l4 79q0 46 2 133.5t2 100.5v244l-5 106q8 0 25 -2t26 -2l46 3l-2 -27l-4 -91q0 -107 -1.5 -215t-2.5 -181t-1 -117q46 -2 101 -4t106 -2q50 0 105.5 2t102.5 4l1 339
v30v23v19v17v14v12q0 19 -0.5 40t-0.5 43v14l-5 81q8 0 25 -2t26 -2l47 3l-3 -27q-1 -42 -2 -69q-7 -194 -7 -257q0 -60 1.5 -137.5t1.5 -87.5z" />
    <glyph glyph-name="Odieresis" unicode="&#x426;" horiz-adv-x="778" 
d="M682 47h56q-3 -17 -3 -39l3 -60h-12q-19 35 -65 47q-31 8 -103 8l-171 3q-60 0 -156 -3t-142 -3l2 22l4 79q0 46 2 133.5t2 100.5v244l-5 106q8 0 25 -2t26 -2l46 3l-2 -27l-4 -91q0 -107 -1.5 -215t-2.5 -181t-1 -117q46 -2 101 -4t106 -2q50 0 105.5 2t102.5 4l1 339
v30v23v19v17v14v12q0 19 -0.5 40t-0.5 43v14l-5 81q8 0 25 -2t26 -2l47 3l-3 -27q-1 -42 -2 -69q-7 -194 -7 -257q0 -60 1.5 -137.5t1.5 -87.5z" />
    <glyph glyph-name="multiply" unicode="&#xd7;" horiz-adv-x="722" 
d="M545 343q-58 -32 -123 -51t-128 -19q-96 0 -155 40q-66 45 -66 131q0 17 1 68.5t1 66.5l-5 106q8 0 25 -2t26 -2l46 3l-2 -27l-4 -91v-66.5v-41.5q0 -64 44 -97q40 -30 110 -30q58 0 117 15.5t113 45.5l1 212l-5 81q8 0 25 -2t26 -2l47 3l-3 -27l-9 -326l3 -225l5 -106
q-9 0 -25 2.5t-20 2.5q-12 0 -31 -2.5t-23 -2.5l2 22l5 103z" />
    <glyph glyph-name="multiply" unicode="&#x427;" horiz-adv-x="722" 
d="M545 343q-58 -32 -123 -51t-128 -19q-96 0 -155 40q-66 45 -66 131q0 17 1 68.5t1 66.5l-5 106q8 0 25 -2t26 -2l46 3l-2 -27l-4 -91v-66.5v-41.5q0 -64 44 -97q40 -30 110 -30q58 0 117 15.5t113 45.5l1 212l-5 81q8 0 25 -2t26 -2l47 3l-3 -27l-9 -326l3 -225l5 -106
q-9 0 -25 2.5t-20 2.5q-12 0 -31 -2.5t-23 -2.5l2 22l5 103z" />
    <glyph glyph-name="Oslash" unicode="&#xd8;" horiz-adv-x="889" 
d="M400 53l1 72l3 222v36v29v23v20v17v15v13v12q0 18 -0.5 38t-0.5 41v13l-5 81q8 0 25 -2t26 -2l47 3l-3 -27q-1 -42 -2 -69q-7 -194 -7 -257l3 -225l1 -53q22 -2 49.5 -4t61.5 -2t61 2t48 4l1 339v30v23v19v17v14v12q0 19 -0.5 40t-0.5 43v14l-5 81q8 0 25 -2t26 -2l47 3
l-3 -27q-1 -42 -2 -69q-7 -194 -7 -257q0 -60 1.5 -137.5t1.5 -87.5l5 -106q-58 0 -170 3t-183 3q-100 0 -175.5 -2t-179.5 -4l2 22l4 79q0 46 2 133.5t2 100.5v244l-5 106q8 0 25 -2t26 -2l46 3l-2 -27l-4 -91q0 -108 -1.5 -215.5t-2.5 -180.5t-1 -117q24 -2 53 -4t56 -2
q26 0 55.5 2t55.5 4z" />
    <glyph glyph-name="Oslash" unicode="&#x428;" horiz-adv-x="889" 
d="M400 53l1 72l3 222v36v29v23v20v17v15v13v12q0 18 -0.5 38t-0.5 41v13l-5 81q8 0 25 -2t26 -2l47 3l-3 -27q-1 -42 -2 -69q-7 -194 -7 -257l3 -225l1 -53q22 -2 49.5 -4t61.5 -2t61 2t48 4l1 339v30v23v19v17v14v12q0 19 -0.5 40t-0.5 43v14l-5 81q8 0 25 -2t26 -2l47 3
l-3 -27q-1 -42 -2 -69q-7 -194 -7 -257q0 -60 1.5 -137.5t1.5 -87.5l5 -106q-58 0 -170 3t-183 3q-100 0 -175.5 -2t-179.5 -4l2 22l4 79q0 46 2 133.5t2 100.5v244l-5 106q8 0 25 -2t26 -2l46 3l-2 -27l-4 -91q0 -108 -1.5 -215.5t-2.5 -180.5t-1 -117q24 -2 53 -4t56 -2
q26 0 55.5 2t55.5 4z" />
    <glyph glyph-name="Ugrave" unicode="&#xd9;" horiz-adv-x="889" 
d="M444 6q-100 0 -175.5 -2t-179.5 -4l2 22l4 79q0 46 2 133.5t2 100.5v244l-5 106q8 0 25 -2t26 -2l46 3l-2 -27l-4 -91q0 -108 -1.5 -215.5t-2.5 -180.5t-1 -117q24 -2 53 -4t56 -2q26 0 55.5 2t55.5 4l1 72l3 222v36v29v23v20v17v15v13v12q0 18 -0.5 38t-0.5 41v13l-5 81
q8 0 25 -2t26 -2l47 3l-3 -27q-1 -42 -2 -69q-7 -194 -7 -257l3 -225l1 -53q22 -2 49.5 -4t61.5 -2t61 2t48 4l1 339v30v23v19v17v14v12q0 19 -0.5 40t-0.5 43v14l-5 81q8 0 25 -2t26 -2l47 3l-3 -27q-1 -42 -2 -69q-7 -194 -7 -257q0 -60 1.5 -137.5t1.5 -87.5l2 -59h58
q-3 -17 -3 -39l3 -60h-12q-19 35 -65 47q-31 8 -103 8z" />
    <glyph glyph-name="Ugrave" unicode="&#x429;" horiz-adv-x="889" 
d="M444 6q-100 0 -175.5 -2t-179.5 -4l2 22l4 79q0 46 2 133.5t2 100.5v244l-5 106q8 0 25 -2t26 -2l46 3l-2 -27l-4 -91q0 -108 -1.5 -215.5t-2.5 -180.5t-1 -117q24 -2 53 -4t56 -2q26 0 55.5 2t55.5 4l1 72l3 222v36v29v23v20v17v15v13v12q0 18 -0.5 38t-0.5 41v13l-5 81
q8 0 25 -2t26 -2l47 3l-3 -27q-1 -42 -2 -69q-7 -194 -7 -257l3 -225l1 -53q22 -2 49.5 -4t61.5 -2t61 2t48 4l1 339v30v23v19v17v14v12q0 19 -0.5 40t-0.5 43v14l-5 81q8 0 25 -2t26 -2l47 3l-3 -27q-1 -42 -2 -69q-7 -194 -7 -257q0 -60 1.5 -137.5t1.5 -87.5l2 -59h58
q-3 -17 -3 -39l3 -60h-12q-19 35 -65 47q-31 8 -103 8z" />
    <glyph glyph-name="Uacute" unicode="&#xda;" 
d="M191 344l2 -301q20 0 49.5 -2.5t36.5 -2.5q38 0 66.5 9.5t52 33t36.5 52t13 60.5q0 82 -63 124q-26 17 -62.5 22t-81.5 5h-49zM107 632q-20 0 -40 -1.5t-47 -7.5l3 30l-3 29q20 -2 44.5 -3t46.5 -1q18 0 54 2t38 2l-6 -115l-3 -100l-3 -86l84 1q128 0 196.5 -42
t68.5 -130q0 -107 -90 -169q-39 -27 -101 -35q-38 -5 -110 -5h-112h-25q0 25 3.5 69t3.5 58l2 340l-2 120z" />
    <glyph glyph-name="Uacute" unicode="&#x42a;" 
d="M191 344l2 -301q20 0 49.5 -2.5t36.5 -2.5q38 0 66.5 9.5t52 33t36.5 52t13 60.5q0 82 -63 124q-26 17 -62.5 22t-81.5 5h-49zM107 632q-20 0 -40 -1.5t-47 -7.5l3 30l-3 29q20 -2 44.5 -3t46.5 -1q18 0 54 2t38 2l-6 -115l-3 -100l-3 -86l84 1q128 0 196.5 -42
t68.5 -130q0 -107 -90 -169q-39 -27 -101 -35q-38 -5 -110 -5h-112h-25q0 25 3.5 69t3.5 58l2 340l-2 120z" />
    <glyph glyph-name="Ucircumflex" unicode="&#xdb;" horiz-adv-x="796" 
d="M705 683l-9 -222q0 -33 -2 -107.5t-2 -80.5l2 -60l9 -213l-49 3l-51 -3l10 215q0 16 1 48t1 48l1 85l-1 72l-4 214q11 -1 24 -3t21 -2q12 0 24 0.5t25 5.5zM179 344l2 -301q20 0 49.5 -2.5t36.5 -2.5q38 0 66.5 9.5t52 33t36.5 52t13 60.5q0 82 -63 124q-26 17 -62.5 22
t-81.5 5h-49zM528 210q0 -107 -90 -169q-39 -27 -101 -35q-38 -5 -110 -5h-112h-25q0 25 3.5 69t3.5 58l2 340l-2 120l-4 97q21 -3 27 -3.5t24 -0.5q8 0 20 1t27 3l-6 -118l-3 -100l-3 -86l84 1q128 0 196.5 -42t68.5 -130z" />
    <glyph glyph-name="Ucircumflex" unicode="&#x42b;" horiz-adv-x="796" 
d="M705 683l-9 -222q0 -33 -2 -107.5t-2 -80.5l2 -60l9 -213l-49 3l-51 -3l10 215q0 16 1 48t1 48l1 85l-1 72l-4 214q11 -1 24 -3t21 -2q12 0 24 0.5t25 5.5zM179 344l2 -301q20 0 49.5 -2.5t36.5 -2.5q38 0 66.5 9.5t52 33t36.5 52t13 60.5q0 82 -63 124q-26 17 -62.5 22
t-81.5 5h-49zM528 210q0 -107 -90 -169q-39 -27 -101 -35q-38 -5 -110 -5h-112h-25q0 25 3.5 69t3.5 58l2 340l-2 120l-4 97q21 -3 27 -3.5t24 -0.5q8 0 20 1t27 3l-6 -118l-3 -100l-3 -86l84 1q128 0 196.5 -42t68.5 -130z" />
    <glyph glyph-name="Udieresis" unicode="&#xdc;" 
d="M179 344l2 -301q20 0 49.5 -2.5t36.5 -2.5q38 0 66.5 9.5t52 33t36.5 52t13 60.5q0 82 -63 124q-26 17 -62.5 22t-81.5 5h-49zM528 210q0 -107 -90 -169q-39 -27 -101 -35q-38 -5 -110 -5h-112h-25q0 25 3.5 69t3.5 58l2 340l-2 120l-4 97q21 -3 27 -3.5t24 -0.5
q8 0 20 1t27 3l-6 -118l-3 -100l-3 -86l84 1q128 0 196.5 -42t68.5 -130z" />
    <glyph glyph-name="Udieresis" unicode="&#x42c;" 
d="M179 344l2 -301q20 0 49.5 -2.5t36.5 -2.5q38 0 66.5 9.5t52 33t36.5 52t13 60.5q0 82 -63 124q-26 17 -62.5 22t-81.5 5h-49zM528 210q0 -107 -90 -169q-39 -27 -101 -35q-38 -5 -110 -5h-112h-25q0 25 3.5 69t3.5 58l2 340l-2 120l-4 97q21 -3 27 -3.5t24 -0.5
q8 0 20 1t27 3l-6 -118l-3 -100l-3 -86l84 1q128 0 196.5 -42t68.5 -130z" />
    <glyph glyph-name="Yacute" unicode="&#xdd;" horiz-adv-x="667" 
d="M531 339h-279q-21 0 -43 -1t-46 -4q3 15 3 28q0 12 -3 26q18 -3 43 -4t46 -1h277q-14 141 -93 213q-68 62 -168 62q-70 0 -119 -23t-84 -66l-11 1q0 15 1 32l2 34q0 15 -1 22q97 38 202 38q157 0 258 -81q113 -91 113 -257q0 -189 -112 -288q-96 -85 -244 -85
q-130 0 -225 63l3 57q93 -81 212 -81q114 0 186 75q82 85 82 240z" />
    <glyph glyph-name="Yacute" unicode="&#x42d;" horiz-adv-x="667" 
d="M531 339h-279q-21 0 -43 -1t-46 -4q3 15 3 28q0 12 -3 26q18 -3 43 -4t46 -1h277q-14 141 -93 213q-68 62 -168 62q-70 0 -119 -23t-84 -66l-11 1q0 15 1 32l2 34q0 15 -1 22q97 38 202 38q157 0 258 -81q113 -91 113 -257q0 -189 -112 -288q-96 -85 -244 -85
q-130 0 -225 63l3 57q93 -81 212 -81q114 0 186 75q82 85 82 240z" />
    <glyph glyph-name="Thorn" unicode="&#xde;" horiz-adv-x="1017" 
d="M824 566q-36 47 -87 72t-108 25q-123 0 -193.5 -91t-70.5 -245q0 -147 75 -231q70 -78 180 -78q121 0 195 103q67 94 67 225q0 69 -12 121t-46 99zM268 347h-89l3 -217l4 -108l2 -22q-10 0 -26.5 2.5t-19.5 2.5q-11 0 -30 -2.5t-23 -2.5l2 22l4 79l4 234v38v206l-5 106
q8 0 25 -2t26 -2l46 3l-2 -27l-4 -91l-5 -174l47 -2l43 2q17 139 114 221.5t234 82.5q149 0 248 -81q113 -92 113 -261q0 -165 -101 -267t-261 -102t-254.5 98.5t-94.5 263.5z" />
    <glyph glyph-name="Thorn" unicode="&#x42e;" horiz-adv-x="1017" 
d="M824 566q-36 47 -87 72t-108 25q-123 0 -193.5 -91t-70.5 -245q0 -147 75 -231q70 -78 180 -78q121 0 195 103q67 94 67 225q0 69 -12 121t-46 99zM268 347h-89l3 -217l4 -108l2 -22q-10 0 -26.5 2.5t-19.5 2.5q-11 0 -30 -2.5t-23 -2.5l2 22l4 79l4 234v38v206l-5 106
q8 0 25 -2t26 -2l46 3l-2 -27l-4 -91l-5 -174l47 -2l43 2q17 139 114 221.5t234 82.5q149 0 248 -81q113 -92 113 -261q0 -165 -101 -267t-261 -102t-254.5 98.5t-94.5 263.5z" />
    <glyph glyph-name="germandbls" unicode="&#xdf;" horiz-adv-x="611" 
d="M435 369l-1 235l-3 40h-34t-38 1q-48 0 -73 -5q-110 -28 -110 -136q0 -57 35 -91t93 -41q11 -1 39 -2t68 -1h24zM429 681l98 3l-3 -27l-9 -326l3 -225l5 -106q-9 0 -25 2.5t-20 2.5q-11 0 -30 -2.5t-23 -2.5l2 22l5 103l3 206h-47q-66 -88 -131.5 -176t-119.5 -158l-55 3
l-63 -3q79 92 148 177t123 159q-86 8 -139 47q-64 48 -64 129q0 78 59.5 125t172.5 47h110z" />
    <glyph glyph-name="germandbls" unicode="&#x42f;" horiz-adv-x="611" 
d="M435 369l-1 235l-3 40h-34t-38 1q-48 0 -73 -5q-110 -28 -110 -136q0 -57 35 -91t93 -41q11 -1 39 -2t68 -1h24zM429 681l98 3l-3 -27l-9 -326l3 -225l5 -106q-9 0 -25 2.5t-20 2.5q-11 0 -30 -2.5t-23 -2.5l2 22l5 103l3 206h-47q-66 -88 -131.5 -176t-119.5 -158l-55 3
l-63 -3q79 92 148 177t123 159q-86 8 -139 47q-64 48 -64 129q0 78 59.5 125t172.5 47h110z" />
    <glyph glyph-name="agrave" unicode="&#xe0;" horiz-adv-x="500" 
d="M101 370h-11v56q40 27 79 42t82 15q35 0 67.5 -11.5t57 -36.5t32.5 -56q5 -20 5 -66l-3 -120l-2 -72v-17q0 -33 5 -48q9 -25 33 -25q16 0 23 4v-22l-7 -3l-23 -7q-17 -3 -33 -3q-29 0 -47.5 14t-22.5 47l-9 -9q-63 -63 -148 -63q-55 0 -94 34t-39 88q0 33 15.5 64
t42 45.5t55.5 21t72 13.5q22 3 45.5 7.5t42.5 15.5q10 5 15 11q3 8 3 33q0 56 -30.5 87.5t-86.5 31.5q-32 0 -62 -15t-48 -42zM333 100l4 149l-9 -4l-30 -6q-87 -17 -110 -27q-60 -27 -60 -87q0 -46 26 -70t72 -24q20 0 41.5 10.5t39.5 26.5l18 21q4 3 8 11z" />
    <glyph glyph-name="agrave" unicode="&#x430;" horiz-adv-x="500" 
d="M101 370h-11v56q40 27 79 42t82 15q35 0 67.5 -11.5t57 -36.5t32.5 -56q5 -20 5 -66l-3 -120l-2 -72v-17q0 -33 5 -48q9 -25 33 -25q16 0 23 4v-22l-7 -3l-23 -7q-17 -3 -33 -3q-29 0 -47.5 14t-22.5 47l-9 -9q-63 -63 -148 -63q-55 0 -94 34t-39 88q0 33 15.5 64
t42 45.5t55.5 21t72 13.5q22 3 45.5 7.5t42.5 15.5q10 5 15 11q3 8 3 33q0 56 -30.5 87.5t-86.5 31.5q-32 0 -62 -15t-48 -42zM333 100l4 149l-9 -4l-30 -6q-87 -17 -110 -27q-60 -27 -60 -87q0 -46 26 -70t72 -24q20 0 41.5 10.5t39.5 26.5l18 21q4 3 8 11z" />
    <glyph glyph-name="aacute" unicode="&#xe1;" 
d="M521 237q0 -102 -63 -172q-69 -76 -187 -76q-104 0 -170 65t-66 176q0 208 72 319q54 84 168 131q50 21 113 42t74 26q0 -17 2.5 -38t6.5 -36q-21 -12 -66 -26.5t-72 -22.5q-133 -43 -189 -109q-48 -56 -60 -141q34 51 87 79.5t118 28.5q103 0 167.5 -67.5t64.5 -178.5z
M279 22q34 0 61.5 15.5t49.5 44.5q17 24 25.5 49t13 53.5t4.5 57.5q0 82 -30 137q-39 71 -115 71q-87 0 -129 -72q-35 -60 -35 -153q0 -86 34 -139q41 -64 121 -64z" />
    <glyph glyph-name="aacute" unicode="&#x431;" 
d="M521 237q0 -102 -63 -172q-69 -76 -187 -76q-104 0 -170 65t-66 176q0 208 72 319q54 84 168 131q50 21 113 42t74 26q0 -17 2.5 -38t6.5 -36q-21 -12 -66 -26.5t-72 -22.5q-133 -43 -189 -109q-48 -56 -60 -141q34 51 87 79.5t118 28.5q103 0 167.5 -67.5t64.5 -178.5z
M279 22q34 0 61.5 15.5t49.5 44.5q17 24 25.5 49t13 53.5t4.5 57.5q0 82 -30 137q-39 71 -115 71q-87 0 -129 -72q-35 -60 -35 -153q0 -86 34 -139q41 -64 121 -64z" />
    <glyph glyph-name="acircumflex" unicode="&#xe2;" horiz-adv-x="500" 
d="M371 136q0 53 -35.5 74.5t-99.5 21.5h-82q0 -33 1 -95t1 -97q15 -4 47.5 -4h59.5q46 0 77 28t31 72zM158 432l-3 -48l-1 -117h69q59 0 91.5 22t32.5 68q0 43 -28 60t-82 17h-40t-39 -2zM73 0q0 40 4 119t4 119q0 39 -2 85q-5 114 -5 143l-1 7q15 -3 36 -4t45 -1t50.5 0.5
t49.5 1.5q86 0 127.5 -22t41.5 -74q0 -47 -31 -78t-83 -43q53 0 94 -24q51 -30 51 -84q0 -71 -54.5 -108t-146.5 -37h-68.5t-66.5 1q-40 0 -45 -1z" />
    <glyph glyph-name="acircumflex" unicode="&#x432;" horiz-adv-x="500" 
d="M371 136q0 53 -35.5 74.5t-99.5 21.5h-82q0 -33 1 -95t1 -97q15 -4 47.5 -4h59.5q46 0 77 28t31 72zM158 432l-3 -48l-1 -117h69q59 0 91.5 22t32.5 68q0 43 -28 60t-82 17h-40t-39 -2zM73 0q0 40 4 119t4 119q0 39 -2 85q-5 114 -5 143l-1 7q15 -3 36 -4t45 -1t50.5 0.5
t49.5 1.5q86 0 127.5 -22t41.5 -74q0 -47 -31 -78t-83 -43q53 0 94 -24q51 -30 51 -84q0 -71 -54.5 -108t-146.5 -37h-68.5t-66.5 1q-40 0 -45 -1z" />
    <glyph glyph-name="atilde" unicode="&#xe3;" horiz-adv-x="407" 
d="M395 419q-52 6 -127 9.5t-113 3.5q0 -33 -1 -97t-1 -98q0 -38 3 -114t3 -113l1 -10l-44 3h-21t-22 -3q0 40 4 119t4 119q0 39 -2 85q-5 114 -5 143l-1 7q17 -2 41.5 -4.5t31.5 -2.5q77 3 131.5 5t117.5 2q-1 -8 -1 -16v-12q0 -17 1 -26z" />
    <glyph glyph-name="atilde" unicode="&#x433;" horiz-adv-x="407" 
d="M395 419q-52 6 -127 9.5t-113 3.5q0 -33 -1 -97t-1 -98q0 -38 3 -114t3 -113l1 -10l-44 3h-21t-22 -3q0 40 4 119t4 119q0 39 -2 85q-5 114 -5 143l-1 7q17 -2 41.5 -4.5t31.5 -2.5q77 3 131.5 5t117.5 2q-1 -8 -1 -16v-12q0 -17 1 -26z" />
    <glyph glyph-name="adieresis" unicode="&#xe4;" horiz-adv-x="500" 
d="M101 46q5 0 58 -2t81 -2q26 0 61 1t73 3l-13 40q-51 132 -116 279l-9 8q-17 -32 -41 -91l-28 -68zM462 42h35q-4 -15 -4 -35v-26q3 -14 4 -20h-10q-25 26 -62.5 35t-99.5 9l-74 1l-76 -1q-64 0 -99 -8t-62 -36h-11q3 23 3 41q0 22 -3 40h39q21 44 55.5 118.5t64 143
t41.5 98.5q20 50 28 72q18 -2 25 -2h12q8 2 12 2l40 -104q10 -24 34 -82z" />
    <glyph glyph-name="adieresis" unicode="&#x434;" horiz-adv-x="500" 
d="M101 46q5 0 58 -2t81 -2q26 0 61 1t73 3l-13 40q-51 132 -116 279l-9 8q-17 -32 -41 -91l-28 -68zM462 42h35q-4 -15 -4 -35v-26q3 -14 4 -20h-10q-25 26 -62.5 35t-99.5 9l-74 1l-76 -1q-64 0 -99 -8t-62 -36h-11q3 23 3 41q0 22 -3 40h39q21 44 55.5 118.5t64 143
t41.5 98.5q20 50 28 72q18 -2 25 -2h12q8 2 12 2l40 -104q10 -24 34 -82z" />
    <glyph glyph-name="aring" unicode="&#xe5;" horiz-adv-x="500" 
d="M468 279l-2 -39l-203 3l-143 -3q0 -90 42 -147q47 -63 133 -63q35 0 74.5 17.5t64.5 42.5q4 6 14 7l-6 -50q-39 -28 -82 -43.5t-90 -15.5q-19 0 -35 3q-24 6 -35 8q-37 8 -72.5 34t-56 58.5t-29 67.5t-8.5 76q0 50 16 99t46.5 81.5t75.5 50t91 17.5q97 0 151 -54t54 -150
zM388 280q0 74 -25 116q-32 54 -100 54q-67 0 -106 -54q-35 -48 -35 -116l131 -3z" />
    <glyph glyph-name="aring" unicode="&#x435;" horiz-adv-x="500" 
d="M468 279l-2 -39l-203 3l-143 -3q0 -90 42 -147q47 -63 133 -63q35 0 74.5 17.5t64.5 42.5q4 6 14 7l-6 -50q-39 -28 -82 -43.5t-90 -15.5q-19 0 -35 3q-24 6 -35 8q-37 8 -72.5 34t-56 58.5t-29 67.5t-8.5 76q0 50 16 99t46.5 81.5t75.5 50t91 17.5q97 0 151 -54t54 -150
zM388 280q0 74 -25 116q-32 54 -100 54q-67 0 -106 -54q-35 -48 -35 -116l131 -3z" />
    <glyph glyph-name="ae" unicode="&#xe6;" horiz-adv-x="722" 
d="M320 0l4 107l1 94v20q0 20 -4 20t-9 -6t-10 -13l-49 -57l-51 -61l-33 -37q-4 -4 -18.5 -21.5t-34.5 -45.5q-20 3 -40 3h-13h-24t-25 -3v7l30 37l46 52l46 50q56 64 113 129l-67 62l-33 28l-120 100v7q7 -1 21.5 -2t26.5 -1l22 2l9 1l78 -83l62 -63q19 -20 38 -39
q26 -25 35 -20q3 1 3 23v19q0 39 -2 82t-2 82q6 -1 23 -2t18 -1h21q13 2 20 3q0 -39 -2 -82t-2 -82q0 -40 3 -42q7 -4 23.5 10.5t49.5 48.5l62 63l78 83l9 -1l22 -2h12q18 0 36 3v-7l-120 -100l-33 -28l-67 -62q26 -28 57 -64q28 -33 56 -65l46 -50l46 -52l30 -37v-7
q-18 3 -37 3h-12h-25.5t-27.5 -3q-13 17 -24 32t-29 35l-33 37l-51 61l-49 57q-6 7 -8 10q-7 9 -11 9t-4 -29v-11l1 -94l4 -107q-11 2 -19 2.5t-22 0.5q-13 0 -22.5 -1t-18.5 -2z" />
    <glyph glyph-name="ae" unicode="&#x436;" horiz-adv-x="722" 
d="M320 0l4 107l1 94v20q0 20 -4 20t-9 -6t-10 -13l-49 -57l-51 -61l-33 -37q-4 -4 -18.5 -21.5t-34.5 -45.5q-20 3 -40 3h-13h-24t-25 -3v7l30 37l46 52l46 50q56 64 113 129l-67 62l-33 28l-120 100v7q7 -1 21.5 -2t26.5 -1l22 2l9 1l78 -83l62 -63q19 -20 38 -39
q26 -25 35 -20q3 1 3 23v19q0 39 -2 82t-2 82q6 -1 23 -2t18 -1h21q13 2 20 3q0 -39 -2 -82t-2 -82q0 -40 3 -42q7 -4 23.5 10.5t49.5 48.5l62 63l78 83l9 -1l22 -2h12q18 0 36 3v-7l-120 -100l-33 -28l-67 -62q26 -28 57 -64q28 -33 56 -65l46 -50l46 -52l30 -37v-7
q-18 3 -37 3h-12h-25.5t-27.5 -3q-13 17 -24 32t-29 35l-33 37l-51 61l-49 57q-6 7 -8 10q-7 9 -11 9t-4 -29v-11l1 -94l4 -107q-11 2 -19 2.5t-22 0.5q-13 0 -22.5 -1t-18.5 -2z" />
    <glyph glyph-name="ccedilla" unicode="&#xe7;" horiz-adv-x="425" 
d="M376 139q0 -62 -53 -106.5t-144 -44.5q-75 0 -146 51v45h5q30 -30 65 -44.5t69 -14.5q52 0 86 29.5t34 81.5q0 46 -28 70q-31 27 -95 27l-35 -2v37l33 -2q50 0 77 28t27 68q0 41 -27.5 63.5t-68.5 22.5q-38 0 -71.5 -19.5t-49.5 -55.5l-10 1q1 5 1 18q0 10 -1 30.5
t-1 27.5q66 30 148 30q69 0 111 -25q48 -29 48 -82q0 -41 -27.5 -72.5t-80.5 -48.5q66 0 100 -32t34 -81z" />
    <glyph glyph-name="ccedilla" unicode="&#x437;" horiz-adv-x="425" 
d="M376 139q0 -62 -53 -106.5t-144 -44.5q-75 0 -146 51v45h5q30 -30 65 -44.5t69 -14.5q52 0 86 29.5t34 81.5q0 46 -28 70q-31 27 -95 27l-35 -2v37l33 -2q50 0 77 28t27 68q0 41 -27.5 63.5t-68.5 22.5q-38 0 -71.5 -19.5t-49.5 -55.5l-10 1q1 5 1 18q0 10 -1 30.5
t-1 27.5q66 30 148 30q69 0 111 -25q48 -29 48 -82q0 -41 -27.5 -72.5t-80.5 -48.5q66 0 100 -32t34 -81z" />
    <glyph glyph-name="egrave" unicode="&#xe8;" 
d="M154 119q64 72 144 172q86 107 141 184h43q0 -40 -4 -119t-4 -119q0 -39 3.5 -119t3.5 -108l1 -10l-44 3h-21t-22 -3q0 48 3.5 131t3.5 107l-1 115l-2 -8q-67 -75 -98 -112q-46 -54 -97 -118.5t-87 -117.5h-44q0 46 2 90q6 132 6 151q0 39 -2 85q-5 114 -5 143l-1 7
q7 -1 21.5 -2t27.5 -1h24q10 2 14 3q0 -41 -2 -88q-5 -118 -5 -148z" />
    <glyph glyph-name="egrave" unicode="&#x438;" 
d="M154 119q64 72 144 172q86 107 141 184h43q0 -40 -4 -119t-4 -119q0 -39 3.5 -119t3.5 -108l1 -10l-44 3h-21t-22 -3q0 48 3.5 131t3.5 107l-1 115l-2 -8q-67 -75 -98 -112q-46 -54 -97 -118.5t-87 -117.5h-44q0 46 2 90q6 132 6 151q0 39 -2 85q-5 114 -5 143l-1 7
q7 -1 21.5 -2t27.5 -1h24q10 2 14 3q0 -41 -2 -88q-5 -118 -5 -148z" />
    <glyph glyph-name="eacute" unicode="&#xe9;" 
d="M436 624q-22 -47 -61.5 -74.5t-96.5 -27.5q-53 0 -92.5 29t-57.5 72l23 17q42 -70 130 -70q44 0 77 18t54 52zM154 119q64 72 144 172q86 107 141 184h43q0 -40 -4 -119t-4 -119q0 -39 3.5 -119t3.5 -108l1 -10l-44 3h-21t-22 -3q0 48 3.5 131t3.5 107l-1 115l-2 -8
q-67 -75 -98 -112q-46 -54 -97 -118.5t-87 -117.5h-44q0 46 2 90q6 132 6 151q0 39 -2 85q-5 114 -5 143l-1 7q7 -1 21.5 -2t27.5 -1h24q10 2 14 3q0 -41 -2 -88q-5 -118 -5 -148z" />
    <glyph glyph-name="eacute" unicode="&#x439;" 
d="M436 624q-22 -47 -61.5 -74.5t-96.5 -27.5q-53 0 -92.5 29t-57.5 72l23 17q42 -70 130 -70q44 0 77 18t54 52zM154 119q64 72 144 172q86 107 141 184h43q0 -40 -4 -119t-4 -119q0 -39 3.5 -119t3.5 -108l1 -10l-44 3h-21t-22 -3q0 48 3.5 131t3.5 107l-1 115l-2 -8
q-67 -75 -98 -112q-46 -54 -97 -118.5t-87 -117.5h-44q0 46 2 90q6 132 6 151q0 39 -2 85q-5 114 -5 143l-1 7q7 -1 21.5 -2t27.5 -1h24q10 2 14 3q0 -41 -2 -88q-5 -118 -5 -148z" />
    <glyph glyph-name="ecircumflex" unicode="&#xea;" horiz-adv-x="500" 
d="M164 267q11 -6 33 10q16 11 54 49l62 63l78 83l9 -1l22 -2h12q18 0 36 3v-7l-120 -100l-33 -28l-67 -62q26 -28 57 -64q28 -33 56 -65l46 -50l46 -52l30 -37v-7q-18 3 -37 3h-12h-25.5t-27.5 -3q-13 17 -24 32t-29 35l-33 37l-51 61l-51 57l-19 20q-8 3 -11 3t-8 -3
q-2 -6 -2 -20v-21v-94l4 -81v-26l-8 1l-22 2h-27.5t-25.5 -3l1 26l3 81l2 131q0 20 1 60t1 60q0 58 -7 108l-1 7q7 -1 21 -2t26 -1h24q10 2 14 3q0 -39 -3 -82t-3 -82q0 -12 0.5 -22t8.5 -20z" />
    <glyph glyph-name="ecircumflex" unicode="&#x43a;" horiz-adv-x="500" 
d="M164 267q11 -6 33 10q16 11 54 49l62 63l78 83l9 -1l22 -2h12q18 0 36 3v-7l-120 -100l-33 -28l-67 -62q26 -28 57 -64q28 -33 56 -65l46 -50l46 -52l30 -37v-7q-18 3 -37 3h-12h-25.5t-27.5 -3q-13 17 -24 32t-29 35l-33 37l-51 61l-51 57l-19 20q-8 3 -11 3t-8 -3
q-2 -6 -2 -20v-21v-94l4 -81v-26l-8 1l-22 2h-27.5t-25.5 -3l1 26l3 81l2 131q0 20 1 60t1 60q0 58 -7 108l-1 7q7 -1 21 -2t26 -1h24q10 2 14 3q0 -39 -3 -82t-3 -82q0 -12 0.5 -22t8.5 -20z" />
    <glyph glyph-name="edieresis" unicode="&#xeb;" horiz-adv-x="481" 
d="M75 0l-32 3l-32 -3q15 27 58.5 121t82.5 183q29 68 41 98q20 50 28 72q18 -2 25 -2h12q8 2 12 2l40 -104q10 -24 34 -82q33 -78 66 -152q38 -85 62 -136l-45 3l-49 -3q-1 1 -12 41q-7 25 -15 45q-51 132 -116 279l-9 8q-17 -32 -41 -91l-28 -68q-25 -61 -48 -121.5
t-34 -92.5z" />
    <glyph glyph-name="edieresis" unicode="&#x43b;" horiz-adv-x="481" 
d="M75 0l-32 3l-32 -3q15 27 58.5 121t82.5 183q29 68 41 98q20 50 28 72q18 -2 25 -2h12q8 2 12 2l40 -104q10 -24 34 -82q33 -78 66 -152q38 -85 62 -136l-45 3l-49 -3q-1 1 -12 41q-7 25 -15 45q-51 132 -116 279l-9 8q-17 -32 -41 -91l-28 -68q-25 -61 -48 -121.5
t-34 -92.5z" />
    <glyph glyph-name="igrave" unicode="&#xec;" horiz-adv-x="667" 
d="M100 474h31q33 -68 45 -92q23 -46 50 -94q33 -61 59 -103q21 -34 53 -83q15 25 51 91q51 93 61 111q48 90 85 170h31q0 -40 7 -99t10 -89q8 -66 20 -154.5t18 -131.5l-44 3l-44 -3q0 72 -4 125t-23 198q-17 -27 -35 -56t-32 -54q-59 -103 -111 -213h-27q-8 19 -21 46
t-36 70q-32 57 -61 106q-20 33 -62 101q-16 -113 -21 -152q-13 -96 -13 -171q-9 2 -15.5 2.5t-9.5 0.5l-28 -3q11 49 24 132q9 56 23 170z" />
    <glyph glyph-name="igrave" unicode="&#x43c;" horiz-adv-x="667" 
d="M100 474h31q33 -68 45 -92q23 -46 50 -94q33 -61 59 -103q21 -34 53 -83q15 25 51 91q51 93 61 111q48 90 85 170h31q0 -40 7 -99t10 -89q8 -66 20 -154.5t18 -131.5l-44 3l-44 -3q0 72 -4 125t-23 198q-17 -27 -35 -56t-32 -54q-59 -103 -111 -213h-27q-8 19 -21 46
t-36 70q-32 57 -61 106q-20 33 -62 101q-16 -113 -21 -152q-13 -96 -13 -171q-9 2 -15.5 2.5t-9.5 0.5l-28 -3q11 49 24 132q9 56 23 170z" />
    <glyph glyph-name="iacute" unicode="&#xed;" 
d="M153 271l125 -3l124 3q0 32 -3 97t-3 98l-1 7q7 -1 21.5 -2t27.5 -1h24q10 2 14 3q0 -39 -4 -118t-4 -118t3.5 -119t3.5 -108l1 -10l-44 3h-21t-22 -3q0 46 3.5 126.5t3.5 103.5l-124 3l-125 -3q0 -37 3 -110t3 -110l1 -10l-44 3h-21t-22 -3q0 40 4 119t4 119q0 39 -2 85
q-5 114 -5 143l-1 7q7 -1 21.5 -2t27.5 -1h24q10 2 14 3q0 -40 -3.5 -111t-3.5 -91z" />
    <glyph glyph-name="iacute" unicode="&#x43d;" 
d="M153 271l125 -3l124 3q0 32 -3 97t-3 98l-1 7q7 -1 21.5 -2t27.5 -1h24q10 2 14 3q0 -39 -4 -118t-4 -118t3.5 -119t3.5 -108l1 -10l-44 3h-21t-22 -3q0 46 3.5 126.5t3.5 103.5l-124 3l-125 -3q0 -37 3 -110t3 -110l1 -10l-44 3h-21t-22 -3q0 40 4 119t4 119q0 39 -2 85
q-5 114 -5 143l-1 7q7 -1 21.5 -2t27.5 -1h24q10 2 14 3q0 -40 -3.5 -111t-3.5 -91z" />
    <glyph glyph-name="icircumflex" unicode="&#xee;" 
d="M34 240q0 109 72 176t182 67q106 0 173 -76q30 -34 44.5 -78t14.5 -92q0 -73 -35 -132.5t-90.5 -87.5t-124.5 -28q-22 0 -52 6t-52.5 16t-38.5 22t-36 34q-33 37 -45 77t-12 96zM278 22q34 0 61.5 15.5t49.5 44.5q17 24 25.5 49t13 53.5t4.5 57.5q0 82 -30 137
q-39 71 -115 71q-87 0 -129 -72q-35 -60 -35 -153q0 -86 34 -139q41 -64 121 -64z" />
    <glyph glyph-name="icircumflex" unicode="&#x43e;" 
d="M34 240q0 109 72 176t182 67q106 0 173 -76q30 -34 44.5 -78t14.5 -92q0 -73 -35 -132.5t-90.5 -87.5t-124.5 -28q-22 0 -52 6t-52.5 16t-38.5 22t-36 34q-33 37 -45 77t-12 96zM278 22q34 0 61.5 15.5t49.5 44.5q17 24 25.5 49t13 53.5t4.5 57.5q0 82 -30 137
q-39 71 -115 71q-87 0 -129 -72q-35 -60 -35 -153q0 -86 34 -139q41 -64 121 -64z" />
    <glyph glyph-name="idieresis" unicode="&#xef;" 
d="M278 466q60 3 105 5t99 2q0 -39 -4 -118t-4 -118t3.5 -119t3.5 -108l1 -10l-44 3h-21t-22 -3q0 48 3.5 131t3.5 107q0 31 -1 94.5t-1 95.5l-122 3l-121 -3q0 -33 -2 -109.5t-2 -81.5q0 -38 3 -114t3 -113l1 -10l-44 3h-21t-22 -3q0 40 4 119t4 119q0 39 -2 85
q-5 114 -5 143l-1 7q65 0 115 -2.5z" />
    <glyph glyph-name="idieresis" unicode="&#x43f;" 
d="M278 466q60 3 105 5t99 2q0 -39 -4 -118t-4 -118t3.5 -119t3.5 -108l1 -10l-44 3h-21t-22 -3q0 48 3.5 131t3.5 107q0 31 -1 94.5t-1 95.5l-122 3l-121 -3q0 -33 -2 -109.5t-2 -81.5q0 -38 3 -114t3 -113l1 -10l-44 3h-21t-22 -3q0 40 4 119t4 119q0 39 -2 85
q-5 114 -5 143l-1 7q65 0 115 -2.5z" />
    <glyph glyph-name="eth" unicode="&#xf0;" 
d="M146 69v-61v-90l3 -122l-10 1q-13 2 -21 2.5t-18 0.5q-6 0 -20 -2q-6 0 -10.5 -1t-4.5 5l3 36l2 60l3 87v488l10 -1l18 -2h11q17 0 34 3v-95l4 7l14 24q34 41 67.5 58.5t85.5 17.5q93 0 149 -69q52 -64 52 -160q0 -59 -11 -101.5t-42 -82.5q-59 -78 -163 -78
q-53 0 -91 23.5t-65 71.5v-20zM431 250q0 37 -7.5 73t-23.5 63.5t-46 44.5t-62 17q-78 0 -116 -76q-30 -60 -30 -147q0 -45 14 -94q6 -22 20.5 -43t33 -34t36.5 -17t43 -4q38 0 68 22.5t47 59.5q10 22 16.5 63.5t6.5 71.5z" />
    <glyph glyph-name="eth" unicode="&#x440;" 
d="M146 69v-61v-90l3 -122l-10 1q-13 2 -21 2.5t-18 0.5q-6 0 -20 -2q-6 0 -10.5 -1t-4.5 5l3 36l2 60l3 87v488l10 -1l18 -2h11q17 0 34 3v-95l4 7l14 24q34 41 67.5 58.5t85.5 17.5q93 0 149 -69q52 -64 52 -160q0 -59 -11 -101.5t-42 -82.5q-59 -78 -163 -78
q-53 0 -91 23.5t-65 71.5v-20zM431 250q0 37 -7.5 73t-23.5 63.5t-46 44.5t-62 17q-78 0 -116 -76q-30 -60 -30 -147q0 -45 14 -94q6 -22 20.5 -43t33 -34t36.5 -17t43 -4q38 0 68 22.5t47 59.5q10 22 16.5 63.5t6.5 71.5z" />
    <glyph glyph-name="ntilde" unicode="&#xf1;" horiz-adv-x="481" 
d="M451 439l-23 -66h-8q-6 8 -13 17.5t-14 15.5q-17 19 -44.5 30.5t-54.5 11.5q-82 0 -130 -64q-44 -59 -44 -143q0 -41 11.5 -80.5t35.5 -70t60.5 -48t76.5 -17.5q42 0 71.5 14.5t66.5 47.5l6 -3l-5 -46q-68 -50 -153 -50q-81 0 -136 28q-61 31 -95 100q-13 26 -19 57.5
t-6 62.5q0 114 72 179t187 65q46 0 84 -9.5t74 -31.5z" />
    <glyph glyph-name="ntilde" unicode="&#x441;" horiz-adv-x="481" 
d="M451 439l-23 -66h-8q-6 8 -13 17.5t-14 15.5q-17 19 -44.5 30.5t-54.5 11.5q-82 0 -130 -64q-44 -59 -44 -143q0 -41 11.5 -80.5t35.5 -70t60.5 -48t76.5 -17.5q42 0 71.5 14.5t66.5 47.5l6 -3l-5 -46q-68 -50 -153 -50q-81 0 -136 28q-61 31 -95 100q-13 26 -19 57.5
t-6 62.5q0 114 72 179t187 65q46 0 84 -9.5t74 -31.5z" />
    <glyph glyph-name="ograve" unicode="&#xf2;" horiz-adv-x="444" 
d="M183 432q-24 0 -68 -3t-105 -10q2 18 2 26v13q-2 10 -2 15q185 -7 212 -7q45 3 94 5t118 2q-1 -8 -1 -16v-12q0 -17 1 -26q-56 6 -101.5 9.5t-72.5 3.5q0 -33 -1 -97t-1 -98q0 -38 3 -114t3 -113l1 -10l-44 3h-21t-22 -3q0 40 4 119t4 119q0 48 -1 96.5t-2 97.5z" />
    <glyph glyph-name="ograve" unicode="&#x442;" horiz-adv-x="444" 
d="M183 432q-24 0 -68 -3t-105 -10q2 18 2 26v13q-2 10 -2 15q185 -7 212 -7q45 3 94 5t118 2q-1 -8 -1 -16v-12q0 -17 1 -26q-56 6 -101.5 9.5t-72.5 3.5q0 -33 -1 -97t-1 -98q0 -38 3 -114t3 -113l1 -10l-44 3h-21t-22 -3q0 40 4 119t4 119q0 48 -1 96.5t-2 97.5z" />
    <glyph glyph-name="oacute" unicode="&#xf3;" horiz-adv-x="500" 
d="M118 -204l48 83l41 79l17 35l4 8l-13 34l-188 438l33 -3h25l37 2l8 -26l51 -134l84 -201l8 -7l12 26l33 75l40 103l61 165l30 -3l35 3l-236 -522l-62 -155l-30 4q-9 0 -20.5 -1.5t-17.5 -2.5z" />
    <glyph glyph-name="oacute" unicode="&#x443;" horiz-adv-x="500" 
d="M118 -204l48 83l41 79l17 35l4 8l-13 34l-188 438l33 -3h25l37 2l8 -26l51 -134l84 -201l8 -7l12 26l33 75l40 103l61 165l30 -3l35 3l-236 -522l-62 -155l-30 4q-9 0 -20.5 -1.5t-17.5 -2.5z" />
    <glyph glyph-name="ocircumflex" unicode="&#xf4;" horiz-adv-x="778" 
d="M244 440q-69 0 -98 -73q-22 -55 -22 -150q0 -77 23 -128q29 -64 87 -64q59 0 91 77q26 63 26 147q0 73 -25 127q-29 64 -82 64zM534 30q69 0 98 73q22 55 22 150q0 77 -23 128q-29 64 -87 64q-59 0 -91 -77q-26 -63 -26 -147q0 -74 24 -127q29 -64 83 -64zM351 650l-3 91
l-1 7l13 -3h62l13 3l-1 -27l-7 -221l-1 -123q24 53 57 78.5t83 25.5q77 0 124 -59q52 -65 52 -183q0 -106 -52.5 -178t-135.5 -72q-45 0 -76 25t-52 72l1 -76v-92l3 -122l-10 1q-13 2 -21 2.5t-18 0.5q-6 0 -20 -2q-6 0 -10.5 -1t-4.5 5l3 36l2 60l1 195q-24 -53 -57 -78.5
t-83 -25.5q-77 0 -124 59q-52 65 -52 183q0 106 52.5 178t135.5 72q45 0 76 -25t52 -72z" />
    <glyph glyph-name="ocircumflex" unicode="&#x444;" horiz-adv-x="778" 
d="M244 440q-69 0 -98 -73q-22 -55 -22 -150q0 -77 23 -128q29 -64 87 -64q59 0 91 77q26 63 26 147q0 73 -25 127q-29 64 -82 64zM534 30q69 0 98 73q22 55 22 150q0 77 -23 128q-29 64 -87 64q-59 0 -91 -77q-26 -63 -26 -147q0 -74 24 -127q29 -64 83 -64zM351 650l-3 91
l-1 7l13 -3h62l13 3l-1 -27l-7 -221l-1 -123q24 53 57 78.5t83 25.5q77 0 124 -59q52 -65 52 -183q0 -106 -52.5 -178t-135.5 -72q-45 0 -76 25t-52 72l1 -76v-92l3 -122l-10 1q-13 2 -21 2.5t-18 0.5q-6 0 -20 -2q-6 0 -10.5 -1t-4.5 5l3 36l2 60l1 195q-24 -53 -57 -78.5
t-83 -25.5q-77 0 -124 59q-52 65 -52 183q0 106 52.5 178t135.5 72q45 0 76 -25t52 -72z" />
    <glyph glyph-name="otilde" unicode="&#xf5;" horiz-adv-x="500" 
d="M392 390l-63 -72l-48 -58l187 -253v-7q-18 3 -37 3h-13h-22.5t-23.5 -3l-51 78l-88 125l-56 -78l-50 -71l-36 -54l-28 3h-17t-17 -3v7l15 18l57 69l108 139l-180 240l8 -1l45 -2l49 3l50 -77l43 -60l34 -47l56 72l82 112l33 -3h18l18 3z" />
    <glyph glyph-name="otilde" unicode="&#x445;" horiz-adv-x="500" 
d="M392 390l-63 -72l-48 -58l187 -253v-7q-18 3 -37 3h-13h-22.5t-23.5 -3l-51 78l-88 125l-56 -78l-50 -71l-36 -54l-28 3h-17t-17 -3v7l15 18l57 69l108 139l-180 240l8 -1l45 -2l49 3l50 -77l43 -60l34 -47l56 72l82 112l33 -3h18l18 3z" />
    <glyph glyph-name="odieresis" unicode="&#xf6;" 
d="M278 6l-205 -6q0 40 4 119t4 119q0 39 -2 85q-5 114 -5 143l-1 7q7 -1 21.5 -2t27.5 -1h24q10 2 14 3q0 -41 -2 -88q-5 -118 -5 -148q0 -33 2 -110t2 -81q21 0 61 -2t60 -2t68.5 2t50.5 2q0 45 2.5 113.5t2.5 78.5q0 38 -3 114t-3 114l-1 7q7 -1 21.5 -2t27.5 -1h24
q10 2 14 3q0 -39 -4 -118t-4 -118q0 -41 2.5 -111t2.5 -84h51q-4 -15 -4 -35v-26q3 -14 4 -20h-10q-25 26 -62.5 35t-99.5 9z" />
    <glyph glyph-name="odieresis" unicode="&#x446;" 
d="M278 6l-205 -6q0 40 4 119t4 119q0 39 -2 85q-5 114 -5 143l-1 7q7 -1 21.5 -2t27.5 -1h24q10 2 14 3q0 -41 -2 -88q-5 -118 -5 -148q0 -33 2 -110t2 -81q21 0 61 -2t60 -2t68.5 2t50.5 2q0 45 2.5 113.5t2.5 78.5q0 38 -3 114t-3 114l-1 7q7 -1 21.5 -2t27.5 -1h24
q10 2 14 3q0 -39 -4 -118t-4 -118q0 -41 2.5 -111t2.5 -84h51q-4 -15 -4 -35v-26q3 -14 4 -20h-10q-25 26 -62.5 35t-99.5 9z" />
    <glyph glyph-name="divide" unicode="&#xf7;" horiz-adv-x="519" 
d="M49 466l-1 7q7 -1 21.5 -2t27.5 -1h24q10 2 14 3q0 -45 -1 -87t-4 -84q0 -37 25 -56t65 -19q36 0 72.5 10t68.5 31q0 32 -3 98t-3 100l-1 7q7 -1 21.5 -2t27.5 -1h24q10 2 14 3q0 -39 -4 -118t-4 -118t3.5 -119t3.5 -108l1 -10l-44 3h-21t-22 -3q0 28 5 144q2 46 2 87
q-33 -22 -76 -35t-85 -13q-64 0 -104 26q-44 29 -44 84q1 14 1.5 33t0.5 46v12q0 22 -1 44t-4 38z" />
    <glyph glyph-name="divide" unicode="&#x447;" horiz-adv-x="519" 
d="M49 466l-1 7q7 -1 21.5 -2t27.5 -1h24q10 2 14 3q0 -45 -1 -87t-4 -84q0 -37 25 -56t65 -19q36 0 72.5 10t68.5 31q0 32 -3 98t-3 100l-1 7q7 -1 21.5 -2t27.5 -1h24q10 2 14 3q0 -39 -4 -118t-4 -118t3.5 -119t3.5 -108l1 -10l-44 3h-21t-22 -3q0 28 5 144q2 46 2 87
q-33 -22 -76 -35t-85 -13q-64 0 -104 26q-44 29 -44 84q1 14 1.5 33t0.5 46v12q0 22 -1 44t-4 38z" />
    <glyph glyph-name="oslash" unicode="&#xf8;" horiz-adv-x="722" 
d="M323 46q0 32 1 95t1 97q0 38 -3 114t-3 114l-1 7q7 -1 21.5 -2t27.5 -1h24q10 2 14 3q0 -39 -4 -118t-4 -118q0 -49 1.5 -119t1.5 -72q13 0 47.5 -2t38.5 -2q26 0 44 1t34 2q0 44 2.5 113t2.5 80q0 38 -3 114t-3 114l-1 7q7 -1 21.5 -2t27.5 -1h24q10 2 14 3
q0 -39 -4 -118t-4 -118t3.5 -119t3.5 -108l1 -10q-89 0 -149.5 1.5t-138.5 4.5q-44 0 -81 -1q-185 -5 -207 -5q0 40 4 119t4 119q0 39 -2 85q-5 114 -5 143l-1 7q7 -1 21.5 -2t27.5 -1h24q10 2 14 3q0 -41 -2 -88q-5 -118 -5 -148q0 -33 2 -110.5t2 -81.5q22 0 42.5 -1
t39.5 -2q14 0 43 2t41 2z" />
    <glyph glyph-name="oslash" unicode="&#x448;" horiz-adv-x="722" 
d="M323 46q0 32 1 95t1 97q0 38 -3 114t-3 114l-1 7q7 -1 21.5 -2t27.5 -1h24q10 2 14 3q0 -39 -4 -118t-4 -118q0 -49 1.5 -119t1.5 -72q13 0 47.5 -2t38.5 -2q26 0 44 1t34 2q0 44 2.5 113t2.5 80q0 38 -3 114t-3 114l-1 7q7 -1 21.5 -2t27.5 -1h24q10 2 14 3
q0 -39 -4 -118t-4 -118t3.5 -119t3.5 -108l1 -10q-89 0 -149.5 1.5t-138.5 4.5q-44 0 -81 -1q-185 -5 -207 -5q0 40 4 119t4 119q0 39 -2 85q-5 114 -5 143l-1 7q7 -1 21.5 -2t27.5 -1h24q10 2 14 3q0 -41 -2 -88q-5 -118 -5 -148q0 -33 2 -110.5t2 -81.5q22 0 42.5 -1
t39.5 -2q14 0 43 2t41 2z" />
    <glyph glyph-name="ugrave" unicode="&#xf9;" horiz-adv-x="722" 
d="M361 6q-44 0 -81 -1q-185 -5 -207 -5q0 40 4 119t4 119q0 39 -2 85q-5 114 -5 143l-1 7q7 -1 21.5 -2t27.5 -1h24q10 2 14 3q0 -41 -2 -88q-5 -118 -5 -148q0 -33 2 -110.5t2 -81.5q22 0 42.5 -1t39.5 -2q14 0 43 2t41 2q0 32 1 95t1 97q0 38 -3 114t-3 114l-1 7
q7 -1 21.5 -2t27.5 -1h24q10 2 14 3q0 -39 -4 -118t-4 -118q0 -49 1.5 -119t1.5 -72q13 0 47.5 -2t38.5 -2q26 0 44 1t34 2q0 44 2.5 113t2.5 80q0 38 -3 114t-3 114l-1 7q7 -1 21.5 -2t27.5 -1h24q10 2 14 3q0 -39 -4 -118t-4 -118q0 -41 2.5 -111t2.5 -84h50
q-4 -15 -4 -35v-26q3 -14 4 -20h-10q-26 27 -62 35t-100 8q-27 0 -81 1t-82 1z" />
    <glyph glyph-name="ugrave" unicode="&#x449;" horiz-adv-x="722" 
d="M361 6q-44 0 -81 -1q-185 -5 -207 -5q0 40 4 119t4 119q0 39 -2 85q-5 114 -5 143l-1 7q7 -1 21.5 -2t27.5 -1h24q10 2 14 3q0 -41 -2 -88q-5 -118 -5 -148q0 -33 2 -110.5t2 -81.5q22 0 42.5 -1t39.5 -2q14 0 43 2t41 2q0 32 1 95t1 97q0 38 -3 114t-3 114l-1 7
q7 -1 21.5 -2t27.5 -1h24q10 2 14 3q0 -39 -4 -118t-4 -118q0 -49 1.5 -119t1.5 -72q13 0 47.5 -2t38.5 -2q26 0 44 1t34 2q0 44 2.5 113t2.5 80q0 38 -3 114t-3 114l-1 7q7 -1 21.5 -2t27.5 -1h24q10 2 14 3q0 -39 -4 -118t-4 -118q0 -41 2.5 -111t2.5 -84h50
q-4 -15 -4 -35v-26q3 -14 4 -20h-10q-26 27 -62 35t-100 8q-27 0 -81 1t-82 1z" />
    <glyph glyph-name="uacute" unicode="&#xfa;" horiz-adv-x="463" 
d="M157 38q11 0 34 -1t38 -1q54 0 86.5 26t32.5 73q0 52 -34 77q-28 20 -76 20l-83 -4l-2 -92q0 -35 1 -59.5t3 -38.5zM77 430q-12 0 -22.5 -2t-44.5 -9q2 9 2 25q0 17 -2 29q45 -4 84 -4l67 4q0 -36 -3.5 -99t-3.5 -88l1 -18h107q78 0 120 -28q49 -32 49 -99
q0 -40 -23.5 -72.5t-63.5 -51.5q-18 -8 -42.5 -12.5t-47.5 -4.5l-109 2l-72 -2q0 40 4 119t4 119q0 33 -2 110t-2 82z" />
    <glyph glyph-name="uacute" unicode="&#x44a;" horiz-adv-x="463" 
d="M157 38q11 0 34 -1t38 -1q54 0 86.5 26t32.5 73q0 52 -34 77q-28 20 -76 20l-83 -4l-2 -92q0 -35 1 -59.5t3 -38.5zM77 430q-12 0 -22.5 -2t-44.5 -9q2 9 2 25q0 17 -2 29q45 -4 84 -4l67 4q0 -36 -3.5 -99t-3.5 -88l1 -18h107q78 0 120 -28q49 -32 49 -99
q0 -40 -23.5 -72.5t-63.5 -51.5q-18 -8 -42.5 -12.5t-47.5 -4.5l-109 2l-72 -2q0 40 4 119t4 119q0 33 -2 110t-2 82z" />
    <glyph glyph-name="ucircumflex" unicode="&#xfb;" horiz-adv-x="648" 
d="M486 466l-1 7q7 -1 21.5 -2t27.5 -1h24q10 2 14 3q0 -58 -2 -110t-4 -126q0 -49 2.5 -130.5t2.5 -96.5l1 -10l-44 3h-21t-22 -3q0 40 3 119t3 119q0 49 -2.5 130.5t-2.5 97.5zM157 38q20 0 43 -1t29 -1q54 0 86.5 26t32.5 73q0 52 -34 77q-28 20 -76 20l-83 -4l-2 -92
q0 -35 1 -59.5t3 -38.5zM73 0q0 40 4 119t4 119q0 39 -2 85q-5 114 -5 143l-1 7q7 -1 21.5 -2t27.5 -1q27 0 39 3q0 -36 -3.5 -99t-3.5 -88l1 -18h107q78 0 120 -28q49 -32 49 -99q0 -40 -23.5 -72.5t-63.5 -51.5q-17 -8 -42 -12.5t-48 -4.5l-109 2z" />
    <glyph glyph-name="ucircumflex" unicode="&#x44b;" horiz-adv-x="648" 
d="M486 466l-1 7q7 -1 21.5 -2t27.5 -1h24q10 2 14 3q0 -58 -2 -110t-4 -126q0 -49 2.5 -130.5t2.5 -96.5l1 -10l-44 3h-21t-22 -3q0 40 3 119t3 119q0 49 -2.5 130.5t-2.5 97.5zM157 38q20 0 43 -1t29 -1q54 0 86.5 26t32.5 73q0 52 -34 77q-28 20 -76 20l-83 -4l-2 -92
q0 -35 1 -59.5t3 -38.5zM73 0q0 40 4 119t4 119q0 39 -2 85q-5 114 -5 143l-1 7q7 -1 21.5 -2t27.5 -1q27 0 39 3q0 -36 -3.5 -99t-3.5 -88l1 -18h107q78 0 120 -28q49 -32 49 -99q0 -40 -23.5 -72.5t-63.5 -51.5q-17 -8 -42 -12.5t-48 -4.5l-109 2z" />
    <glyph glyph-name="udieresis" unicode="&#xfc;" horiz-adv-x="463" 
d="M157 38q20 0 43 -1t29 -1q54 0 86.5 26t32.5 73q0 52 -34 77q-28 20 -76 20l-83 -4l-2 -92q0 -35 1 -59.5t3 -38.5zM73 0q0 40 4 119t4 119q0 39 -2 85q-5 114 -5 143l-1 7q7 -1 21.5 -2t27.5 -1q27 0 39 3q0 -36 -3.5 -99t-3.5 -88l1 -18h107q78 0 120 -28
q49 -32 49 -99q0 -40 -23.5 -72.5t-63.5 -51.5q-17 -8 -42 -12.5t-48 -4.5l-109 2z" />
    <glyph glyph-name="udieresis" unicode="&#x44c;" horiz-adv-x="463" 
d="M157 38q20 0 43 -1t29 -1q54 0 86.5 26t32.5 73q0 52 -34 77q-28 20 -76 20l-83 -4l-2 -92q0 -35 1 -59.5t3 -38.5zM73 0q0 40 4 119t4 119q0 39 -2 85q-5 114 -5 143l-1 7q7 -1 21.5 -2t27.5 -1q27 0 39 3q0 -36 -3.5 -99t-3.5 -88l1 -18h107q78 0 120 -28
q49 -32 49 -99q0 -40 -23.5 -72.5t-63.5 -51.5q-17 -8 -42 -12.5t-48 -4.5l-109 2z" />
    <glyph glyph-name="yacute" unicode="&#xfd;" horiz-adv-x="481" 
d="M445 247q0 -123 -77 -194q-70 -65 -173 -65q-89 0 -162 52v44h5q32 -30 68.5 -44.5t73.5 -14.5q74 0 124 53q55 58 55 154h-148h-33.5t-41.5 -3q2 8 2 22q0 15 -2 23q39 -5 75 -5h147q0 86 -57 136q-49 43 -117 43q-43 0 -78 -19.5t-51 -54.5h-8q-2 18 -4 38.5t-5 34.5
q77 33 156 33q107 0 176 -58q75 -63 75 -175z" />
    <glyph glyph-name="yacute" unicode="&#x44d;" horiz-adv-x="481" 
d="M445 247q0 -123 -77 -194q-70 -65 -173 -65q-89 0 -162 52v44h5q32 -30 68.5 -44.5t73.5 -14.5q74 0 124 53q55 58 55 154h-148h-33.5t-41.5 -3q2 8 2 22q0 15 -2 23q39 -5 75 -5h147q0 86 -57 136q-49 43 -117 43q-43 0 -78 -19.5t-51 -54.5h-8q-2 18 -4 38.5t-5 34.5
q77 33 156 33q107 0 176 -58q75 -63 75 -175z" />
    <glyph glyph-name="thorn" unicode="&#xfe;" horiz-adv-x="721" 
d="M312 227q0 -86 31 -140q38 -65 113 -65q73 0 112 81q30 63 30 141q0 81 -28 136q-36 70 -106 70q-81 0 -120 -71q-32 -58 -32 -152zM225 230h-72q0 -37 3 -110t3 -110l1 -10l-44 3h-21t-22 -3q0 40 4 119t4 119q0 39 -2 85q-5 114 -5 143l-1 7q7 -1 21.5 -2t27.5 -1h24
q10 2 14 3q0 -40 -3.5 -111t-3.5 -91h73q9 94 76 153t163 59q98 0 159.5 -67.5t61.5 -178.5q0 -102 -60 -172q-66 -76 -178 -76q-96 0 -158 64q-65 67 -65 177z" />
    <glyph glyph-name="thorn" unicode="&#x44e;" horiz-adv-x="721" 
d="M312 227q0 -86 31 -140q38 -65 113 -65q73 0 112 81q30 63 30 141q0 81 -28 136q-36 70 -106 70q-81 0 -120 -71q-32 -58 -32 -152zM225 230h-72q0 -37 3 -110t3 -110l1 -10l-44 3h-21t-22 -3q0 40 4 119t4 119q0 39 -2 85q-5 114 -5 143l-1 7q7 -1 21.5 -2t27.5 -1h24
q10 2 14 3q0 -40 -3.5 -111t-3.5 -91h73q9 94 76 153t163 59q98 0 159.5 -67.5t61.5 -178.5q0 -102 -60 -172q-66 -76 -178 -76q-96 0 -158 64q-65 67 -65 177z" />
    <glyph glyph-name="ydieresis" unicode="&#xff;" horiz-adv-x="481" 
d="M326 252q0 44 -1 89l-2 90q-2 0 -39 2t-58 2q-45 0 -71.5 -23.5t-26.5 -64.5q0 -54 48 -77q37 -18 100 -18h50zM335 469l72 4q0 -39 -4 -118t-4 -118t3.5 -119t3.5 -108l1 -10l-44 3h-21t-22 -3q0 36 3 108t3 108h-49q-37 -54 -59 -84q-58 -80 -98 -132l-46 3l-58 -3
q19 23 64 78q74 90 111 144q-54 9 -88 30q-57 35 -57 97q0 56 46 88.5t131 32.5z" />
    <glyph glyph-name="ydieresis" unicode="&#x44f;" horiz-adv-x="481" 
d="M326 252q0 44 -1 89l-2 90q-2 0 -39 2t-58 2q-45 0 -71.5 -23.5t-26.5 -64.5q0 -54 48 -77q37 -18 100 -18h50zM335 469l72 4q0 -39 -4 -118t-4 -118t3.5 -119t3.5 -108l1 -10l-44 3h-21t-22 -3q0 36 3 108t3 108h-49q-37 -54 -59 -84q-58 -80 -98 -132l-46 3l-58 -3
q19 23 64 78q74 90 111 144q-54 9 -88 30q-57 35 -57 97q0 56 46 88.5t131 32.5z" />
    </font>
</defs>
</svg>
