<svg width="148" height="64" viewBox="0 0 148 64" fill="none" xmlns="http://www.w3.org/2000/svg">
<path d="M39.835 0L16.5737 63.9406H47.2786L70.5398 0H39.835ZM43.9057 37.142L46.5226 28.7968L49.0232 37.142H43.9057Z" fill="#BDBCBC"/>
<path d="M52.1053 14.6338H41.0562L28.3207 49.3075H40.0095L41.1144 45.7226H51.4656L52.5705 49.3075H64.7827L52.1053 14.6338ZM43.9057 37.1423L46.5226 28.7971L49.0232 37.1423H43.9057Z" fill="#E2051B"/>
<path d="M23.3776 28.7383H11.2817V25.5648H24.5406L28.495 14.6338H0V49.3075H11.2817V39.6694H19.365L23.3776 28.7383Z" fill="#164386"/>
<path d="M79.3793 49.3075H68.4465V14.6338H80.7168L88.5675 26.035L96.0692 14.6338H107.991V49.3075H97.0578V40.3746L97.4068 30.7365L88.8001 42.8429H87.6952L79.0304 30.7365L79.3793 40.4334V49.3075Z" fill="#164386"/>
<path d="M134.625 45.7226H124.274L123.169 49.3075H111.48L124.215 14.6338H135.264L148 49.3075H135.788L134.625 45.7226ZM132.066 37.1423L129.565 28.7971L126.949 37.1423H132.066Z" fill="#164386"/>
<path d="M55.3037 58.8871C55.3037 56.0074 57.6299 53.7742 60.5375 53.7742C61.9332 53.7742 62.8055 54.1268 63.5033 54.4794C63.6196 54.5382 63.6778 54.6557 63.6196 54.7732L62.98 56.1837C62.9218 56.3012 62.8055 56.3012 62.6892 56.2425C62.1077 55.9486 61.4098 55.6548 60.5375 55.6548C58.8511 55.6548 57.5136 57.0065 57.5136 58.8283C57.5136 60.7089 58.8511 62.0606 60.5957 62.0606C61.468 62.0606 62.224 61.8255 62.8055 61.4729C62.9218 61.4141 62.98 61.4141 63.0381 61.5317L63.6778 62.9421C63.7359 63.0597 63.6778 63.1772 63.5615 63.236C62.8055 63.6474 61.875 63.9412 60.4794 63.9412C57.3391 64 55.3037 62.0018 55.3037 58.8871Z" fill="#164386"/>
<path d="M72.8658 64C69.9 64 67.632 62.0018 67.632 58.8871C67.632 55.8311 69.9582 53.7742 72.8658 53.7742C75.8316 53.7742 78.0996 55.8311 78.0996 58.8871C78.0996 61.9431 75.8316 64 72.8658 64ZM72.8658 55.7723C71.1212 55.7723 69.7837 57.124 69.7837 58.9458C69.7837 60.7089 71.0631 62.0606 72.8658 62.0606C74.6104 62.0606 75.8898 60.7089 75.8898 58.9458C75.8898 57.124 74.6104 55.7723 72.8658 55.7723Z" fill="#164386"/>
<path d="M90.6023 63.5886C90.6023 63.7061 90.486 63.8237 90.3697 63.8237H88.7414C88.6251 63.8237 88.5088 63.7061 88.5088 63.5886V60.8264H84.5544V63.6474C84.5544 63.7649 84.4381 63.8824 84.3218 63.8824H82.7517C82.6353 63.8824 82.519 63.7649 82.519 63.6474V57.888C82.519 56.7126 82.9843 55.4785 83.9729 54.6557C84.6126 54.1268 85.4849 53.7742 86.5898 53.7742C87.6947 53.7742 88.567 54.1268 89.2067 54.6557C90.1953 55.4785 90.6605 56.7126 90.6605 57.888V63.5886H90.6023ZM85.2522 56.2425C84.9033 56.6538 84.6707 57.1828 84.6707 58.0055V58.9458H88.6251V58.0055C88.6251 57.2415 88.3925 56.6538 88.0436 56.2425C87.6947 55.8899 87.1713 55.7135 86.6479 55.7135C86.0664 55.7135 85.6012 55.8899 85.2522 56.2425Z" fill="#164386"/>
<path d="M102.757 53.8914C102.873 53.8914 102.989 54.0089 102.989 54.1264V55.5369C102.989 55.6544 102.873 55.772 102.757 55.772H99.7908V63.5882C99.7908 63.7058 99.6745 63.8233 99.5582 63.8233H97.9299C97.8136 63.8233 97.6973 63.7058 97.6973 63.5882V55.772H94.7315C94.6152 55.772 94.4988 55.6544 94.4988 55.5369V54.1264C94.4988 54.0089 94.6152 53.8914 94.7315 53.8914H102.757Z" fill="#164386"/>
<path d="M108.805 53.8914C108.921 53.8914 109.037 54.0089 109.037 54.1264V63.5882C109.037 63.7058 108.979 63.8233 108.805 63.8233H107.176C107.06 63.8233 106.944 63.7058 106.944 63.5882V54.1264C106.944 54.0089 107.06 53.8914 107.176 53.8914H108.805Z" fill="#164386"/>
<path d="M120.61 54.1264C120.61 54.0089 120.726 53.8914 120.842 53.8914H122.412C122.529 53.8914 122.645 54.0089 122.645 54.1264V63.5882C122.645 63.7058 122.529 63.8233 122.412 63.8233H120.959C120.784 63.8233 120.668 63.8233 120.552 63.5882L115.841 57.3587V63.5882C115.841 63.7058 115.725 63.8233 115.609 63.8233H114.038C113.922 63.8233 113.806 63.7058 113.806 63.5882V54.1264C113.806 54.0089 113.922 53.8914 114.038 53.8914H115.492C115.667 53.8914 115.725 53.9501 115.899 54.1264L120.61 60.3559V54.1264Z" fill="#164386"/>
<path d="M135.264 54.479C135.38 54.5378 135.439 54.6553 135.38 54.7729L134.741 56.1833C134.683 56.3009 134.566 56.3009 134.45 56.2421C133.81 55.9482 133.171 55.6544 132.298 55.6544C130.612 55.6544 129.216 57.0648 129.216 58.8279C129.216 60.7085 130.437 62.0602 132.298 62.0602C133.113 62.0602 133.927 61.8251 134.392 61.4725V60.2384H132.415C132.298 60.2384 132.182 60.1208 132.182 60.0033V58.5928C132.182 58.4753 132.298 58.3578 132.415 58.3578H136.136C136.253 58.3578 136.369 58.4753 136.369 58.5928V63.5294C136.369 63.647 136.311 63.7645 136.136 63.7645H134.624C134.508 63.7645 134.392 63.647 134.392 63.5294V63.3531C133.81 63.647 132.996 63.882 132.066 63.882C129.274 63.882 127.065 62.119 127.065 58.7691C127.065 55.8895 129.391 53.6562 132.298 53.6562C133.694 53.7738 134.624 54.1264 135.264 54.479Z" fill="#164386"/>
<path d="M140.672 63.0588C140.556 63 140.556 62.8825 140.614 62.7649L141.254 61.3545C141.312 61.2369 141.428 61.1782 141.545 61.2957C142.184 61.7071 143.057 62.1772 144.161 62.1772C144.685 62.1772 145.034 62.0597 145.266 61.8834C145.557 61.6483 145.673 61.2957 145.673 61.0606C145.673 60.4729 145.15 60.1203 144.452 59.8852C143.696 59.5914 142.708 59.4151 141.835 58.8862C141.137 58.416 140.614 57.7696 140.614 56.6529C140.614 55.8302 140.963 55.0662 141.661 54.596C142.3 54.1259 143.231 53.832 144.394 53.832C145.906 53.832 146.895 54.2434 147.534 54.596C147.651 54.6548 147.651 54.7723 147.592 54.8899L146.953 56.3003C146.895 56.4179 146.778 56.4179 146.662 56.3591C146.022 56.0065 145.15 55.6539 144.278 55.6539C143.812 55.6539 143.464 55.7714 143.231 55.8889C142.998 56.0653 142.882 56.3003 142.882 56.5354C142.882 57.0643 143.405 57.3582 144.161 57.5932C145.034 57.8871 146.08 58.0634 146.895 58.6511C147.534 59.1212 148 59.8265 148 60.8843C148 61.8834 147.592 62.6474 146.895 63.1763C146.197 63.7052 145.266 63.9991 144.22 63.9991C142.591 63.9991 141.428 63.4701 140.672 63.0588Z" fill="#164386"/>
</svg>
