 <svg width="0" height="0" class="hidden">
  <symbol fill="none" xmlns="http://www.w3.org/2000/svg" viewBox="0 0 21 22" id="phone-icon">
    <mask id="mask0_435_760" maskUnits="userSpaceOnUse" x="0" y="0" width="21" height="22">
      <rect y="0.5" width="21" height="21" fill="#D9D9D9"></rect>
    </mask>
    <g mask="url(#mask0_435_760)">
      <path d="M17.4563 18.875C15.6333 18.875 13.8323 18.4776 12.0531 17.6828C10.274 16.888 8.65521 15.7615 7.19688 14.3031C5.73854 12.8448 4.61198 11.226 3.81719 9.44688C3.0224 7.66771 2.625 5.86667 2.625 4.04375C2.625 3.78125 2.7125 3.5625 2.8875 3.3875C3.0625 3.2125 3.28125 3.125 3.54375 3.125H7.0875C7.29167 3.125 7.47396 3.19427 7.63438 3.33281C7.79479 3.47135 7.88958 3.63542 7.91875 3.825L8.4875 6.8875C8.51667 7.12083 8.50938 7.31771 8.46563 7.47813C8.42188 7.63854 8.34167 7.77708 8.225 7.89375L6.10313 10.0375C6.39479 10.5771 6.74115 11.0984 7.14219 11.6016C7.54323 12.1047 7.98438 12.5896 8.46563 13.0563C8.91771 13.5083 9.39167 13.9276 9.8875 14.3141C10.3833 14.7005 10.9083 15.0542 11.4625 15.375L13.5188 13.3188C13.65 13.1875 13.8214 13.0891 14.0328 13.0234C14.2443 12.9578 14.4521 12.9396 14.6562 12.9688L17.675 13.5813C17.8792 13.6396 18.0469 13.7453 18.1781 13.8984C18.3094 14.0516 18.375 14.2229 18.375 14.4125V17.9563C18.375 18.2188 18.2875 18.4375 18.1125 18.6125C17.9375 18.7875 17.7188 18.875 17.4563 18.875Z" fill="#222A58"></path>
    </g>
  </symbol>
  <symbol fill="none" xmlns="http://www.w3.org/2000/svg" viewBox="0 0 24 24" id="search-icon">
    <mask id="mask0_2102_885" maskUnits="userSpaceOnUse" x="0" y="0" width="24" height="24">
      <rect width="24" height="24" fill="#D9D9D9"></rect>
    </mask>
    <g mask="url(#mask0_2102_885)">
      <path d="M19.5423 20.5769L13.2615 14.2961C12.7615 14.7089 12.1865 15.032 11.5365 15.2653C10.8865 15.4987 10.2141 15.6153 9.51922 15.6153C7.81005 15.6153 6.36354 15.0236 5.17967 13.84C3.9958 12.6564 3.40387 11.2103 3.40387 9.50157C3.40387 7.79284 3.99565 6.34616 5.17922 5.16154C6.36279 3.97694 7.80894 3.38464 9.51767 3.38464C11.2264 3.38464 12.6731 3.97658 13.8577 5.16044C15.0423 6.34431 15.6346 7.79083 15.6346 9.49999C15.6346 10.2141 15.5147 10.8961 15.275 11.5461C15.0352 12.1961 14.7153 12.7615 14.3153 13.2423L20.5961 19.5231L19.5423 20.5769ZM9.51922 14.1154C10.8077 14.1154 11.899 13.6683 12.7933 12.774C13.6875 11.8798 14.1346 10.7885 14.1346 9.49999C14.1346 8.21153 13.6875 7.12018 12.7933 6.22594C11.899 5.33171 10.8077 4.88459 9.51922 4.88459C8.23075 4.88459 7.1394 5.33171 6.24517 6.22594C5.35095 7.12018 4.90384 8.21153 4.90384 9.49999C4.90384 10.7885 5.35095 11.8798 6.24517 12.774C7.1394 13.6683 8.23075 14.1154 9.51922 14.1154Z" fill="currentColor"></path>
    </g>
  </symbol>
  <symbol fill="none" xmlns="http://www.w3.org/2000/svg" viewBox="0 0 23 21" id="shopping-cart-icon">
    <g clip-path="url(#clip0_2102_917)">
      <path fill-rule="evenodd" clip-rule="evenodd" d="M21.4999 11L20.51 12.009L6.49994 12L5.49994 11L4.49994 2.00002H1.49994C1.36395 2.02027 1.22511 2.00837 1.09455 1.96527C0.963979 1.92218 0.845333 1.84909 0.74811 1.75186C0.650887 1.65464 0.577825 1.53599 0.534731 1.40543C0.491637 1.27486 0.479693 1.13601 0.499941 1.00002C0.506481 0.851314 0.544281 0.705662 0.610903 0.572558C0.677524 0.439453 0.771421 0.321884 0.886538 0.227526C1.00165 0.133168 1.1354 0.0641362 1.27899 0.0249349C1.42259 -0.0142665 1.57282 -0.0227557 1.71991 1.72704e-05H4.16998C4.47998 1.72704e-05 4.79999 0.00601397 4.79999 0.00601397C5.10479 -0.0363445 5.41451 0.0332319 5.67194 0.201845C5.92936 0.370459 6.11694 0.626675 6.19989 0.923014L6.60993 4.00002H21.4999L22.4999 5.00002V6.00002L21.4999 11ZM6.73993 6.00002L7.16998 9.99502H19.8599L20.68 5.99502L6.73993 6.00002ZM9.00995 13.989C9.70219 13.989 10.3788 14.1943 10.9544 14.5789C11.53 14.9635 11.9786 15.5101 12.2435 16.1496C12.5084 16.7892 12.5777 17.4929 12.4427 18.1718C12.3076 18.8508 11.9743 19.4744 11.4848 19.9639C10.9953 20.4534 10.3717 20.7867 9.69281 20.9218C9.01388 21.0568 8.31014 20.9875 7.6706 20.7226C7.03105 20.4577 6.48438 20.0091 6.09979 19.4335C5.71521 18.8579 5.50995 18.1812 5.50995 17.489C5.50982 17.0295 5.60029 16.5745 5.77619 16.1501C5.95208 15.7256 6.20989 15.34 6.53498 15.0153C6.86006 14.6905 7.24604 14.4331 7.67072 14.2577C8.09539 14.0823 8.55048 13.9924 9.00995 13.993V13.989ZM17.9999 13.989C18.6926 13.987 19.3703 14.1906 19.9472 14.574C20.5241 14.9574 20.9742 15.5033 21.2407 16.1427C21.5071 16.782 21.5778 17.4861 21.4439 18.1657C21.31 18.8453 20.9774 19.4698 20.4883 19.9603C19.9993 20.4508 19.3757 20.7852 18.6965 20.921C18.0173 21.0569 17.313 20.9882 16.6729 20.7235C16.0328 20.4589 15.4856 20.0103 15.1005 19.4345C14.7155 18.8588 14.51 18.1817 14.51 17.489C14.511 16.5632 14.8788 15.6755 15.5329 15.0203C16.187 14.365 17.0741 13.9957 17.9999 13.993V13.989ZM8.99994 15.995C9.29661 15.995 9.58664 16.083 9.83331 16.2478C10.08 16.4126 10.2723 16.6469 10.3858 16.921C10.4993 17.1951 10.529 17.4967 10.4711 17.7876C10.4133 18.0786 10.2704 18.3459 10.0606 18.5557C9.85083 18.7655 9.58352 18.9083 9.29254 18.9662C9.00157 19.0241 8.70006 18.9944 8.42597 18.8808C8.15188 18.7673 7.91757 18.575 7.75275 18.3284C7.58793 18.0817 7.49994 17.7917 7.49994 17.495C7.50126 17.0981 7.65994 16.7178 7.9411 16.4376C8.22226 16.1574 8.60298 16 8.99994 16V15.995ZM17.9999 15.995C18.2966 15.995 18.5866 16.083 18.8333 16.2478C19.08 16.4126 19.2723 16.6469 19.3858 16.921C19.4993 17.1951 19.529 17.4967 19.4711 17.7876C19.4133 18.0786 19.2704 18.3459 19.0606 18.5557C18.8508 18.7655 18.5835 18.9083 18.2925 18.9662C18.0016 19.0241 17.7001 18.9944 17.426 18.8808C17.1519 18.7673 16.9176 18.575 16.7527 18.3284C16.5879 18.0817 16.4999 17.7917 16.4999 17.495C16.5013 17.0981 16.6599 16.7178 16.9411 16.4376C17.2223 16.1574 17.603 16 17.9999 16V15.995Z" fill="currentColor"></path>
    </g>
    <defs>
      <clipPath id="clip0_2102_917">
        <rect width="22" height="21" fill="white" transform="translate(0.5)"></rect>
      </clipPath>
    </defs>
  </symbol>
  <symbol fill="none" xmlns="http://www.w3.org/2000/svg" viewBox="0 0 24 21" id="favorites-icon">
    <g clip-path="url(#clip0_2102_907)">
      <path fill-rule="evenodd" clip-rule="evenodd" d="M21.497 10.6837L12.19 20.0004H11.808L2.55002 10.7936C1.6225 9.95882 0.969087 8.86323 0.675513 7.6506C0.381939 6.43797 0.461916 5.16496 0.904952 3.99858C1.34799 2.8322 2.13339 1.82693 3.1581 1.11469C4.18282 0.402444 5.39898 0.0164858 6.64702 0.00745365C7.75533 0.0121466 8.84154 0.317712 9.78964 0.891509C10.7377 1.46531 11.5121 2.28578 12.03 3.2653C12.6627 2.05395 13.6853 1.09105 14.9327 0.531994C16.18 -0.0270662 17.5795 -0.149673 18.9051 0.18396C20.2308 0.517592 21.4053 1.288 22.2391 2.37086C23.073 3.45371 23.5175 4.78585 23.501 6.15227C23.5002 7.00531 23.3216 7.84881 22.9765 8.629C22.6315 9.4092 22.1276 10.109 21.497 10.6837ZM20.33 9.1762L12.154 17.3363H11.838L3.74702 9.29416L3.75702 9.28516C3.1626 8.68922 2.75739 7.93113 2.59217 7.10594C2.42695 6.28074 2.50908 5.42515 2.82826 4.64642C3.14745 3.86769 3.68949 3.20047 4.38642 2.7284C5.08336 2.25633 5.90419 2.00042 6.74602 1.99275C7.39805 1.99469 8.04067 2.14836 8.623 2.44158C9.20532 2.73481 9.71136 3.15955 10.101 3.68215L10.113 3.67215L10.177 3.77212C10.254 3.87908 10.319 3.99204 10.385 4.106L12.077 6.82103L13.556 4.35991C13.6663 4.13209 13.7968 3.91462 13.946 3.71014L13.982 3.65016L13.989 3.65916C14.3762 3.14223 14.8781 2.7222 15.4552 2.43217C16.0324 2.14213 16.669 1.99 17.315 1.98775C18.1449 1.99488 18.9544 2.24511 19.6434 2.70747C20.3324 3.16983 20.8707 3.82401 21.1915 4.58906C21.5124 5.3541 21.6018 6.19641 21.4487 7.01174C21.2956 7.82706 20.9066 8.57959 20.33 9.1762ZM22.469 20.0004H23.469V21H22.469V20.0004ZM22.469 20.0004H23.469V21H22.469V20.0004Z" fill="currentColor"></path>
    </g>
    <defs>
      <clipPath id="clip0_2102_907">
        <rect width="23" height="21" fill="white" transform="translate(0.5)"></rect>
      </clipPath>
    </defs>
  </symbol>
 
  <symbol fill="none" xmlns="http://www.w3.org/2000/svg" viewBox="0 0 24 24" id="location-icon">
    <mask id="mask0_435_792" maskUnits="userSpaceOnUse" x="0" y="0" width="24" height="24">
      <rect width="24" height="24" fill="currentColor"></rect>
    </mask>
    <g mask="url(#mask0_435_792)">
      <path d="M12 12C12.5667 12 13.0417 11.8083 13.425 11.425C13.8083 11.0417 14 10.5667 14 10C14 9.43333 13.8083 8.95833 13.425 8.575C13.0417 8.19167 12.5667 8 12 8C11.4333 8 10.9583 8.19167 10.575 8.575C10.1917 8.95833 10 9.43333 10 10C10 10.5667 10.1917 11.0417 10.575 11.425C10.9583 11.8083 11.4333 12 12 12Z" fill="currentColor"></path>
      <path d="M12 19.35C14.0333 17.4833 15.5417 15.7875 16.525 14.2625C17.5083 12.7375 18 11.3833 18 10.2C18 8.38333 17.4208 6.89583 16.2625 5.7375C15.1042 4.57917 13.6833 4 12 4C10.3167 4 8.89583 4.57917 7.7375 5.7375C6.57917 6.89583 6 8.38333 6 10.2C6 11.3833 6.49167 12.7375 7.475 14.2625C8.45833 15.7875 9.96667 17.4833 12 19.35ZM12 22C9.31667 19.7167 7.3125 17.5958 5.9875 15.6375C4.6625 13.6792 4 11.8667 4 10.2C4 7.7 4.80417 5.70833 6.4125 4.225C8.02083 2.74167 9.88333 2 12 2C14.1167 2 15.9792 2.74167 17.5875 4.225C19.1958 5.70833 20 7.7 20 10.2C20 11.8667 19.3375 13.6792 18.0125 15.6375C16.6875 17.5958 14.6833 19.7167 12 22Z" fill="currentColor"></path>
    </g>
  </symbol>
</svg>

 