<svg width="24" height="24" viewBox="0 0 24 24" fill="none" xmlns="http://www.w3.org/2000/svg">
<mask id="mask0_563_420" style="mask-type:alpha" maskUnits="userSpaceOnUse" x="0" y="0" width="24" height="25">
<rect y="0.00488281" width="24" height="24" fill="#D9D9D9"/>
</mask>
<g mask="url(#mask0_563_420)">
<path d="M0 17.0049V10.0049H2V17.0049H0ZM3 14.0049V7.00488H5V14.0049H3ZM8 22.0049C7.45 22.0049 6.97917 21.809 6.5875 21.4174C6.19583 21.0257 6 20.5549 6 20.0049V4.00488C6 3.45488 6.19583 2.98405 6.5875 2.59238C6.97917 2.20072 7.45 2.00488 8 2.00488H16C16.55 2.00488 17.0208 2.20072 17.4125 2.59238C17.8042 2.98405 18 3.45488 18 4.00488V20.0049C18 20.5549 17.8042 21.0257 17.4125 21.4174C17.0208 21.809 16.55 22.0049 16 22.0049H8ZM16 19.0049H8V20.0049H16V19.0049ZM8 17.0049H16V7.00488H8V17.0049ZM8 5.00488H16V4.00488H8V5.00488ZM19 17.0049V10.0049H21V17.0049H19ZM22 14.0049V7.00488H24V14.0049H22Z" fill="#EAAF44"/>
</g>
</svg>
