<svg width="25" height="24" viewBox="0 0 25 24" fill="none" xmlns="http://www.w3.org/2000/svg">
<path d="M6.66702 18.1C6.66527 18.3365 6.75479 18.5641 6.91594 18.7328C7.0771 18.9015 7.29673 18.9976 7.52667 19H17.474C17.704 18.9976 17.9236 18.9015 18.0848 18.7328C18.2459 18.5641 18.3354 18.3365 18.3337 18.1V6.09998H6.66702V18.1ZM7.83368 7.29998H17.167V17.8H7.83368V7.29998Z" fill="#BDBCBC"/>
<path d="M10.4582 8.5H9.2915V16H10.4582V8.5Z" fill="#BDBCBC"/>
<path d="M13.0837 8.5H11.917V16H13.0837V8.5Z" fill="#BDBCBC"/>
<path d="M15.7082 8.5H14.5415V16H15.7082V8.5Z" fill="#BDBCBC"/>
<path d="M15.125 3.7V1.9C15.125 1.39533 14.7791 1 14.3375 1H10.6625C10.2209 1 9.875 1.39533 9.875 1.9V3.7H5.5V4.9H19.5V3.7H15.125ZM11.0417 2.2H13.9583V3.7H11.0417V2.2Z" fill="#BDBCBC"/>
</svg>
